<svg width="47" height="46" viewBox="0 0 47 46" fill="none" xmlns="http://www.w3.org/2000/svg">
<path d="M16.0515 18.0574L16.0829 30.1693L28.1949 30.2008C28.3211 30.2178 28.4494 30.2076 28.5713 30.1708C28.6932 30.1339 28.8058 30.0713 28.9014 29.9872C28.997 29.9031 29.0734 29.7994 29.1254 29.6832C29.1774 29.5669 29.2039 29.4409 29.203 29.3136C29.2021 29.1862 29.1738 29.0606 29.1201 28.9451C29.0664 28.8296 28.9886 28.7271 28.8918 28.6443C28.795 28.5616 28.6816 28.5006 28.5591 28.4655C28.4367 28.4304 28.3082 28.422 28.1823 28.4409L19.1062 28.4031L31.1301 16.3792C31.2968 16.2125 31.3905 15.9864 31.3905 15.7506C31.3905 15.5149 31.2968 15.2888 31.1301 15.1221C30.9634 14.9554 30.7373 14.8618 30.5016 14.8618C30.2659 14.8618 30.0398 14.9554 29.8731 15.1221L17.8491 27.1461L17.8114 18.07C17.8106 17.8341 17.7161 17.6082 17.5487 17.442C17.3813 17.2758 17.1547 17.1829 16.9189 17.1837C16.683 17.1845 16.4571 17.279 16.2909 17.4464C16.1247 17.6138 16.0318 17.8404 16.0326 18.0762L16.0515 18.0574Z" fill="#F01248"/>
</svg>
