<svg width="46" height="46" viewBox="0 0 46 46" fill="none" xmlns="http://www.w3.org/2000/svg">
<path d="M18.0569 30.201L30.1688 30.1695L30.2003 18.0576C30.2174 17.9314 30.2071 17.803 30.1703 17.6811C30.1334 17.5592 30.0708 17.4467 29.9867 17.3511C29.9026 17.2555 29.7989 17.1791 29.6827 17.127C29.5665 17.075 29.4404 17.0485 29.3131 17.0495C29.1857 17.0504 29.0601 17.0786 28.9446 17.1323C28.8291 17.186 28.7266 17.2639 28.6438 17.3607C28.5611 17.4575 28.5001 17.5709 28.465 17.6933C28.4299 17.8157 28.4215 17.9442 28.4404 18.0701L28.4027 27.1463L16.3787 15.1223C16.212 14.9556 15.9859 14.862 15.7502 14.862C15.5144 14.8619 15.2883 14.9556 15.1216 15.1223C14.9549 15.289 14.8613 15.5151 14.8613 15.7508C14.8613 15.9866 14.9549 16.2127 15.1216 16.3794L27.1456 28.4033L18.0695 28.441C17.8336 28.4419 17.6077 28.5364 17.4415 28.7038C17.2753 28.8711 17.1824 29.0977 17.1832 29.3336C17.1841 29.5695 17.2786 29.7953 17.4459 29.9615C17.6133 30.1277 17.8399 30.2206 18.0757 30.2198L18.0569 30.201Z" fill="#F01248"/>
</svg>
