<svg width="46" height="46" viewBox="0 0 46 46" fill="none" xmlns="http://www.w3.org/2000/svg">
<g id="clarity:arrow-line">
<path id="Vector" d="M18.278 30.5457L30.4877 30.4176L30.4241 18.405C30.4403 18.2797 30.429 18.1525 30.3909 18.0319C30.3528 17.9113 30.2888 17.8002 30.2032 17.706C30.1177 17.6119 30.0126 17.537 29.895 17.4863C29.7774 17.4356 29.6501 17.4104 29.5218 17.4123C29.3934 17.4142 29.267 17.4432 29.151 17.4974C29.035 17.5516 28.9322 17.6296 28.8496 17.7263C28.7669 17.823 28.7063 17.9359 28.6719 18.0576C28.6375 18.1793 28.63 18.3068 28.65 18.4316L28.6835 27.4333L16.4675 15.6045C16.2982 15.4405 16.0695 15.3494 15.8319 15.3513C15.5942 15.3532 15.367 15.4479 15.2003 15.6145C15.0335 15.7812 14.9409 16.0062 14.9428 16.24C14.9446 16.4738 15.0408 16.6973 15.2102 16.8613L27.4261 28.6901L18.2768 28.8001C18.039 28.8029 17.8121 28.8984 17.6458 29.0657C17.4796 29.2331 17.3877 29.4585 17.3904 29.6924C17.3931 29.9264 17.4902 30.1496 17.6602 30.3131C17.8303 30.4766 18.0594 30.5669 18.2972 30.5642L18.278 30.5457Z" fill="#F9F9F9"/>
</g>
</svg>
