<svg width="32" height="33" viewBox="0 0 32 33"  xmlns="http://www.w3.org/2000/svg">
<path d="M26.0696 4.00053C25.7486 4.02388 25.4335 4.0992 25.1366 4.22353H25.1326C24.8476 4.33653 23.4926 4.90653 21.4326 5.77053L14.0506 8.87953C8.75363 11.1095 3.54663 13.3055 3.54663 13.3055L3.60863 13.2815C3.60863 13.2815 3.24963 13.3995 2.87463 13.6565C2.64296 13.804 2.4436 13.9968 2.28863 14.2235C2.10463 14.4935 1.95663 14.9065 2.01163 15.3335C2.10163 16.0555 2.56963 16.4885 2.90563 16.7275C3.24563 16.9695 3.56963 17.0825 3.56963 17.0825H3.57763L8.46063 18.7275C8.67963 19.4305 9.94863 23.6025 10.2536 24.5635C10.4336 25.1375 10.6086 25.4965 10.8276 25.7705C10.9336 25.9105 11.0576 26.0275 11.2066 26.1215C11.2841 26.1666 11.3667 26.2022 11.4526 26.2275L11.4026 26.2155C11.4176 26.2195 11.4296 26.2315 11.4406 26.2355C11.4806 26.2465 11.5076 26.2505 11.5586 26.2585C12.3316 26.4925 12.9526 26.0125 12.9526 26.0125L12.9876 25.9845L15.8706 23.3595L20.7026 27.0665L20.8126 27.1135C21.8196 27.5555 22.8396 27.3095 23.3786 26.8755C23.9216 26.4385 24.1326 25.8795 24.1326 25.8795L24.1676 25.7895L27.9016 6.66053C28.0076 6.18853 28.0346 5.74653 27.9176 5.31753C27.797 4.88335 27.5184 4.50994 27.1366 4.27053C26.8161 4.07564 26.4443 3.98158 26.0696 4.00053ZM25.9686 6.05053C25.9646 6.11353 25.9766 6.10653 25.9486 6.22753V6.23853L22.2496 25.1685C22.2336 25.1955 22.2066 25.2545 22.1326 25.3135C22.0546 25.3755 21.9926 25.4145 21.6676 25.2855L15.7576 20.7545L12.1876 24.0085L12.9376 19.2185L22.5936 10.2185C22.9916 9.84853 22.8586 9.77053 22.8586 9.77053C22.8866 9.31653 22.2576 9.63753 22.2576 9.63753L10.0816 17.1805L10.0776 17.1605L4.24163 15.1955V15.1915L4.22663 15.1885C4.23686 15.1851 4.24688 15.1811 4.25663 15.1765L4.28863 15.1605L4.31963 15.1495C4.31963 15.1495 9.53063 12.9535 14.8276 10.7235C17.4796 9.60653 20.1516 8.48153 22.2066 7.61353C23.4254 7.10053 24.6454 6.59053 25.8666 6.08353C25.9486 6.05153 25.9096 6.05053 25.9686 6.05053Z" fill="#fff"/>
</svg>
