<svg width="32" height="33" viewBox="0 0 32 33" fill="none" xmlns="http://www.w3.org/2000/svg">
<path d="M15.6999 4.00452C13.7999 4.00452 9.09992 4.20452 6.59992 6.60452C4.79992 8.30452 4.09992 10.9045 3.99992 14.0045C3.79992 18.9045 4.89992 22.0045 6.69992 23.6045C7.09992 23.9045 8.09992 24.7045 9.99992 25.3045V27.8045C9.99992 27.8045 9.99992 28.8045 10.5999 29.0045C10.6999 29.0045 10.7999 29.1045 10.8999 29.1045C11.4999 29.1045 11.9999 28.4045 12.6999 27.7045C13.2999 27.0045 13.7999 26.5045 14.0999 26.0045H16.2999C18.1999 26.0045 22.8999 25.8045 25.3999 23.4045C27.1999 21.6045 27.8999 19.0045 27.8999 15.7045C27.9999 15.2045 27.9999 14.6045 27.9999 14.0045C27.8999 10.3045 26.7999 7.80452 25.2999 6.40452C24.6999 5.90452 22.0999 4.00452 16.4999 4.00452H15.6999ZM15.4999 5.90452H16.3999C21.6999 5.90452 23.6999 7.60452 23.8999 7.80452C25.0999 8.80452 25.7999 11.0045 25.8999 13.9045V14.3045C25.9999 14.9045 25.9999 15.4045 25.9999 15.7045C25.8999 18.7045 25.2999 20.7045 24.0999 22.0045C21.9999 23.9045 17.5999 24.0045 16.3999 24.0045H14.4999L12.8999 25.8045L11.8999 26.9045L11.6999 27.2045C11.4999 27.4045 11.1999 27.8045 10.9999 27.9045V23.4045C8.99992 22.9045 8.19992 22.2045 7.99992 22.0045C6.59992 20.8045 5.79992 17.9045 5.99992 14.0045V13.0045C6.19992 10.6045 6.79992 9.00452 7.79992 7.90452C9.89992 6.00452 14.2999 5.90452 15.4999 5.90452ZM15.3999 8.10452C14.8999 8.10452 14.8999 8.80452 15.3999 8.80452C19.0999 8.80452 22.2999 11.3045 22.2999 16.0045C22.2999 16.5045 22.9999 16.5045 22.9999 16.0045C22.9999 10.9045 19.5999 8.00452 15.3999 8.10452ZM11.4369 9.02952C11.2103 9.00236 10.9821 9.0648 10.8009 9.20352C9.80092 9.70352 8.79992 10.7055 9.09992 11.8055C9.09992 11.8055 9.29992 12.7045 10.3999 14.6045C10.9999 15.5045 11.4999 16.3045 11.9999 16.9045C12.4999 17.6045 13.2999 18.4045 14.0999 19.0045C15.6999 20.3045 18.1999 21.6045 19.2999 21.9045C20.2999 22.2045 21.3999 21.2045 21.8999 20.2045C22.0999 19.8045 21.9999 19.3045 21.5999 19.0045C20.9999 18.4045 19.9999 17.7045 19.2999 17.3045C18.7999 17.0045 18.1999 17.2045 17.9999 17.5045L17.4999 18.1045C17.2999 18.4045 16.7999 18.4045 16.7999 18.4045C13.4999 17.5045 12.5999 14.1045 12.5999 14.1045C12.5999 14.1045 12.5999 13.7045 12.8999 13.4045L13.4999 12.9045C13.7999 12.7045 13.9999 12.1045 13.6999 11.6045C13.4999 11.3045 13.1999 10.7045 12.8999 10.4045C12.5999 10.0045 11.9999 9.30452 11.9999 9.30452C11.8482 9.15259 11.65 9.05579 11.4369 9.02952ZM16.0999 10.1045C15.5999 10.0045 15.4999 10.8045 15.9999 10.8045C18.7999 11.0045 20.3999 12.9045 20.2999 15.3045C20.1999 15.8045 20.9999 15.8045 20.9999 15.3045C21.0999 12.5045 19.2999 10.2045 16.0999 10.1045ZM16.3999 12.0045C15.8999 11.9045 15.8999 12.7045 16.3999 12.7045C17.5999 12.7045 18.1999 13.4045 18.1999 14.6045C18.2999 15.1045 18.9999 15.1045 18.9999 14.6045C18.8999 13.0045 17.9999 12.0045 16.3999 12.0045Z" fill="#F9F9F9"/>
</svg>
