<svg width="32" height="33" viewBox="0 0 32 33" fill="none" xmlns="http://www.w3.org/2000/svg">
<path d="M25.401 6.55119C24.1786 5.31643 22.7226 4.33742 21.1179 3.67126C19.5132 3.0051 17.7919 2.66514 16.0544 2.67119C8.77437 2.67119 2.84104 8.60452 2.84104 15.8845C2.84104 18.2179 3.45438 20.4845 4.60104 22.4845L2.73438 29.3379L9.73437 27.4979C11.6677 28.5512 13.841 29.1112 16.0544 29.1112C23.3344 29.1112 29.2677 23.1779 29.2677 15.8979C29.2677 12.3645 27.8944 9.04452 25.401 6.55119ZM16.0544 26.8712C14.081 26.8712 12.1477 26.3379 10.4544 25.3379L10.0544 25.0979L5.89438 26.1912L7.00104 22.1379L6.73438 21.7245C5.63804 19.9738 5.0559 17.9502 5.05437 15.8845C5.05437 9.83119 9.98771 4.89786 16.041 4.89786C18.9744 4.89786 21.7344 6.04453 23.801 8.12453C24.8244 9.14314 25.6353 10.3547 26.1869 11.6891C26.7385 13.0234 27.0198 14.454 27.0144 15.8979C27.041 21.9512 22.1077 26.8712 16.0544 26.8712ZM22.081 18.6579C21.7477 18.4979 20.121 17.6979 19.8277 17.5779C19.521 17.4712 19.3077 17.4179 19.081 17.7379C18.8544 18.0712 18.2277 18.8179 18.041 19.0312C17.8544 19.2579 17.6544 19.2845 17.321 19.1112C16.9877 18.9512 15.921 18.5912 14.6677 17.4712C13.681 16.5912 13.0277 15.5112 12.8277 15.1779C12.641 14.8445 12.801 14.6712 12.9744 14.4979C13.121 14.3512 13.3077 14.1112 13.4677 13.9245C13.6277 13.7379 13.6944 13.5912 13.801 13.3779C13.9077 13.1512 13.8544 12.9645 13.7744 12.8045C13.6944 12.6445 13.0277 11.0179 12.761 10.3512C12.4944 9.71119 12.2144 9.79119 12.0144 9.77786H11.3744C11.1477 9.77786 10.801 9.85786 10.4944 10.1912C10.201 10.5245 9.34771 11.3245 9.34771 12.9512C9.34771 14.5779 10.5344 16.1512 10.6944 16.3645C10.8544 16.5912 13.0277 19.9245 16.3344 21.3512C17.121 21.6979 17.7344 21.8979 18.2144 22.0445C19.001 22.2979 19.721 22.2579 20.2944 22.1779C20.9344 22.0845 22.2544 21.3779 22.521 20.6045C22.801 19.8312 22.801 19.1779 22.7077 19.0312C22.6144 18.8845 22.4144 18.8179 22.081 18.6579Z" fill="#F9F9F9"/>
</svg>
