<svg width="1920" height="1860" viewBox="0 0 1920 1860" fill="none" xmlns="http://www.w3.org/2000/svg">
<g opacity="0.2">
<mask id="mask0_202_888" style="mask-type:luminance" maskUnits="userSpaceOnUse" x="-522" y="117" width="2545" height="1690">
<path d="M2022.65 117.189H-522V1806.3H2022.65V117.189Z" fill="white"/>
</mask>
<g mask="url(#mask0_202_888)">
<path d="M-2134.03 2143.27C-2104.98 1981.75 -1940.85 1885.47 -1782.45 1866.68C-1624.04 1847.68 -1462.67 1884.63 -1302.57 1884.63C-873.58 1884.41 -469.192 1590.51 -328.812 1176.89C-283.857 1044.3 -264.136 903.044 -220.241 770.027C-176.345 637.01 -101.914 507.582 18.9568 444.24C192.841 353.24 410.621 423.338 585.99 525.106C761.359 626.875 925.701 761.581 1120.16 808.243C1375.68 869.473 1640.96 764.115 1836.47 594.149C2031.78 424.182 2169.82 195.731 2304.69 -28.9204" stroke="#D4E8F7" stroke-miterlimit="10"/>
<path d="M-2143.58 2127.65C-2111.77 1966.97 -1948.06 1870.9 -1789.45 1851.48C-1720.95 1843.03 -1651.61 1845.14 -1582.27 1850.84C-1491.3 1858.23 -1400.12 1871.32 -1309.57 1873.22C-1124.87 1877.24 -944.835 1830.15 -786.642 1738.73C-664.499 1668.21 -555.715 1575.1 -468.985 1463.41C-406.853 1384.02 -357.444 1294.49 -322.879 1197.37C-307.399 1153.88 -294.676 1109.33 -283.013 1064.35C-259.263 972.931 -239.754 880.031 -209.006 791.564C-174.017 691.273 -121.216 594.149 -42.7554 528.063C-18.3692 507.372 8.13764 489.636 37.1891 475.701C159.12 417.427 300.136 437.485 435.003 487.102C493.318 508.639 550.573 535.453 603.799 564.379C663.386 596.683 721.701 631.521 779.804 664.67C893.889 730.123 1006.49 790.297 1128.42 812.255C1207.73 826.402 1285.98 822.812 1363.38 805.499C1520.72 770.45 1675.31 676.916 1804.24 557.623C1839.65 524.896 1873.37 490.481 1906.02 454.587C2051.07 295.178 2172.36 110.854 2291.96 -62.9126" stroke="#D4E8F7" stroke-miterlimit="10"/>
<path d="M-2153.12 2111.81C-2118.34 1951.98 -1955.27 1855.91 -1796.44 1835.85C-1727.74 1827.2 -1658.39 1829.31 -1588.84 1835.22C-1497.87 1843.03 -1406.69 1857.39 -1316.35 1861.4C-1132.08 1869.64 -952.253 1830.15 -792.576 1742.53C-669.161 1674.97 -558.68 1586.29 -468.557 1478.82C-404.093 1401.96 -352.775 1313.92 -316.726 1217.43C-300.61 1174.36 -287.463 1129.81 -275.164 1084.83C-250.353 993.623 -229.784 900.511 -197.764 812.889C-161.29 713.231 -106.58 618.43 -25.5755 555.511C-0.553042 536.086 26.1658 519.407 55.4293 506.738C177.997 453.743 317.105 478.657 451.759 528.485C510.286 550.022 567.965 575.992 621.827 603.017C682.05 633.21 741.001 664.881 798.892 694.018C912.553 751.87 1022.19 802.754 1137.12 815.422C1211.55 823.657 1282.59 814.156 1354.05 792.197C1498.88 747.225 1645.84 645.245 1772.65 520.462C1807.42 486.258 1841.14 450.364 1874.01 413.626C2020.54 249.361 2150.95 66.7262 2279.67 -97.7505" stroke="#D4E8F7" stroke-miterlimit="10"/>
<path d="M-2162.66 2095.97C-2124.91 1936.99 -1962.48 1840.92 -1803.44 1820.44C-1734.73 1811.57 -1664.97 1813.47 -1595.41 1819.81C-1504.23 1828.25 -1413.47 1843.88 -1323.14 1849.79C-1139.07 1862.24 -959.888 1830.36 -798.514 1746.54C-673.826 1681.93 -561.437 1597.69 -468.134 1494.44C-401.124 1420.12 -348.111 1333.55 -310.577 1237.49C-293.825 1194.63 -280.041 1150.5 -267.106 1105.31C-241.235 1014.31 -219.606 920.99 -186.313 834.002C-148.355 734.978 -91.9491 642.499 -8.18763 582.747C17.471 564.589 44.4022 548.965 73.6657 537.775C196.657 490.057 334.068 520.039 468.511 569.868C527.25 591.615 585.141 616.529 639.639 641.655C700.498 669.736 759.874 698.24 817.764 723.576C931.001 773.405 1037.88 815.421 1145.6 818.8C1215.37 820.911 1279.19 805.92 1344.3 779.106C1476.62 724.632 1615.94 613.573 1740.41 483.512C1774.55 447.619 1808.06 410.669 1841.14 372.876C1988.94 203.754 2128.47 22.8085 2266.73 -132.167" stroke="#D4E8F7" stroke-miterlimit="10"/>
<path d="M-2172.2 2080.14C-2131.48 1922.21 -1969.69 1825.93 -1810.22 1805.03C-1741.3 1795.95 -1671.54 1797.64 -1601.77 1804.6C-1510.59 1813.47 -1419.83 1830.36 -1329.71 1838.39C-1146.07 1854.85 -967.094 1830.79 -804.448 1750.98C-678.276 1689.32 -563.979 1609.72 -467.918 1510.49C-398.152 1438.7 -343.654 1353.61 -304.848 1258.18C-287.46 1215.74 -273.04 1171.61 -259.681 1126.43C-232.75 1035.43 -210.06 942.316 -175.283 855.749C-135.841 757.57 -77.738 666.991 8.78024 610.829C35.075 593.727 62.2182 579.58 91.6937 569.446C215.321 527.007 350.612 562.056 485.267 611.884C544.006 633.843 602.533 657.701 657.455 681.138C718.95 707.319 778.962 732.444 836.429 753.98C949.242 796.208 1053.36 828.723 1153.66 823.023C1218.76 819.222 1275.38 798.319 1334.33 766.649C1454.36 702.463 1585.62 582.747 1708.18 447.408C1741.9 410.036 1775.19 371.609 1808.49 332.76C1957.56 158.993 2106.21 -20.6856 2253.8 -165.949" stroke="#D4E8F7" stroke-miterlimit="10"/>
<path d="M-2181.75 2064.3C-2138.06 1907.22 -1976.9 1810.94 -1817.22 1789.61C-1748.31 1780.32 -1678.33 1782.01 -1608.35 1789.19C-1517.17 1798.48 -1426.41 1816.64 -1336.5 1826.77C-1153.28 1847.47 -974.733 1830.79 -810.39 1754.99C-682.946 1696.29 -566.74 1621.34 -467.499 1526.32C-395.188 1457.07 -338.994 1373.25 -298.703 1278.45C-280.679 1236.22 -265.623 1192.3 -251.839 1147.33C-223.848 1056.54 -200.098 963.219 -164.049 877.496C-123.122 779.951 -63.3227 691.695 25.9522 638.699C52.671 622.864 80.2381 609.773 109.714 600.905C233.765 563.956 367.36 603.65 501.802 653.901C560.753 675.86 619.704 698.874 675.263 720.41C737.394 744.479 797.83 766.438 855.297 783.962C967.686 818.378 1069.47 841.814 1162.14 826.823C1222.79 817.111 1271.77 790.296 1324.79 753.981C1432.51 679.871 1555.92 551.71 1676.37 410.881C1709.45 372.032 1742.74 332.338 1776.25 292.432C1926.6 113.81 2084.58 -64.18 2241.5 -199.942" stroke="#D4E8F7" stroke-miterlimit="10"/>
<path d="M-2191.5 2048.68C-2144.85 1892.44 -1984.33 1796.37 -1824.44 1774.41C-1755.31 1764.91 -1685.12 1766.39 -1615.14 1773.99C-1523.74 1783.91 -1433.41 1803.34 -1343.5 1815.37C-1160.5 1840.08 -982.37 1831.21 -816.543 1759.21C-687.826 1703.68 -569.5 1633.16 -467.29 1542.16C-392.222 1475.44 -334.544 1393.1 -292.769 1298.93C-274.32 1256.91 -258.628 1213.21 -243.997 1168.23C-214.945 1077.66 -189.923 984.122 -152.813 899.033C-110.402 802.332 -48.9064 715.976 43.1252 666.359C70.4802 651.579 98.2593 639.756 127.947 632.155C252.423 600.484 384.108 645.245 518.551 695.496C577.714 717.666 637.089 739.624 693.072 759.26C755.84 781.218 816.7 800.009 874.166 813.733C986.131 840.548 1085.8 854.272 1170.62 830.413C1227.02 814.578 1268.38 782.063 1315.03 740.891C1410.24 657.069 1526.02 520.04 1644.35 373.932C1676.79 333.394 1710.08 292.433 1743.8 251.683C1895.63 68.2044 2062.52 -108.096 2228.77 -234.568" stroke="#D4E8F7" stroke-miterlimit="10"/>
<path d="M-2201.05 2032.85C-2151.43 1877.66 -1991.54 1781.38 -1831.44 1758.79C-1762.31 1749.08 -1691.9 1750.55 -1621.71 1758.58C-1530.32 1768.92 -1439.98 1789.62 -1350.28 1803.76C-1167.71 1832.69 -989.792 1831.42 -822.481 1763.22C-692.492 1710.65 -572.045 1644.77 -466.866 1557.79C-389.254 1493.6 -329.879 1412.73 -286.62 1319.2C-267.535 1277.6 -251.207 1233.9 -236.151 1188.93C-206.039 1098.35 -179.957 1004.81 -141.575 920.359C-97.6796 824.291 -34.4876 740.047 60.3007 694.019C88.0799 680.506 116.283 669.738 145.971 663.404C271.083 637.011 400.86 686.84 535.09 737.091C594.254 759.26 654.265 780.374 710.671 798.11C773.864 817.957 835.571 833.581 892.826 843.293C1004.37 862.296 1101.91 866.308 1178.68 833.792C1231.05 811.623 1264.35 773.618 1305.06 727.801C1387.97 634.055 1495.91 488.581 1612.11 336.984C1644.13 294.967 1677 252.74 1711.14 210.934C1864.25 22.599 2040.46 -152.223 2216.05 -268.983" stroke="#D4E8F7" stroke-miterlimit="10"/>
<path d="M-2210.59 2017.01C-2158 1862.67 -1998.74 1766.39 -1838.22 1743.37C-1768.88 1733.45 -1698.26 1734.72 -1628.07 1743.16C-1536.68 1754.14 -1446.34 1776.1 -1357.07 1792.15C-1174.91 1825.3 -997.423 1831.63 -828.415 1767.44C-697.154 1717.83 -574.798 1656.6 -466.439 1573.62C-386.07 1511.97 -325.21 1432.58 -280.467 1339.47C-260.746 1298.08 -243.781 1254.59 -228.089 1209.62C-196.917 1119.25 -169.774 1025.5 -130.12 941.682C-84.7407 846.247 -20.0641 764.114 77.693 721.465C106.108 709.007 134.524 699.506 164.423 694.65C289.959 673.536 417.828 728.221 552.059 778.683C611.434 801.064 671.87 821.122 728.912 837.168C792.741 855.115 854.872 867.361 912.127 873.273C1023.24 884.674 1119.09 878.551 1187.59 837.591C1235.93 808.876 1261.38 765.592 1295.73 715.13C1366.14 611.462 1466.44 457.542 1580.31 300.455C1611.69 256.96 1644.56 213.255 1678.92 170.605C1833.29 -22.5867 2018.63 -195.72 2203.54 -302.978" stroke="#D4E8F7" stroke-miterlimit="10"/>
<path d="M-2220.13 2001.17C-2164.57 1847.68 -2005.95 1751.4 -1845.22 1727.96C-1775.88 1717.83 -1705.05 1718.88 -1634.65 1727.75C-1543.25 1739.15 -1453.13 1762.38 -1363.85 1780.75C-1181.91 1817.91 -1004.85 1832.05 -834.354 1771.67C-701.82 1725.01 -577.344 1668.42 -466.015 1589.67C-382.89 1530.76 -320.546 1452.64 -274.318 1360.16C-253.961 1319.2 -236.572 1275.7 -220.244 1230.73C-187.8 1140.57 -159.809 1046.62 -118.882 963.641C-72.0181 869.051 -5.64495 788.818 94.8688 749.758C123.708 738.567 152.547 730.333 182.447 726.532C308.407 710.697 434.58 770.449 568.598 820.911C628.185 843.292 688.833 862.505 746.512 876.652C810.976 892.487 873.532 901.566 930.575 903.466C1041.27 907.056 1135 890.376 1195.64 841.603C1239.75 806.131 1257.35 757.781 1285.77 702.463C1343.87 588.87 1436.11 426.294 1548.08 263.929C1579.04 218.956 1611.69 173.984 1646.26 130.067C1801.91 -67.9807 1996.57 -239.425 2190.81 -337.393" stroke="#D4E8F7" stroke-miterlimit="10"/>
<path d="M-2229.67 1985.34C-2171.35 1832.69 -2013.16 1736.62 -1852.21 1712.55C-1782.66 1702.2 -1711.83 1703.26 -1641.43 1712.34C-1549.82 1724.37 -1459.91 1748.65 -1370.85 1769.13C-1189.33 1810.52 -1012.69 1832.05 -840.5 1775.68C-706.481 1731.97 -579.885 1680.24 -465.8 1605.29C-379.918 1548.92 -316.089 1472.27 -268.377 1380.22C-247.384 1339.47 -229.359 1296.18 -212.607 1251.21C-179.102 1161.05 -150.051 1067.1 -107.852 984.754C-59.5036 890.798 8.35403 812.466 111.837 776.994C141.312 766.86 170.363 759.892 200.475 757.359C327.072 747.013 451.123 811.41 585.142 862.294C644.729 884.886 706.013 903.044 764.116 915.29C829.216 929.014 892.196 935.137 949.239 933.026C1059.3 929.014 1151.11 901.144 1203.7 844.981C1243.78 802.331 1253.54 749.335 1275.59 689.372C1321.18 565.856 1405.79 394.834 1515.64 226.979C1545.96 180.318 1578.4 134.29 1613.39 89.3173C1770.53 -113.587 1974.1 -283.342 2177.88 -371.809" stroke="#D4E8F7" stroke-miterlimit="10"/>
<path d="M-2239.21 1969.72C-2177.93 1818.12 -2020.37 1721.84 -1859.21 1697.35C-1789.66 1686.79 -1718.41 1687.63 -1648.01 1697.35C-1556.4 1709.8 -1466.49 1735.56 -1377.64 1757.94C-1196.33 1803.55 -1020.11 1832.69 -846.442 1780.11C-711.151 1739.57 -582.434 1692.28 -465.38 1621.34C-376.953 1567.71 -311.428 1492.33 -262.232 1400.91C-240.602 1360.58 -221.942 1317.3 -204.553 1272.33C-169.988 1182.38 -139.877 1088.42 -96.1934 1006.5C-46.3606 913.39 22.9811 836.958 129.644 804.865C159.544 795.786 189.02 790.086 219.344 788.819C346.364 783.752 468.719 853.216 602.526 904.1C662.325 926.903 724.033 944.005 782.772 954.562C848.509 966.175 912.125 969.131 968.956 963.219C1078.59 951.606 1167.86 912.546 1213.03 849.204C1248.44 799.376 1250.78 741.735 1266.89 676.916C1299.97 543.476 1376.95 364.009 1484.67 190.875C1514.36 142.736 1546.8 95.2298 1581.79 49.4128C1740.2 -158.136 1952.89 -326.624 2166 -405.379" stroke="#D4E8F7" stroke-miterlimit="10"/>
<path d="M-2248.76 1953.88C-2184.51 1803.13 -2027.59 1706.85 -1866 1681.72C-1796.23 1670.95 -1724.98 1671.59 -1654.37 1681.72C-1562.76 1694.6 -1473.06 1721.63 -1384.21 1746.12C-1203.33 1795.74 -1027.32 1832.69 -852.38 1784.12C-715.817 1746.54 -584.979 1704.1 -465.168 1636.96C-373.985 1585.86 -306.976 1511.97 -256.295 1421.18C-234.029 1381.06 -214.732 1337.99 -196.92 1293.02C-161.295 1203.28 -130.122 1109.11 -85.167 1028.04C-34.0618 935.559 36.9762 861.027 146.608 832.735C177.144 824.923 206.832 820.278 237.156 820.278C364.6 820.489 485.047 895.021 618.854 945.905C678.865 968.708 740.997 984.965 800.16 993.622C866.533 1003.33 930.573 1002.91 987.404 992.989C1096.61 973.775 1183.13 923.313 1221.09 852.793C1251.84 795.574 1246.75 733.5 1256.71 664.035C1277.28 520.672 1346.62 332.548 1452.23 154.136C1481.49 104.519 1513.72 55.7461 1548.92 8.87338C1708.6 -203.532 1930.62 -370.331 2153.07 -439.584" stroke="#D4E8F7" stroke-miterlimit="10"/>
<path d="M-2258.51 1938.04C-2191.29 1788.14 -2035.22 1691.86 -1873.21 1666.31C-1803.44 1655.33 -1731.77 1655.96 -1661.15 1666.31C-1569.33 1679.82 -1479.85 1707.9 -1391.21 1734.51C-1210.75 1788.35 -1035.17 1832.9 -858.529 1788.14C-720.693 1753.51 -587.735 1715.72 -464.956 1652.8C-371.016 1604.45 -302.522 1531.81 -250.357 1441.45C-227.455 1401.54 -207.734 1358.68 -189.073 1313.71C-152.388 1223.97 -120.156 1129.81 -73.9277 1049.36C-21.3382 957.729 51.1846 884.887 163.785 860.183C194.745 853.427 224.857 850.26 255.393 851.527C383.474 857.016 502.012 936.404 635.818 987.5C695.83 1010.51 758.598 1025.72 818.185 1032.47C885.194 1040.07 949.659 1036.69 1006.49 1022.76C1115.06 995.945 1198.61 934.293 1229.78 856.383C1255.44 791.986 1243.35 725.266 1247.38 650.945C1255.44 497.659 1316.94 301.089 1420.42 117.188C1449.05 65.8814 1481.28 15.8416 1516.69 -31.8756C1677.85 -249.137 1908.78 -414.247 2140.56 -474.21" stroke="#D4E8F7" stroke-miterlimit="10"/>
<path d="M-2268.05 1922.21C-2197.86 1773.36 -2042.42 1676.87 -1880.2 1650.9C-1810.23 1639.71 -1738.55 1640.13 -1667.72 1651.11C-1575.91 1665.04 -1486.63 1694.6 -1398.2 1723.11C-1217.96 1781.17 -1042.8 1833.32 -864.675 1792.36C-725.567 1760.69 -590.276 1727.75 -464.74 1668.63C-368.043 1623.03 -298.065 1551.66 -244.416 1461.93C-220.878 1422.45 -200.52 1379.58 -181.436 1334.82C-143.69 1245.3 -110.397 1150.92 -62.8971 1071.11C-8.8232 980.11 65.1838 909.168 180.753 888.054C212.35 882.353 242.673 880.453 273.209 882.987C401.714 893.755 518.344 978.21 652.15 1029.31C712.374 1052.32 775.354 1066.68 835.789 1071.53C903.223 1077.02 968.323 1070.48 1024.94 1052.53C1133.09 1018.33 1213.25 945.273 1237.63 859.973C1258.2 788.397 1239.33 717.032 1237 638.067C1232.54 475.068 1286.41 269.841 1387.77 80.4504C1415.97 27.6658 1447.78 -23.6407 1483.62 -72.6248C1646.05 -294.742 1886.31 -458.374 2127.41 -508.625" stroke="#D4E8F7" stroke-miterlimit="10"/>
<path d="M-2277.6 1906.37C-2204.44 1758.37 -2049.64 1662.09 -1887.21 1635.48C-1817.23 1624.08 -1745.13 1624.5 -1674.3 1635.69C-1582.48 1650.26 -1493.21 1680.88 -1404.99 1711.49C-1225.17 1773.57 -1050.44 1833.32 -870.617 1796.58C-730.237 1768.08 -592.826 1739.79 -464.321 1684.47C-364.655 1641.61 -293.193 1571.51 -238.271 1482.2C-214.097 1442.93 -193.103 1400.49 -173.594 1355.51C-134.788 1266.2 -100.223 1171.61 -51.663 1092.65C3.89523 1002.28 79.5988 933.027 197.925 915.925C229.945 911.28 260.905 910.646 291.441 914.447C420.582 930.493 535.304 1020.02 668.898 1071.32C729.333 1094.55 792.738 1107.85 853.597 1111.02C921.667 1114.39 987.404 1104.89 1043.81 1082.94C1151.53 1041.13 1228.09 957.097 1246.11 864.196C1261.38 785.441 1235.72 709.432 1227.45 625.821C1210.27 452.899 1256.71 239.016 1355.95 44.3463C1383.52 -9.91618 1415.33 -62.7007 1451.38 -112.529C1615.08 -339.503 1864.46 -501.446 2114.9 -542.196" stroke="#D4E8F7" stroke-miterlimit="10"/>
<path d="M-2287.14 1890.75C-2211.01 1743.59 -2056.85 1647.31 -1893.99 1620.28C-1823.8 1608.67 -1751.7 1608.88 -1680.66 1620.49C-1588.63 1635.48 -1499.57 1667.58 -1411.56 1700.09C-1232.17 1766.39 -1057.65 1833.74 -876.339 1800.81C-734.475 1775.26 -595.155 1751.82 -463.681 1700.3C-361.259 1660.19 -288.312 1591.14 -231.906 1502.68C-207.095 1463.83 -185.466 1421.39 -165.321 1376.42C-125.455 1287.11 -89.8294 1192.52 -39.9966 1114.18C17.046 1024.66 94.2338 956.886 215.529 943.584C247.973 939.994 279.357 940.628 309.893 945.695C439.458 967.231 552.271 1061.4 685.866 1112.92C746.513 1136.14 810.341 1148.6 871.625 1149.87C940.331 1151.34 1006.49 1138.46 1062.9 1112.49C1170.2 1063.09 1243.14 968.287 1254.81 867.574C1264.56 782.063 1232.12 700.986 1217.91 612.519C1187.8 429.673 1227.03 207.345 1324.15 7.1858C1351.08 -48.5547 1382.89 -102.606 1419.15 -153.49C1583.92 -385.32 1842.41 -545.785 2102.39 -577.034" stroke="#D4E8F7" stroke-miterlimit="10"/>
<path d="M-2296.68 1874.91C-2217.58 1728.6 -2064.06 1632.32 -1900.99 1604.66C-1830.8 1592.83 -1758.49 1592.83 -1687.24 1604.87C-1595.2 1620.49 -1506.35 1653.64 -1418.35 1688.27C-1239.16 1758.79 -1065.28 1833.74 -882.277 1804.6C-739.14 1782.01 -597.488 1763.64 -463.258 1715.72C-358.079 1678.34 -283.648 1610.57 -225.757 1522.74C-200.522 1484.1 -178.256 1441.87 -157.475 1396.9C-116.337 1307.8 -79.8633 1213.21 -28.7582 1135.3C29.7688 1046.41 108.441 980.532 232.705 970.82C265.785 968.286 297.382 970.398 328.129 976.521C458.119 1003.34 569.235 1102.57 702.617 1154.09C763.265 1177.52 827.729 1188.93 889.437 1188.29C958.779 1187.66 1025.36 1171.82 1081.77 1141.84C1188.65 1084.83 1257.99 979.265 1263.08 870.74C1267.32 778.262 1228.3 692.329 1208.16 599.217C1165.74 406.658 1196.92 175.673 1292.13 -29.9754C1318.64 -87.405 1350.02 -142.723 1386.7 -194.452C1552.74 -430.716 1820.36 -589.492 2089.66 -611.239" stroke="#D4E8F7" stroke-miterlimit="10"/>
<path d="M-2306.22 1859.08C-2224.16 1713.81 -2071.27 1617.32 -1907.98 1589.24C-1837.58 1577.21 -1765.06 1577.21 -1693.81 1589.67C-1601.78 1605.71 -1512.93 1640.13 -1425.14 1676.87C-1246.37 1751.4 -1072.7 1834.16 -888.215 1808.83C-743.806 1789.19 -600.033 1775.68 -462.834 1731.76C-354.898 1697.13 -278.983 1630.63 -219.608 1543.21C-193.737 1505 -170.835 1462.77 -149.418 1417.8C-107.219 1328.91 -69.6852 1234.11 -17.0957 1157.04C42.9157 1069 123.072 1004.39 250.305 998.901C283.809 997.423 315.83 1000.8 346.578 1008.4C477.203 1040.49 586.199 1144.8 719.581 1196.31C780.441 1219.96 845.329 1230.31 907.673 1227.77C977.651 1225.03 1044.87 1206.24 1101.07 1172.25C1207.52 1107.85 1273.26 991.511 1271.98 874.963C1270.92 775.728 1225.33 684.727 1198.82 586.759C1143.9 384.277 1167.44 144.635 1260.32 -66.0805C1286.19 -124.988 1317.57 -181.573 1354.47 -234.569C1522.21 -475.9 1798.94 -633.198 2077.58 -645.444" stroke="#D4E8F7" stroke-miterlimit="10"/>
<path d="M-2315.76 1843.24C-2230.94 1698.82 -2078.47 1602.55 -1914.98 1573.83C-1844.58 1561.58 -1771.84 1561.37 -1700.38 1574.25C-1608.35 1590.72 -1519.5 1626.61 -1431.92 1665.25C-1253.58 1744.01 -1080.12 1834.37 -894.361 1813.05C-748.68 1796.37 -602.786 1787.71 -462.619 1747.6C-351.926 1715.72 -274.526 1650.47 -213.879 1563.7C-187.372 1525.69 -163.834 1483.67 -141.992 1438.7C-98.7333 1349.81 -60.1394 1255.01 -6.27761 1178.58C55.2182 1091.17 137.071 1028.25 267.061 1026.56C301.201 1026.14 333.434 1030.78 364.394 1039.65C495.443 1077.02 602.743 1186.18 735.913 1237.91C796.984 1261.56 862.297 1271.06 925.065 1266.84C995.679 1261.98 1063.54 1240.23 1119.31 1202.02C1225.55 1130.23 1287.47 1003.33 1279.83 878.552C1273.26 772.772 1221.09 676.493 1188.65 573.88C1121.22 361.475 1137.12 113.387 1227.88 -102.818C1253.11 -163.204 1284.5 -221.056 1321.39 -275.107C1490.4 -521.294 1776.46 -676.903 2064.43 -679.859" stroke="#D4E8F7" stroke-miterlimit="10"/>
<path d="M-2325.52 1827.62C-2237.73 1684.05 -2085.9 1587.77 -1921.98 1558.63C-1851.37 1546.17 -1778.42 1545.75 -1706.96 1559.05C-1614.71 1576.15 -1526.29 1613.1 -1438.92 1653.85C-1260.79 1736.83 -1087.97 1834.59 -900.514 1817.27C-753.561 1803.76 -605.335 1800.17 -462.622 1763.43C-349.173 1734.72 -270.289 1670.32 -208.157 1583.97C-181.014 1546.17 -157.052 1504.37 -134.574 1459.39C-90.2548 1370.72 -50.6006 1275.7 4.53349 1199.91C67.5136 1113.13 150.851 1051.9 283.809 1054.01C318.374 1054.64 351.03 1060.55 381.99 1070.69C513.464 1113.34 618.855 1227.56 752.025 1279.5C813.097 1303.36 878.834 1311.81 942.238 1305.69C1013.49 1298.93 1081.77 1273.8 1137.54 1231.79C1243.36 1152.4 1301.67 1015.16 1287.46 882.143C1275.38 769.606 1216.64 668.471 1178.04 561.001C1098.1 338.884 1106.37 82.1399 1195.01 -139.555C1219.82 -201.419 1250.78 -260.749 1288.1 -315.645C1458.38 -566.688 1753.56 -720.608 2050.86 -714.062" stroke="#D4E8F7" stroke-miterlimit="10"/>
<path d="M-2335.06 1811.78C-2205.07 1607.61 -1951.67 1498.24 -1713.53 1543.64C-1433.2 1597.06 -1188.06 1841.34 -906.452 1821.28C-758.226 1810.73 -607.88 1811.99 -462.198 1779.06C-295.312 1741.47 -202.22 1627.88 -126.516 1480.09C-29.1833 1290.27 46.7321 1070.27 301.197 1081.67C485.261 1089.9 604.647 1256.91 768.989 1321.1C899.191 1371.98 1051.45 1348.55 1156.84 1261.56C1262.23 1174.57 1317.15 1026.98 1296.37 885.731C1278.98 766.649 1213.67 660.236 1168.92 547.91C1050.6 251.05 1084.53 -100.495 1256.29 -356.395C1428.05 -612.295 1732.14 -764.736 2038.98 -748.479" stroke="#D4E8F7" stroke-miterlimit="10"/>
<path d="M-2320 1840.92C-2188.11 1652.8 -1936.19 1551.03 -1699.74 1592.62C-1581.42 1613.31 -1469.24 1665.89 -1358.55 1716.77C-1245.1 1769.13 -1133.35 1820.02 -1016.72 1834.8C-979.184 1839.65 -941.014 1840.71 -902.42 1836.7C-757.163 1821.71 -610.633 1818.12 -465.588 1784.12C-301.246 1745.7 -206.246 1636.75 -127.998 1497.19C-109.973 1465.09 -92.5844 1432.37 -74.7719 1400.06C-22.6065 1305.05 32.9516 1215.11 120.954 1165.07C170.151 1137.2 229.314 1121.36 302.897 1123.9C484.628 1130.02 603.378 1282.67 762.631 1337.57C783.836 1344.75 805.466 1350.02 827.307 1353.4C936.091 1369.87 1051.24 1338.62 1135.21 1265.15C1236.15 1176.89 1288.31 1030.78 1269.44 891.01C1253.54 772.562 1192.25 665.515 1151.11 553.189C1080.08 359.364 1072.02 143.37 1123.12 -52.9888C1150.69 -157.925 1195.01 -256.948 1255.66 -344.36C1366.14 -503.98 1528.78 -622.006 1711.36 -684.292C1816.33 -720.186 1927.87 -737.077 2039.62 -732.22" stroke="#D4E8F7" stroke-miterlimit="10"/>
<path d="M-2304.96 1870.27C-2171.15 1697.98 -1920.71 1604.02 -1685.97 1642.03C-1568.07 1661.03 -1456.32 1708.75 -1346.68 1753.93C-1234.29 1800.38 -1124.87 1844.51 -1010.15 1854.64C-973.255 1858.02 -935.934 1857.6 -898.188 1852.53C-756.112 1833.32 -612.975 1824.87 -468.778 1789.4C-306.769 1750.13 -210.284 1645.41 -129.279 1514.29C-110.618 1484.1 -92.3817 1453.48 -74.145 1423.29C-20.2832 1334.61 35.9112 1251.42 123.914 1205.39C173.322 1179.64 232.061 1164.65 304.372 1166.33C483.77 1170.35 602.096 1308.85 756.26 1354.46C776.829 1360.37 797.61 1364.59 818.816 1366.92C923.571 1378.11 1033.63 1343.69 1113.78 1269.37C1210.06 1179.85 1259.89 1035.22 1242.5 896.711C1227.87 778.896 1171.04 671.426 1133.5 558.89C1068.62 365.065 1065.01 149.915 1118.87 -44.1211C1148.14 -148.212 1193.94 -245.969 1255.44 -331.902C1367.61 -488.778 1530.47 -604.271 1713.26 -666.345C1818.02 -702.028 1929.13 -719.341 2040.67 -715.541" stroke="#D4E8F7" stroke-miterlimit="10"/>
<path d="M-2290.11 1899.62C-2154.39 1743.37 -1905.44 1656.81 -1672.18 1691.22C-1554.91 1708.33 -1443.58 1751.4 -1335.01 1791.09C-1223.68 1831.63 -1116.38 1869.21 -1004 1874.49C-967.734 1876.18 -931.473 1874.49 -894.364 1868.37C-755.256 1844.72 -615.936 1831.21 -472.587 1794.68C-313.122 1754.14 -214.729 1654.27 -131.392 1531.39C-112.095 1503.1 -93.2221 1474.6 -74.3493 1446.51C-18.791 1364.38 38.2516 1287.74 126.042 1245.72C175.663 1221.86 234.19 1207.93 305.228 1208.77C482.293 1210.46 599.984 1335.24 749.058 1371.14C768.779 1375.99 789.136 1378.74 809.281 1380.01C910.007 1386.13 1014.76 1348.55 1091.1 1272.96C1182.92 1182.17 1230.21 1039.02 1214.52 901.777C1201.37 784.384 1148.57 676.704 1114.64 563.956C1055.9 369.92 1056.11 156.037 1113.16 -35.6765C1143.9 -139.134 1191.4 -235.413 1253.75 -319.869C1367.62 -474.211 1530.69 -586.958 1713.91 -649.033C1818.45 -684.504 1929.35 -702.029 2040.47 -699.284" stroke="#D4E8F7" stroke-miterlimit="10"/>
<path d="M-2275.05 1928.97C-2137.43 1788.77 -1889.96 1709.8 -1658.4 1740.42C-1541.55 1755.62 -1430.86 1794.26 -1323.35 1828.04C-1213.29 1862.88 -1107.9 1893.49 -997.635 1893.92C-962.222 1894.13 -926.597 1891.17 -890.336 1883.78C-754.409 1856.12 -618.482 1837.33 -475.981 1799.75C-319.061 1758.37 -218.759 1662.93 -132.877 1548.28C-112.944 1521.89 -93.4352 1495.5 -73.9262 1469.74C-16.6715 1393.94 41.2196 1324.05 128.798 1285.84C178.631 1264.09 236.946 1251.42 306.711 1251C481.444 1250.16 598.71 1361 742.483 1387.61C761.568 1391.2 781.077 1392.89 800.586 1393.1C897.283 1393.94 996.949 1353.19 1069.47 1276.76C1156.63 1184.7 1201.16 1043.03 1187.37 907.268C1175.5 790.508 1127.15 682.194 1096.83 569.235C1044.24 375.199 1048.69 162.161 1108.49 -27.0191C1140.93 -129.843 1189.71 -224.645 1253.11 -307.833C1368.68 -459.43 1532.17 -569.644 1715.39 -631.508C1819.72 -666.768 1930.2 -684.715 2041.1 -683.026" stroke="#D4E8F7" stroke-miterlimit="10"/>
<path d="M-2260 1958.31C-2120.26 1833.95 -1874.7 1762.8 -1644.62 1789.61C-1528.41 1802.92 -1417.93 1836.91 -1311.48 1864.99C-1202.48 1893.92 -1099.43 1917.99 -991.067 1913.55C-956.29 1912.29 -921.513 1907.85 -886.312 1899.41C-753.354 1867.52 -621.244 1843.67 -479.591 1804.82C-325.216 1762.38 -223.006 1671.38 -134.579 1565.17C-114.01 1540.47 -93.6525 1516.4 -73.7194 1492.75C-14.9804 1423.29 43.7585 1360.37 131.549 1325.95C181.594 1306.32 239.485 1294.07 308.19 1293.23C480.591 1291.12 597.22 1386.97 735.904 1404.29C754.353 1406.61 773.014 1407.03 791.674 1406.19C884.342 1401.75 978.918 1358.05 1047.62 1280.56C1130.33 1187.03 1172.31 1047.04 1160.22 912.546C1149.83 796.42 1105.51 687.683 1079.01 574.513C1032.78 380.477 1041.26 168.495 1103.82 -18.5738C1137.96 -120.765 1188.22 -214.088 1252.47 -295.798C1369.52 -444.651 1533.44 -552.12 1717.08 -613.984C1821.41 -649.032 1931.25 -667.402 2041.73 -666.768" stroke="#D4E8F7" stroke-miterlimit="10"/>
<path d="M-2245.15 1987.45C-2103.5 1879.14 -1859.43 1815.37 -1630.83 1838.81C-1515.05 1850.21 -1405.2 1879.56 -1299.81 1902.15C-1191.88 1925.38 -1090.94 1942.48 -984.913 1933.4C-950.772 1930.44 -916.844 1924.95 -882.491 1915.24C-752.713 1878.93 -623.996 1850.21 -483.192 1810.09C-331.361 1766.81 -227.243 1680.24 -136.271 1582.28C-115.066 1559.47 -94.0726 1537.52 -73.5033 1515.98C-13.0678 1453.06 46.5195 1396.69 134.098 1366.28C184.567 1348.76 242.034 1337.36 309.467 1335.67C479.534 1331.44 595.74 1413.15 729.123 1420.97C746.935 1422.02 764.748 1421.39 782.56 1419.49C871.199 1409.78 960.686 1363.12 1025.57 1284.57C1103.61 1189.77 1143.05 1051.48 1132.66 918.036C1123.54 802.543 1083.47 693.174 1060.56 580.003C1020.49 385.967 1033.21 175.04 1098.52 -9.70565C1134.36 -111.052 1186.1 -203.108 1251.41 -283.341C1370.16 -429.66 1534.29 -534.384 1718.14 -596.036C1822.26 -631.085 1931.9 -649.666 2041.95 -649.877" stroke="#D4E8F7" stroke-miterlimit="10"/>
<path d="M-2230.1 2016.8C-2086.54 1924.32 -1843.95 1868.37 -1617.05 1888C-1501.91 1897.51 -1392.27 1922.21 -1288.16 1939.1C-1181.28 1956.41 -1082.68 1966.76 -978.557 1953.04C-945.264 1948.6 -911.972 1941.63 -878.467 1931.08C-751.659 1890.54 -626.759 1856.76 -486.803 1815.37C-337.304 1771.25 -231.489 1689.11 -137.973 1599.59C-116.132 1578.69 -94.502 1558.63 -73.2966 1539.42C-11.3767 1482.83 49.2708 1433.42 136.637 1406.82C187.318 1391.41 244.573 1380.85 310.522 1378.32C478.257 1371.98 594.038 1439.55 722.119 1437.86C739.296 1437.65 756.472 1435.75 773.437 1432.79C857.834 1417.8 942.444 1367.97 1003.52 1288.58C1077.1 1192.52 1114 1055.7 1105.3 923.736C1097.67 808.877 1062.04 699.085 1042.53 585.704C1009.03 391.457 1025.78 181.586 1093.64 -0.626674C1131.17 -101.34 1184.19 -191.918 1250.56 -270.884C1371.01 -414.458 1535.56 -516.649 1719.62 -578.301C1823.53 -613.139 1932.74 -631.93 2042.58 -633.408" stroke="#D4E8F7" stroke-miterlimit="10"/>
<path d="M-2215.04 2046.15C-2069.57 1969.72 -1828.46 1921.79 -1603.26 1937.2C-1488.54 1945.01 -1379.54 1965.07 -1276.27 1976.05C-1170.67 1987.45 -1073.97 1991.04 -971.972 1972.67C-939.316 1966.76 -906.872 1958.52 -874.215 1946.7C-750.376 1901.94 -629.081 1863.3 -489.973 1820.65C-343.019 1775.68 -235.083 1697.98 -139.447 1616.69C-116.969 1597.69 -94.7036 1579.74 -72.862 1562.64C-9.45774 1512.6 52.2503 1469.74 139.405 1446.94C190.298 1433.64 247.128 1423.71 312.017 1420.54C477.419 1412.1 592.777 1465.52 715.556 1454.54C731.884 1453.06 748.425 1450.1 764.541 1446.09C844.909 1425.82 924.218 1373.04 981.684 1292.38C1050.6 1195.05 1085.17 1059.71 1077.96 929.015C1071.6 814.578 1040.21 704.575 1024.31 590.983C996.952 396.735 1017.95 187.92 1088.77 7.81875C1128 -92.2608 1182.5 -181.361 1249.72 -258.849C1371.86 -399.889 1536.63 -499.335 1720.91 -560.776C1824.6 -595.403 1933.38 -614.617 2043.02 -617.15" stroke="#D4E8F7" stroke-miterlimit="10"/>
<path d="M-2200.19 2075.5C-2052.81 2014.9 -1813.4 1974.78 -1589.47 1986.39C-1475.39 1992.31 -1366.61 2007.72 -1264.61 2013C-1160.06 2018.7 -1065.7 2015.53 -965.823 1992.31C-933.803 1984.92 -902.207 1975.2 -870.398 1962.33C-749.739 1913.13 -632.049 1869.64 -493.578 1825.72C-349.169 1779.9 -239.324 1706.43 -141.143 1633.58C-118.029 1616.48 -94.9153 1600.65 -72.6496 1585.65C-7.76091 1541.95 55.007 1506.06 142.161 1487.05C193.267 1475.86 249.885 1466.78 313.501 1462.77C476.571 1452.22 591.505 1491.28 709.195 1471.01C724.887 1468.26 740.579 1464.04 756.059 1458.97C832.398 1433.42 906.618 1377.47 960.267 1295.97C1024.73 1197.37 1056.54 1063.51 1051.24 934.293C1046.36 820.49 1019.22 709.853 1006.92 596.05C985.714 401.802 1011.16 194.042 1084.53 16.264C1125.46 -82.9709 1181.44 -170.804 1249.51 -246.814C1373.14 -385.11 1538.33 -482.022 1723.03 -543.252C1826.51 -577.668 1935.08 -597.304 2044.29 -600.682" stroke="#D4E8F7" stroke-miterlimit="10"/>
<path d="M-2185.14 2104.84C-2035.86 2060.29 -1797.93 2027.57 -1575.7 2035.59C-1462.04 2039.6 -1353.89 2050.37 -1252.95 2050.16C-1149.47 2049.95 -1057.23 2040.23 -959.47 2011.94C-928.298 2002.86 -897.338 1991.88 -866.378 1977.95C-748.688 1924.53 -634.603 1876.18 -497.192 1830.79C-355.115 1784.12 -243.363 1715.08 -142.849 1650.47C-119.099 1635.27 -95.3486 1621.55 -72.4467 1608.67C-6.0737 1571.3 57.7547 1542.37 144.697 1527.17C196.226 1518.09 252.208 1509.86 314.765 1505C475.502 1492.33 590.011 1517.25 702.4 1487.47C717.456 1483.46 732.3 1478.18 746.931 1472.06C819.242 1441.24 888.372 1382.33 938.204 1299.77C998.004 1199.9 1027.48 1067.52 1023.66 939.571C1020.27 826.401 997.155 715.342 988.461 601.328C973.617 407.081 1003.09 200.165 1079.22 24.9204C1122.06 -73.6811 1179.1 -160.037 1248.23 -234.779C1373.55 -370.33 1538.95 -464.709 1723.87 -525.939C1827.14 -560.143 1935.28 -579.99 2044.07 -584.635" stroke="#D4E8F7" stroke-miterlimit="10"/>
<path d="M-2170.08 2133.98C-2018.88 2105.48 -1782.44 2080.35 -1561.91 2084.78C-1448.88 2087.11 -1341.16 2093.02 -1241.07 2087.11C-1138.86 2081.19 -1048.73 2064.51 -952.886 2031.58C-922.35 2021.02 -892.238 2008.77 -862.339 1993.57C-747.829 1935.72 -637.137 1882.51 -500.574 1836.06C-361.042 1788.56 -247.169 1723.95 -144.323 1667.57C-119.936 1654.27 -95.5503 1642.66 -72.0122 1631.89C-4.15485 1601.07 60.7339 1578.9 147.464 1567.28C199.205 1560.32 254.976 1552.93 316.047 1547.23C474.452 1532.24 588.537 1543 695.625 1504.15C710.044 1498.88 724.252 1492.33 737.824 1485.15C806.105 1449.05 870.146 1387.18 915.949 1303.57C971.295 1202.44 998.226 1071.53 996.106 944.849C994.197 832.312 975.324 720.831 970.235 606.605C961.541 412.358 995.47 206.498 1074.14 33.365C1118.67 -64.392 1177.2 -149.481 1247.18 -222.746C1374.2 -355.763 1540.03 -447.397 1725.15 -508.416C1828.21 -542.409 1936.14 -562.678 2044.5 -568.379" stroke="#D4E8F7" stroke-miterlimit="10"/>
<path d="M-2155.24 2163.33C-2001.92 2150.66 -1767.18 2133.35 -1548.13 2133.98C-1435.53 2134.4 -1328.23 2135.88 -1229.41 2124.06C-1128.26 2112.23 -1040.26 2089.01 -946.741 2051.22C-916.841 2039.18 -887.577 2025.46 -858.526 2009.2C-746.985 1947.12 -640.11 1889.06 -504.395 1841.13C-367.196 1792.78 -251.414 1732.82 -146.235 1684.47C-121.213 1673.07 -96.1906 1663.57 -72.0164 1654.91C-2.67467 1630.42 63.2743 1615.21 149.792 1607.4C201.746 1602.76 257.304 1595.79 317.103 1589.24C473.175 1572.14 586.837 1568.55 688.623 1520.41C702.406 1513.87 715.766 1506.27 728.701 1498.03C792.953 1456.65 851.692 1391.62 893.891 1306.95C944.572 1204.55 969.171 1075.12 968.535 949.918C968.11 837.804 953.267 725.901 951.782 611.675C949.238 417.428 987.619 212.624 1068.84 41.8127C1115.06 -55.3109 1175.08 -138.922 1246.11 -210.709C1374.83 -340.981 1540.87 -429.87 1726.2 -490.889C1829.05 -524.882 1936.56 -545.363 2044.71 -551.908" stroke="#D4E8F7" stroke-miterlimit="10"/>
<path d="M-2140.19 2192.68C-1984.96 2196.05 -1751.7 2186.13 -1534.35 2183.18C-1422.38 2181.7 -1315.51 2178.53 -1217.75 2161.22C-1117.66 2143.48 -1031.78 2113.5 -940.384 2071.06C-911.332 2057.55 -882.705 2042.35 -854.502 2025.03C-746.142 1958.52 -642.66 1895.82 -507.793 1846.41C-373.138 1797.21 -255.024 1741.69 -147.937 1701.78C-122.066 1692.28 -96.6196 1684.89 -71.8092 1678.56C-0.983071 1660.4 66.2381 1652.37 152.544 1648.15C204.922 1645.62 259.844 1639.49 318.583 1632.1C472.534 1612.89 585.559 1594.94 682.044 1537.51C695.191 1529.7 707.703 1520.83 719.79 1511.54C780.013 1464.88 833.663 1396.9 872.045 1311.17C918.273 1207.51 940.326 1079.56 941.387 955.618C942.235 844.137 931.844 731.811 933.965 617.374C937.57 422.916 980.193 219.379 1064.17 50.8905C1112.09 -45.5997 1173.37 -127.732 1245.47 -198.041C1375.67 -325.569 1542.14 -411.924 1727.9 -472.732C1830.74 -506.514 1937.62 -527.417 2045.55 -535.018" stroke="#D4E8F7" stroke-miterlimit="10"/>
<path d="M-2125.12 2222.03C-1967.99 2241.24 -1736.22 2239.13 -1520.56 2232.37C-1409.02 2228.99 -1302.57 2221.18 -1205.87 2198.17C-1106.84 2174.73 -1023.29 2137.99 -933.803 2090.7C-905.388 2075.71 -877.609 2059.03 -850.254 2040.66C-744.863 1969.72 -645.197 1902.15 -511.179 1851.69C-378.857 1801.65 -258.834 1750.76 -149.414 1718.88C-122.907 1711.28 -96.8247 1706 -71.3782 1701.78C0.932368 1689.75 69.2139 1686.58 155.308 1688.27C207.898 1689.32 262.607 1682.57 320.074 1674.33C471.693 1652.8 584.294 1620.7 675.477 1553.98C687.989 1544.91 699.652 1534.98 711.103 1524.64C767.297 1472.7 815.857 1401.54 850.422 1314.98C891.985 1210.04 911.706 1083.57 914.25 960.897C916.583 850.049 910.222 737.301 915.947 622.442C925.702 427.984 972.778 225.502 1059.51 59.1255C1109.34 -36.5202 1171.9 -117.386 1244.84 -186.428C1376.74 -311.422 1543.63 -395.033 1729.39 -455.841C1832.02 -489.412 1938.69 -510.525 2046.2 -519.182" stroke="#D4E8F7" stroke-miterlimit="10"/>
<path d="M-2110.29 2251.16C-1951.24 2286.42 -1721.17 2291.28 -1506.78 2281.35C-1395.87 2275.87 -1289.85 2263.83 -1194.21 2234.9C-1096.45 2205.56 -1014.81 2162.27 -927.658 2109.91C-899.879 2093.23 -872.948 2075.49 -846.441 2055.86C-744.231 1980.69 -647.958 1908.27 -514.788 1856.33C-385.011 1805.66 -262.867 1759 -151.115 1735.35C-123.972 1729.65 -97.2531 1726.27 -71.1704 1724.37C2.4125 1718.67 71.9663 1725.01 157.848 1727.96C210.862 1729.86 264.936 1725.22 321.13 1716.14C470.417 1692.49 582.593 1646.04 668.687 1570.24C680.35 1559.9 691.589 1548.71 701.98 1537.3C754.145 1480.09 797.616 1405.98 828.364 1318.35C865.474 1212.15 882.438 1087.16 886.679 965.964C890.496 855.75 887.952 742.368 897.706 627.509C913.186 433.051 965.139 231.625 1054.41 67.5707C1105.94 -27.4415 1169.98 -106.83 1243.78 -174.394C1377.37 -296.643 1544.47 -377.72 1730.66 -438.317C1833.08 -471.676 1939.32 -493.212 2046.4 -502.925" stroke="#D4E8F7" stroke-miterlimit="10"/>
<path d="M-2095.23 2280.51C-1934.28 2331.82 -1705.68 2344.28 -1492.99 2330.76C-1382.51 2323.37 -1277.12 2306.69 -1182.54 2272.28C-1085.85 2237.23 -1006.54 2186.98 -921.294 2129.97C-894.363 2111.81 -868.28 2092.6 -842.409 2071.91C-743.168 1992.31 -650.5 1915.24 -518.178 1861.82C-390.733 1810.31 -266.682 1768.5 -152.597 1752.67C-124.817 1748.87 -97.4624 1748.02 -70.7436 1747.81C4.32367 1746.97 74.938 1761.74 160.608 1768.5C213.834 1772.51 267.695 1768.5 322.617 1758.79C469.571 1732.82 581.112 1672.01 662.117 1587.13C673.143 1575.52 683.534 1563.27 693.076 1550.82C741.213 1488.32 779.595 1411.04 806.526 1322.58C838.97 1215.11 853.602 1091.59 859.539 971.665C864.84 861.873 866.537 748.281 879.684 633.211C901.526 438.752 957.72 238.382 1049.54 76.4392C1102.98 -17.7284 1168.08 -95.8496 1242.93 -161.936C1378.01 -281.44 1545.54 -359.983 1731.93 -420.369C1834.14 -453.518 1939.96 -475.476 2046.83 -486.244" stroke="#D4E8F7" stroke-miterlimit="10"/>
<path d="M-2080.17 2309.86C-1917.31 2377 -1690.2 2397.27 -1479.21 2379.96C-1369.36 2370.67 -1264.18 2349.34 -1170.67 2309.22C-1075.03 2268.26 -997.63 2211.68 -914.717 2149.6C-888.422 2129.97 -863.188 2109.28 -838.377 2087.53C-742.317 2003.5 -653.042 1921.79 -521.78 1866.89C-396.88 1814.74 -270.708 1777.37 -154.29 1769.56C-125.875 1767.66 -97.8835 1768.5 -70.5285 1770.82C6.02309 1777.58 77.6974 1798.27 163.155 1808.41C216.593 1814.74 270.243 1811.36 323.893 1800.8C468.514 1772.51 579.418 1697.56 655.333 1603.39C665.724 1590.51 675.266 1577 684.173 1563.48C728.068 1495.71 761.361 1415.48 784.687 1325.74C812.678 1216.8 824.765 1094.97 832.187 976.31C838.973 867.151 844.698 753.136 861.662 637.855C889.654 443.397 950.301 244.082 1044.67 84.4617C1099.8 -8.86134 1166.38 -85.9267 1242.09 -150.535C1378.86 -267.506 1546.6 -343.304 1733.42 -403.479C1835.42 -436.416 1941.02 -458.586 2047.47 -470.409" stroke="#D4E8F7" stroke-miterlimit="10"/>
<path d="M-2065.33 2339.21C-1900.56 2422.39 -1674.94 2450.05 -1465.43 2429.15C-1356.01 2417.96 -1251.46 2391.99 -1159.01 2346.17C-1064.64 2299.51 -989.364 2235.96 -908.359 2169.24C-882.701 2148.13 -858.315 2125.96 -834.352 2103.15C-741.685 2014.48 -655.59 1928.54 -525.177 1872.17C-402.61 1819.17 -274.529 1784.97 -155.99 1786.87C-126.727 1787.29 -98.0994 1789.61 -70.1083 1794.26C7.92775 1807.14 80.6625 1835.22 166.12 1848.94C219.77 1857.6 272.996 1854.64 325.585 1843.45C467.874 1813.05 578.354 1723.74 648.968 1620.49C658.723 1606.35 667.417 1591.78 675.475 1577.21C715.341 1504.15 743.545 1420.97 763.054 1330.18C786.379 1219.96 796.346 1099.61 805.252 982.432C813.523 873.907 823.489 759.259 844.058 643.978C878.199 449.308 943.512 251.261 1040.21 93.9627C1097.25 1.273 1165.11 -74.3145 1241.66 -137.445C1380.13 -251.671 1548.29 -324.936 1735.11 -385.11C1836.9 -417.836 1942.08 -440.428 2048.32 -453.308" stroke="#D4E8F7" stroke-miterlimit="10"/>
<path d="M-2050.28 2368.56C-1883.39 2467.58 -1659.46 2503.05 -1451.65 2478.35C-1342.86 2465.26 -1238.53 2434.85 -1147.14 2383.34C-1053.83 2330.76 -980.675 2260.66 -902.003 2189.09C-876.981 2166.5 -853.442 2143.06 -830.329 2118.99C-740.63 2026.09 -658.14 1935.3 -528.787 1877.45C-408.552 1823.82 -278.563 1795.74 -157.692 1803.97C-127.793 1806.08 -98.529 1810.73 -69.9016 1817.48C9.8308 1836.49 83.2017 1871.96 168.66 1889.27C222.521 1900.25 275.535 1897.93 326.64 1885.89C466.596 1853.17 576.44 1749.71 641.965 1637.17C651.084 1621.76 659.142 1605.92 666.351 1590.3C702.189 1511.97 725.302 1425.61 740.782 1333.98C759.655 1222.5 767.077 1103.63 777.468 987.712C787.434 879.82 801.218 764.75 825.392 649.046C865.683 454.376 935.66 257.596 1034.69 102.198C1093.64 10.3528 1162.56 -63.9679 1240.38 -125.62C1380.55 -237.312 1548.92 -307.621 1736.17 -367.796C1837.74 -400.522 1942.71 -423.325 2048.31 -437.26" stroke="#D4E8F7" stroke-miterlimit="10"/>
<path d="M-2035.22 2397.69C-1866.43 2512.76 -1644.19 2555.84 -1437.87 2527.54C-1329.51 2512.55 -1225.81 2477.5 -1135.48 2420.28C-1043.23 2361.8 -972.194 2285.16 -895.642 2208.51C-871.468 2184.44 -848.566 2159.53 -826.301 2134.61C-739.782 2037.28 -660.686 1942.06 -532.181 1882.52C-414.279 1828.25 -282.593 1804.82 -159.178 1820.86C-128.642 1824.88 -98.742 1831.42 -69.4785 1840.5C11.7383 1865.62 86.1692 1908.49 171.415 1929.39C225.701 1942.69 278.078 1940.79 328.123 1928.12C465.535 1892.86 574.742 1775.26 635.39 1653.64C643.66 1636.96 651.082 1620.07 657.444 1603.39C689.252 1519.78 707.276 1430.47 718.939 1337.78C733.147 1225.03 738.236 1107.64 750.324 992.99C761.774 885.732 779.799 770.239 807.578 654.325C854.018 459.655 928.449 263.93 1030.24 110.855C1091.09 19.8542 1161.28 -53.1996 1239.96 -113.585C1381.61 -222.532 1550.4 -290.308 1737.86 -350.271C1839.43 -382.786 1943.77 -406.012 2049.16 -420.791" stroke="#D4E8F7" stroke-miterlimit="10"/>
<path d="M-2020.16 2427.04C-1759.55 2626.99 -1382.3 2639.66 -1123.6 2457.23C-1032.63 2393.05 -963.709 2309.44 -889.066 2228.15C-773.92 2102.52 -695.885 1964.01 -535.571 1887.58C-391.587 1818.96 -219.186 1806.5 -69.2638 1863.72C13.4374 1895.18 88.9286 1945.22 173.962 1969.5C400.012 2033.9 588.105 1809.67 648.54 1616.48C710.036 1419.7 698.161 1204.76 723.183 998.268C757.748 712.176 858.686 359.997 1025.36 119.511C1200.52 -133.433 1447.56 -239.635 1739.14 -332.747C1840.5 -365.052 1944.4 -388.488 2049.58 -404.534" stroke="#D4E8F7" stroke-miterlimit="10"/>
</g>
<mask id="mask1_202_888" style="mask-type:luminance" maskUnits="userSpaceOnUse" x="-522" y="117" width="2545" height="1690">
<path d="M2022.65 117.189H-522V1806.3H2022.65V117.189Z" fill="white"/>
</mask>
<g mask="url(#mask1_202_888)">
<path d="M-611.914 1711.71C-593.677 1609.52 -489.559 1548.5 -389.469 1536.67C-289.379 1524.85 -187.169 1548.07 -85.8072 1548.07C185.622 1547.86 441.572 1361.85 530.423 1100.04C558.838 1016.22 571.349 926.695 599.129 842.451C626.908 758.418 673.984 676.285 750.535 636.38C860.592 578.739 998.427 623.078 1109.54 687.475C1220.66 751.873 1324.57 837.173 1447.56 866.732C1609.14 905.581 1777.3 838.65 1900.93 731.181C2024.56 623.712 2111.92 479.082 2197.17 336.775" stroke="#FF4DC4" stroke-miterlimit="10"/>
<path d="M-618.055 1701.78C-597.91 1600.01 -494.215 1539.21 -393.913 1526.96C-350.442 1521.68 -306.759 1522.95 -262.864 1526.54C-205.185 1531.18 -147.506 1539.42 -90.2513 1540.68C26.5907 1543.22 140.676 1513.45 240.766 1455.59C318.165 1410.83 386.871 1351.93 441.793 1281.19C481.023 1230.94 512.407 1174.36 534.249 1112.92C544.003 1085.47 552.061 1057.18 559.483 1028.67C574.539 970.822 586.838 912.125 606.347 856.174C628.401 792.621 661.906 731.18 711.526 689.374C727.006 676.284 743.759 665.093 762.207 656.226C839.395 619.276 928.67 631.945 1014.13 663.404C1051.03 676.917 1087.29 694.019 1121 712.177C1158.75 732.658 1195.65 754.616 1232.33 775.73C1304.43 817.113 1375.89 855.329 1453.08 869.053C1503.34 878.132 1552.75 875.598 1601.94 864.83C1701.4 842.661 1799.37 783.542 1881.01 707.955C1903.27 687.263 1924.69 665.305 1945.47 642.713C2037.29 541.789 2114.05 425.241 2189.76 315.026" stroke="#F552C5" stroke-miterlimit="10"/>
<path d="M-623.992 1691.86C-601.939 1590.72 -498.668 1529.92 -398.154 1517.25C-354.683 1511.76 -310.788 1513.02 -266.681 1516.83C-209.002 1521.89 -151.535 1530.97 -94.0684 1533.51C22.5615 1538.78 136.223 1513.66 237.373 1458.34C315.621 1415.48 385.387 1359.32 442.429 1291.33C483.144 1242.56 515.588 1186.82 538.49 1125.8C548.669 1098.56 557.151 1070.27 564.785 1041.76C580.477 984.123 593.412 925.216 613.769 869.687C636.883 806.556 671.448 746.593 722.765 706.899C738.669 694.653 755.634 684.096 774.082 676.073C851.694 642.502 939.697 658.337 1024.94 689.797C1062.05 703.521 1098.53 719.778 1132.45 736.881C1170.62 755.883 1207.95 776.152 1244.42 794.521C1316.31 831.048 1385.65 863.352 1458.38 871.376C1505.46 876.654 1550.63 870.531 1595.79 856.596C1687.4 828.092 1780.49 763.484 1860.65 684.729C1882.7 662.982 1903.91 640.39 1924.69 617.165C2017.36 513.285 2099.85 397.581 2181.49 293.49" stroke="#EB57C7" stroke-miterlimit="10"/>
<path d="M-630.148 1681.72C-606.186 1581.22 -503.552 1520.2 -402.826 1507.32C-359.355 1501.83 -315.248 1502.89 -271.14 1506.9C-213.462 1512.18 -155.995 1522.1 -98.7402 1525.9C17.6776 1533.72 131.127 1513.66 233.337 1460.66C312.221 1419.7 383.471 1366.49 442.422 1301.04C484.833 1253.96 518.338 1199.06 542.088 1138.47C552.691 1111.44 561.385 1083.36 569.655 1054.85C585.983 997.214 599.767 938.307 620.76 883.2C644.722 820.492 680.56 762.006 733.361 724.213C749.689 712.6 766.654 702.888 785.314 695.709C863.138 665.516 950.081 684.518 1035.33 715.978C1072.44 729.702 1109.12 745.537 1143.69 761.373C1182.28 779.108 1219.81 797.055 1256.29 813.313C1327.96 844.984 1395.61 871.376 1463.68 873.487C1507.78 874.965 1548.29 865.253 1589.42 848.362C1673.19 813.946 1761.4 743.637 1840.07 661.293C1861.7 638.702 1882.91 615.054 1903.9 591.195C1997.42 484.148 2085.84 369.5 2173.21 271.532" stroke="#E15DC8" stroke-miterlimit="10"/>
<path d="M-636.297 1671.8C-610.426 1571.72 -508.216 1510.91 -407.278 1497.61C-363.595 1491.91 -319.488 1492.97 -275.38 1497.4C-217.702 1503.1 -160.235 1513.66 -103.192 1518.94C13.0136 1529.28 126.25 1514.08 229.309 1463.62C309.041 1424.56 381.564 1374.31 442.423 1311.39C486.531 1265.99 521.096 1211.94 545.694 1151.77C556.721 1124.74 565.839 1096.87 574.321 1068.37C591.286 1010.94 605.705 951.819 627.759 897.134C652.781 835.06 689.467 777.63 744.177 742.159C760.717 731.391 778.106 722.312 796.554 715.978C874.802 689.163 960.472 711.333 1045.51 743.004C1082.62 756.939 1119.73 771.929 1154.5 786.709C1193.31 803.178 1231.48 819.224 1267.74 832.737C1339.2 859.341 1405.15 880.032 1468.55 876.443C1509.69 874.12 1545.53 860.819 1582.85 840.76C1658.77 800.011 1741.89 724.423 1819.5 638.701C1840.71 615.054 1861.92 590.773 1883.12 566.281C1977.48 456.278 2071.64 342.685 2164.94 250.629" stroke="#D762CA" stroke-miterlimit="10"/>
<path d="M-642.234 1661.88C-614.667 1562.43 -512.669 1501.62 -411.519 1487.9C-367.836 1481.99 -323.517 1483.04 -279.409 1487.69C-221.731 1493.6 -164.264 1505.21 -107.433 1511.55C8.56045 1524.64 121.585 1514.08 225.704 1466.15C306.285 1428.99 379.868 1381.49 442.848 1321.31C488.651 1277.39 524.065 1224.4 549.723 1164.44C561.174 1137.62 570.717 1109.75 579.411 1081.25C597.223 1023.82 612.279 964.699 634.969 910.436C660.84 848.784 698.797 792.832 755.204 759.261C772.168 749.127 789.556 740.892 808.217 735.403C886.677 711.966 971.287 737.092 1056.32 768.974C1093.64 782.909 1130.96 797.477 1166.17 810.99C1205.4 826.192 1243.78 840.127 1280.04 851.318C1351.29 873.065 1415.54 887.845 1474.28 878.343C1512.66 872.22 1543.62 855.329 1577.13 832.104C1645.2 785.231 1723.44 703.943 1799.57 614.843C1820.56 590.14 1841.56 565.014 1862.76 539.889C1957.98 426.719 2057.85 314.182 2157.31 228.249" stroke="#CD67CB" stroke-miterlimit="10"/>
<path d="M-648.379 1651.74C-618.903 1552.93 -517.329 1491.91 -415.967 1478.19C-372.284 1472.28 -327.753 1473.12 -283.645 1477.98C-225.755 1484.31 -168.5 1496.56 -111.669 1504.16C4.11247 1519.78 116.925 1514.29 221.892 1468.69C303.321 1433.43 378.176 1388.88 443.065 1331.24C490.565 1289.01 527.038 1236.86 553.545 1177.32C565.208 1150.71 575.175 1123.05 584.505 1094.55C602.954 1037.12 618.646 978.001 642.184 924.161C668.903 862.931 707.921 808.246 766.236 776.998C783.624 767.708 801.225 760.107 819.885 755.462C898.77 735.404 982.107 763.696 1067.14 795.578C1104.46 809.513 1142.21 823.448 1177.62 835.905C1217.28 849.841 1255.87 861.664 1292.34 870.321C1363.17 887.212 1426.36 896.08 1480.01 880.878C1515.64 870.743 1541.93 850.263 1571.41 824.293C1631.63 771.297 1705 684.519 1779.86 592.041C1800.43 566.493 1821.42 540.523 1842.84 514.764C1938.9 398.638 2044.71 286.946 2149.89 206.925" stroke="#C36CCD" stroke-miterlimit="10"/>
<path d="M-654.316 1641.82C-622.932 1543.64 -521.782 1482.62 -420.42 1468.47C-376.525 1462.35 -331.994 1463.2 -287.674 1468.26C-229.784 1474.81 -172.741 1487.9 -115.91 1496.98C-0.340672 1515.35 112.26 1514.5 218.075 1471.43C300.352 1438.07 376.48 1396.48 443.065 1341.37C492.262 1300.83 529.795 1249.52 557.15 1190.4C569.237 1164.01 579.628 1136.35 589.17 1107.85C608.255 1050.63 624.583 991.301 648.97 937.883C676.749 877.076 716.615 823.869 776.839 794.52C794.439 785.864 812.252 779.107 831.124 775.096C910.221 758.416 992.498 789.875 1077.32 821.757C1114.85 835.904 1152.81 849.205 1188.44 860.396C1228.51 873.064 1267.53 882.776 1303.79 889.11C1374.41 901.145 1436.12 903.679 1484.68 883.199C1517.76 869.263 1538.96 845.194 1564.62 816.057C1617 756.727 1685.28 664.67 1758.86 568.603C1779.22 541.999 1800 515.185 1821.63 488.792C1918.54 369.499 2030.08 259.074 2141.2 184.964" stroke="#B972CE" stroke-miterlimit="10"/>
<path d="M-660.465 1631.9C-627.172 1534.14 -526.446 1473.33 -424.872 1458.76C-380.977 1452.43 -336.234 1453.27 -291.914 1458.55C-234.023 1465.52 -176.981 1479.24 -120.362 1489.59C-5.00462 1510.49 107.384 1514.5 214.259 1473.96C297.385 1442.5 374.785 1403.87 443.278 1351.29C494.171 1312.23 532.553 1261.98 560.968 1203.07C573.48 1176.89 584.082 1149.23 594.049 1120.73C613.77 1063.51 630.946 1004.18 655.969 951.186C684.596 890.8 725.735 838.86 787.443 811.835C805.467 804.022 823.492 797.899 842.365 794.732C921.885 781.431 1002.68 816.057 1087.71 847.939C1125.25 862.085 1163.41 874.754 1199.68 884.888C1240.18 896.29 1279.41 904.102 1315.67 907.691C1386.07 914.87 1446.51 911.069 1489.98 885.099C1520.51 866.942 1536.63 839.494 1558.47 807.612C1603 741.948 1666.41 644.613 1738.72 545.167C1758.65 517.719 1779.43 490.06 1801.06 462.823C1898.82 340.574 2016.09 230.993 2133.14 163.007" stroke="#AF77CF" stroke-miterlimit="10"/>
<path d="M-666.406 1621.76C-631.205 1524.64 -530.903 1463.62 -429.117 1448.84C-385.222 1442.5 -340.479 1443.14 -295.947 1448.63C-238.056 1455.81 -181.014 1470.59 -124.607 1482.2C-9.4616 1505.85 102.503 1514.71 210.439 1476.5C294.412 1446.94 373.084 1411.26 443.486 1361.22C496.076 1323.85 535.518 1274.44 564.782 1215.95C577.717 1189.98 588.744 1162.54 599.134 1134.03C619.704 1077.02 637.304 1017.48 663.387 964.91C693.075 904.947 735.061 854.274 798.677 829.571C816.914 822.392 835.151 817.325 854.236 814.791C933.968 804.867 1013.7 842.661 1098.73 874.543C1136.48 888.689 1174.86 900.935 1211.34 909.803C1252.26 919.727 1291.7 925.638 1327.97 926.905C1397.94 929.228 1457.32 918.671 1495.7 887.845C1523.69 865.464 1534.72 834.849 1552.74 799.8C1589.43 728.013 1647.96 624.978 1718.78 522.364C1738.29 493.861 1759.07 465.357 1780.91 437.698C1879.52 312.493 2002.51 203.757 2125.5 141.893" stroke="#A57CD1" stroke-miterlimit="10"/>
<path d="M-672.562 1611.84C-635.665 1515.35 -535.575 1454.33 -433.577 1439.13C-389.682 1432.58 -344.726 1433.21 -300.195 1439.13C-242.304 1446.73 -185.262 1462.14 -128.855 1475.02C-13.9216 1501.2 97.8309 1514.93 206.827 1479.24C291.649 1451.58 371.805 1418.86 443.904 1371.35C498.19 1335.67 538.692 1287.11 568.804 1229.04C582.163 1203.29 593.614 1175.84 604.217 1147.33C625.422 1090.33 643.871 1030.79 670.59 978.634C701.126 919.304 744.173 869.687 809.698 847.095C828.358 840.761 846.807 836.327 865.892 834.638C946.049 828.093 1024.51 868.842 1109.33 900.935C1147.08 915.293 1185.88 926.694 1222.57 934.506C1263.71 943.163 1303.78 946.964 1339.83 945.697C1409.6 943.163 1467.7 925.639 1500.99 889.956C1526.23 862.931 1532.59 829.36 1546.59 791.355C1575.43 713.234 1629.08 604.92 1698.42 498.717C1717.71 469.158 1738.28 440.021 1760.34 411.517C1859.79 283.145 1988.72 175.676 2117.65 119.724" stroke="#9B81D2" stroke-miterlimit="10"/>
<path d="M-678.703 1601.91C-639.897 1505.85 -540.232 1445.04 -438.233 1429.41C-394.126 1422.66 -349.171 1423.29 -304.427 1429.41C-246.536 1437.23 -189.706 1453.48 -133.299 1467.63C-18.5779 1496.56 92.9627 1514.92 202.807 1481.78C288.477 1456.02 369.906 1426.25 443.913 1381.27C499.895 1347.28 541.458 1299.56 572.418 1241.71C586.201 1216.16 597.864 1188.72 608.891 1160.21C630.733 1103.21 649.818 1043.88 677.385 991.935C708.769 933.028 752.876 884.677 820.309 864.408C839.182 858.707 858.055 855.118 876.928 854.273C957.296 851.106 1034.7 895.023 1119.52 927.116C1157.48 941.473 1196.49 952.453 1233.6 958.998C1275.17 966.388 1315.46 968.288 1351.51 964.487C1420.85 957.098 1477.47 932.394 1506.09 892.278C1528.57 860.819 1530.06 824.292 1540.23 783.331C1561.23 698.876 1609.79 585.283 1678.07 475.702C1696.94 445.299 1717.51 415.106 1739.57 386.18C1839.87 254.852 1974.52 148.227 2109.39 98.3984" stroke="#9187D4" stroke-miterlimit="10"/>
<path d="M-684.641 1591.78C-643.926 1496.35 -544.685 1435.33 -442.474 1419.49C-398.367 1412.73 -353.2 1413.16 -308.456 1419.49C-250.353 1427.73 -193.735 1444.83 -137.54 1460.24C-23.031 1491.7 88.2976 1514.93 199.202 1484.31C285.72 1460.45 368.421 1433.64 444.337 1391.2C502.016 1358.89 544.427 1312.02 576.447 1254.59C590.442 1229.26 602.742 1202.02 613.98 1173.51C636.458 1116.72 656.179 1057.18 684.595 1005.87C717.039 947.386 761.994 900.091 831.336 882.144C850.633 877.077 869.506 874.332 888.591 874.332C969.384 874.543 1045.51 921.627 1130.33 953.931C1168.29 968.289 1207.52 978.634 1245.05 984.124C1287.04 990.247 1327.54 990.036 1363.59 983.702C1432.72 971.667 1487.43 939.574 1511.39 894.813C1530.9 858.708 1527.72 819.225 1533.87 775.308C1546.81 684.519 1590.7 565.437 1657.5 452.478C1675.95 421.018 1696.31 390.192 1718.78 360.422C1819.93 225.927 1960.31 120.358 2101.12 76.4409" stroke="#878CD5" stroke-miterlimit="10"/>
<path d="M-690.793 1581.86C-648.17 1487.06 -549.353 1426.04 -446.93 1409.99C-402.823 1403.02 -357.444 1403.44 -312.7 1409.99C-254.597 1418.44 -197.979 1436.38 -141.996 1453.06C-27.699 1487.06 83.4175 1515.35 195.17 1487.06C282.325 1465.1 366.51 1441.24 444.334 1401.33C503.921 1370.72 547.18 1324.69 580.049 1267.68C594.469 1242.56 607.192 1215.32 618.855 1186.82C642.181 1130.02 662.538 1070.48 691.802 1019.6C725.094 961.532 771.11 915.504 842.148 899.88C861.657 895.657 880.954 893.546 900.039 894.39C981.044 897.979 1056.11 948.23 1140.72 980.535C1178.68 995.103 1218.33 1004.6 1256.08 1009.04C1298.49 1013.89 1339.2 1011.78 1375.25 1002.92C1443.96 986.024 1496.76 946.752 1516.48 897.557C1532.81 856.808 1525.18 814.58 1527.51 767.496C1532.6 670.584 1571.62 546.012 1637.14 429.675C1655.38 397.16 1675.52 365.489 1698 335.296C1800 197.845 1946.1 93.3318 2092.84 55.3269" stroke="#7D91D7" stroke-miterlimit="10"/>
<path d="M-696.734 1571.93C-652.203 1477.55 -553.81 1416.75 -451.175 1400.28C-406.856 1393.1 -361.476 1393.52 -316.733 1400.28C-258.63 1409.15 -202.012 1427.73 -146.029 1445.88C-31.944 1482.62 78.9605 1515.56 191.773 1489.8C279.776 1469.74 365.446 1449.05 444.966 1411.47C506.25 1382.54 550.569 1337.36 584.286 1280.56C599.13 1255.44 612.065 1228.41 624.152 1199.91C648.115 1143.32 669.108 1083.57 699.22 1033.11C733.572 975.468 780.436 930.495 853.383 917.194C873.316 913.604 892.613 912.337 911.91 914.027C993.339 920.783 1067.13 974.412 1151.74 1006.72C1189.91 1021.28 1229.78 1030.36 1267.95 1033.53C1310.78 1037.12 1351.92 1032.9 1387.76 1021.5C1456.25 999.749 1506.93 953.509 1522.41 899.669C1535.35 854.274 1523.48 809.091 1521.99 759.262C1519.02 656.015 1553.37 526.166 1617.42 406.239C1635.23 372.879 1655.37 340.364 1678.06 309.327C1780.91 168.709 1932.95 65.2508 2085.63 33.3689" stroke="#7396D8" stroke-miterlimit="10"/>
<path d="M-702.875 1561.8C-656.647 1468.05 -558.466 1407.03 -455.832 1390.35C-411.512 1383.18 -365.921 1383.39 -320.965 1390.56C-262.862 1399.64 -206.244 1419.28 -150.473 1438.49C-36.6002 1477.77 73.8802 1515.56 187.753 1492.33C276.604 1474.18 363.547 1456.44 444.975 1421.39C507.956 1394.15 553.123 1349.82 587.9 1293.44C603.168 1268.53 616.527 1241.71 628.826 1213.21C653.425 1156.62 675.266 1096.87 706.014 1046.83C741.215 989.613 788.928 945.908 863.995 934.929C884.352 931.973 903.861 931.55 923.158 934.084C1004.8 944.219 1077.53 1000.8 1161.93 1033.32C1200.1 1048.1 1240.39 1056.33 1278.77 1058.44C1321.82 1060.56 1363.38 1054.64 1399.22 1040.71C1467.5 1014.32 1515.85 961.11 1527.3 902.202C1536.84 852.374 1520.73 804.234 1515.43 751.238C1504.61 641.658 1533.87 506.529 1596.85 383.224C1614.24 348.809 1634.39 315.449 1657.29 283.989C1760.98 140.415 1918.75 37.8023 2077.37 12.0435" stroke="#699CD9" stroke-miterlimit="10"/>
<path d="M-708.816 1551.87C-660.68 1458.76 -562.923 1397.74 -460.077 1380.64C-415.757 1373.25 -369.953 1373.46 -324.998 1380.85C-266.895 1390.35 -210.489 1410.62 -154.718 1431.1C-41.0571 1473.12 69.2113 1515.77 183.933 1494.87C273.632 1478.61 362.058 1463.83 445.184 1431.31C509.86 1405.98 556.088 1362.27 591.713 1306.32C607.405 1281.62 620.977 1254.8 633.912 1226.3C659.147 1169.93 681.624 1109.96 713.22 1060.34C749.27 1003.76 798.042 960.899 875.018 952.453C895.587 950.131 915.308 950.553 934.817 953.931C1016.88 967.444 1088.34 1027.2 1172.74 1059.71C1211.12 1074.49 1251.63 1082.3 1290.43 1083.15C1333.9 1083.99 1375.68 1075.97 1411.52 1059.5C1479.37 1028.25 1525.6 968.077 1533.02 904.525C1539.17 850.262 1518.6 799.167 1509.7 743.215C1490.61 627.511 1515.42 486.682 1576.92 360.21C1594.09 324.95 1614.03 290.746 1636.93 258.442C1741.47 111.701 1904.97 10.1432 2069.52 -9.49268" stroke="#5FA1DB" stroke-miterlimit="10"/>
<path d="M-714.969 1541.95C-664.924 1449.47 -567.591 1388.45 -464.533 1370.93C-420.001 1363.33 -374.197 1363.54 -329.242 1371.14C-270.927 1381.06 -214.733 1401.96 -158.962 1423.92C-45.5132 1468.47 64.543 1515.98 180.325 1497.61C270.872 1483.25 360.571 1471.64 445.605 1441.45C512.19 1417.8 559.266 1374.94 595.739 1319.41C611.855 1294.92 625.851 1268.1 638.998 1239.6C664.869 1183.23 687.983 1123.26 720.427 1074.07C757.537 1017.9 807.37 976.099 885.83 969.976C906.823 968.287 926.756 969.554 946.265 973.565C1028.54 990.456 1098.94 1053.38 1183.34 1085.89C1221.72 1100.67 1262.44 1107.85 1301.67 1107.64C1345.56 1107.22 1387.76 1097.29 1423.39 1078.29C1491.03 1042.19 1534.93 975.466 1538.11 906.635C1540.87 848.149 1516.06 793.676 1503.33 734.768C1476.4 612.941 1496.33 466.623 1556.35 336.561C1573.1 300.246 1593.03 265.197 1616.14 232.47C1721.54 82.7733 1890.76 -17.7285 2061.25 -31.6636" stroke="#55A6DC" stroke-miterlimit="10"/>
<path d="M-721.113 1531.82C-669.16 1439.76 -572.463 1378.74 -468.981 1361.01C-424.449 1353.41 -378.645 1353.41 -333.478 1361.22C-275.163 1371.35 -218.968 1393.31 -163.41 1416.32C-50.1732 1463.62 59.6709 1515.77 176.301 1499.94C267.696 1487.48 358.668 1479.03 445.61 1451.16C513.891 1429.2 561.816 1387.19 599.349 1331.87C615.89 1307.59 630.309 1280.98 643.669 1252.48C670.388 1196.11 694.138 1136.14 727.43 1087.37C765.388 1031.63 816.281 990.881 896.65 987.292C917.855 986.447 938 988.558 957.721 993.203C1040.42 1013.47 1109.34 1079.56 1193.74 1112.07C1232.33 1127.07 1273.26 1133.61 1312.7 1132.13C1357.02 1130.44 1399.43 1118.41 1435.06 1096.87C1502.49 1056.12 1544.05 982.435 1543.2 908.748C1542.57 846.04 1513.73 788.399 1496.98 726.325C1462.2 598.164 1477.04 446.567 1535.99 313.127C1552.32 275.756 1572.26 240.073 1595.58 206.502C1701.82 53.6383 1876.98 -45.8078 2053.19 -53.6199" stroke="#4BABDE" stroke-miterlimit="10"/>
<path d="M-727.062 1521.89C-673.413 1430.47 -576.928 1369.45 -473.446 1351.29C-428.914 1343.48 -382.898 1343.48 -337.519 1351.5C-279.204 1362.06 -223.009 1384.65 -167.663 1409.15C-54.6381 1458.97 54.994 1516.19 172.684 1502.68C264.928 1492.12 357.384 1486.63 445.81 1461.3C515.788 1441.24 564.773 1399.86 603.367 1344.96C620.119 1320.89 634.963 1294.29 648.958 1265.78C676.313 1209.62 700.7 1149.45 734.84 1101.09C773.858 1045.78 825.599 1006.08 907.877 1004.82C929.506 1004.6 949.863 1007.56 969.372 1013.05C1052.29 1036.7 1120.14 1105.95 1204.54 1138.68C1243.13 1153.67 1284.49 1159.58 1324.35 1157.05C1369.09 1154.09 1411.93 1140.16 1447.34 1116.09C1514.56 1070.69 1553.79 990.247 1548.92 911.281C1544.68 844.351 1511.81 783.543 1491.24 718.512C1448.62 584.017 1458.58 427.141 1516.05 290.113C1532.16 251.897 1551.89 215.159 1575.21 181.165C1682.3 25.3453 1863.18 -73.2562 2045.55 -74.9453" stroke="#41B1DF" stroke-miterlimit="10"/>
<path d="M-733.203 1511.97C-677.645 1421.18 -581.584 1360.16 -477.89 1341.79C-433.146 1333.77 -387.13 1333.77 -341.751 1342C-283.436 1352.77 -227.241 1376.21 -172.107 1401.97C-59.2943 1454.54 50.1257 1516.4 168.664 1505.42C261.756 1496.77 355.484 1494.66 445.819 1471.43C517.494 1453.27 567.539 1412.52 606.981 1358.05C624.157 1334.19 639.425 1307.59 653.633 1279.08C681.624 1222.92 706.858 1162.75 741.635 1114.82C781.501 1059.92 834.303 1021.07 918.488 1022.55C940.33 1022.97 960.899 1026.77 980.62 1033.11C1063.96 1060.13 1130.54 1132.34 1214.94 1165.28C1253.75 1180.27 1295.31 1185.76 1335.39 1181.96C1380.34 1177.74 1423.6 1161.69 1459.02 1135.09C1526.02 1084.84 1562.92 997.848 1554.02 913.815C1546.38 842.661 1509.27 778.475 1484.89 710.489C1434.2 569.871 1439.51 407.294 1495.7 267.098C1511.39 227.827 1531.11 190.455 1554.65 155.617C1662.59 -3.36973 1849.19 -100.704 2037.5 -96.4817" stroke="#37B6E1" stroke-miterlimit="10"/>
<path d="M-739.141 1501.83C-656.864 1372.62 -496.338 1303.36 -345.78 1332.08C-168.29 1365.86 -13.2785 1520.63 165.059 1507.75C258.999 1500.99 354 1501.83 446.243 1481.14C551.846 1457.5 610.797 1385.5 658.722 1291.96C720.217 1171.83 768.354 1032.47 929.515 1039.86C1045.93 1045.14 1121.42 1150.71 1225.54 1191.46C1307.82 1223.55 1404.31 1208.77 1471.1 1153.67C1537.9 1098.56 1572.46 1005.24 1559.53 915.926C1548.5 840.55 1507.15 773.197 1478.95 702.043C1404.09 514.13 1425.51 291.59 1534.29 129.647C1643.08 -32.2957 1835.62 -128.786 2029.65 -118.44" stroke="#2DBBE2" stroke-miterlimit="10"/>
<path d="M-729.816 1520.41C-646.267 1401.33 -486.802 1336.94 -337.304 1363.33C-262.449 1376.42 -191.41 1409.78 -121.22 1441.87C-49.334 1475.02 21.2801 1507.11 95.075 1516.61C118.825 1519.57 142.999 1520.41 167.385 1517.88C259.205 1508.38 352.085 1506.06 443.904 1484.52C548.023 1460.24 608.034 1391.2 657.655 1302.94C669.106 1282.67 680.133 1261.98 691.372 1241.5C724.452 1181.33 759.653 1124.32 815.212 1092.86C846.384 1075.12 883.705 1065.2 930.357 1066.89C1045.29 1070.69 1120.57 1167.39 1221.3 1202.23C1234.66 1206.87 1248.44 1210.25 1262.22 1212.36C1331.14 1222.92 1403.87 1203.07 1457.1 1156.41C1520.93 1100.46 1554.01 1007.98 1541.92 919.515C1531.74 844.561 1493.15 776.786 1467.07 705.632C1422.11 582.961 1417.02 446.143 1449.47 321.994C1466.85 255.697 1495.06 192.989 1533.23 137.67C1603.21 36.7463 1706.05 -37.9966 1821.62 -77.4795C1887.99 -100.071 1958.61 -110.839 2029.43 -107.883" stroke="#33B4E3" stroke-miterlimit="10"/>
<path d="M-720.273 1539C-635.664 1430.05 -477.047 1370.51 -328.397 1394.58C-253.754 1406.61 -183.14 1436.8 -113.798 1465.52C-42.7597 1494.87 26.5821 1522.95 99.1047 1529.28C122.431 1531.39 145.969 1531.18 169.931 1528.02C259.842 1515.77 350.389 1510.49 441.573 1488.11C543.995 1463.41 605.278 1396.9 656.383 1313.92C668.258 1294.71 679.709 1275.49 691.372 1256.28C725.513 1200.12 761.138 1147.54 816.696 1118.41C848.081 1102.15 885.19 1092.65 930.994 1093.7C1044.44 1096.24 1119.51 1183.86 1216.84 1212.79C1229.78 1216.59 1242.93 1219.12 1256.29 1220.6C1322.66 1227.78 1392.21 1206.03 1442.89 1158.74C1503.75 1101.94 1535.35 1010.52 1524.32 922.894C1515.2 848.362 1478.94 780.375 1455.4 709.011C1414.27 586.339 1411.93 450.155 1446.07 327.484C1464.52 261.609 1493.57 199.745 1532.59 145.272C1603.63 46.0366 1706.69 -27.0172 1822.47 -66.5C1888.84 -89.0918 1959.03 -100.071 2029.65 -97.5374" stroke="#38ADE5" stroke-miterlimit="10"/>
<path d="M-710.73 1557.58C-624.848 1458.76 -467.292 1403.87 -319.702 1425.61C-245.483 1436.38 -175.081 1463.83 -106.376 1488.74C-35.9735 1514.5 32.0958 1538.15 103.134 1541.53C126.036 1542.58 149.15 1541.53 172.476 1537.73C260.479 1522.74 348.693 1514.08 439.452 1491.07C540.39 1465.52 602.734 1402.18 655.536 1324.48C667.623 1306.53 679.71 1288.59 691.585 1270.85C726.786 1218.91 762.835 1170.35 818.394 1143.74C849.778 1128.75 886.887 1119.67 931.843 1120.31C1043.81 1121.36 1118.45 1200.33 1212.81 1223.13C1225.33 1226.09 1238.05 1227.99 1250.98 1228.83C1314.81 1232.63 1381.19 1208.99 1429.53 1161.06C1487.64 1103.63 1517.54 1013.05 1507.57 926.272C1499.3 851.952 1465.8 783.754 1444.38 712.389C1407.27 589.718 1407.27 454.167 1443.32 332.974C1462.83 267.521 1492.73 206.502 1532.38 153.084C1604.48 55.5381 1707.75 -15.8266 1823.53 -55.3095C1889.69 -77.6901 1959.88 -88.8804 2030.28 -87.1913" stroke="#3EA6E6" stroke-miterlimit="10"/>
<path d="M-701.184 1576.15C-614.029 1487.27 -457.533 1437.44 -310.792 1456.86C-236.785 1466.36 -166.807 1490.86 -98.7372 1512.39C-28.9714 1534.35 37.6136 1553.77 107.379 1554.2C129.857 1554.41 152.335 1552.51 175.237 1547.86C261.331 1530.34 347.213 1518.51 437.548 1494.66C536.79 1468.47 600.406 1408.09 654.692 1335.46C667.203 1318.78 679.714 1302.1 692.013 1285.63C728.275 1237.7 764.748 1193.36 820.306 1169.29C851.902 1155.57 888.8 1147.54 932.907 1147.33C1043.39 1146.91 1117.61 1217.01 1208.79 1233.9C1220.88 1236.22 1233.18 1237.28 1245.48 1237.28C1306.76 1237.7 1369.74 1212.15 1415.75 1163.59C1470.89 1105.32 1499.09 1015.79 1490.4 929.65C1482.98 855.751 1452.23 787.131 1433.14 715.767C1399.85 592.884 1402.61 458.178 1440.57 338.252C1461.13 273.221 1492.09 213.258 1532.17 160.473C1605.33 64.6164 1708.81 -5.27034 1824.81 -44.3309C1890.97 -66.7116 1960.73 -78.113 2030.92 -76.8462" stroke="#43A0E8" stroke-miterlimit="10"/>
<path d="M-691.855 1594.52C-603.429 1515.77 -447.993 1470.8 -302.312 1487.69C-228.729 1496.13 -158.751 1517.67 -91.5295 1535.41C-22.6118 1553.78 42.7009 1568.98 111.194 1566.23C133.248 1565.39 155.302 1562.64 177.568 1557.36C261.753 1537.1 345.302 1522.1 435.001 1497.4C532.758 1470.59 597.435 1412.95 653.417 1345.8C666.353 1330.18 679.288 1314.98 692.011 1299.99C729.121 1256.07 766.442 1216.17 822.001 1194.42C853.809 1181.96 890.282 1174.15 933.753 1173.73C1042.75 1172.46 1116.76 1233.06 1204.55 1244.04C1216.21 1245.51 1228.08 1245.72 1239.75 1245.3C1298.27 1242.56 1358.29 1214.9 1401.76 1165.7C1454.13 1106.58 1480.64 1017.91 1473.01 932.818C1466.43 859.342 1438.44 790.511 1421.48 718.935C1392.21 596.052 1397.52 461.98 1437.17 343.531C1458.8 278.923 1490.61 219.804 1531.32 168.075C1605.54 73.9075 1709.24 5.70989 1825.44 -33.3507C1891.39 -55.5202 1960.94 -67.1328 2030.92 -66.7106" stroke="#4999E9" stroke-miterlimit="10"/>
<path d="M-682.309 1613.11C-592.61 1544.49 -438.234 1504.16 -293.613 1518.94C-220.454 1526.12 -150.688 1544.7 -84.1031 1559.05C-15.8215 1573.62 48.0068 1584.6 115.228 1578.9C136.858 1577 158.275 1573.62 180.117 1567.5C262.394 1544.49 343.61 1526.33 432.885 1500.99C528.946 1473.54 594.895 1418.86 652.362 1356.78C665.721 1342.43 679.081 1328.49 692.016 1314.77C730.186 1274.86 767.931 1239.18 823.49 1219.97C855.298 1208.78 891.771 1201.6 934.394 1200.54C1042.12 1197.8 1115.7 1249.53 1200.1 1254.59C1211.34 1255.23 1222.58 1254.8 1234.03 1253.54C1290.01 1247.41 1346.84 1217.85 1387.98 1168.03C1437.39 1108.06 1462.41 1020.44 1455.84 936.196C1450.11 863.142 1424.66 793.889 1410.24 722.313C1384.8 599.43 1393.07 465.991 1434.21 349.021C1456.9 284.835 1489.55 226.56 1530.9 175.676C1605.97 83.1976 1709.88 16.689 1826.29 -22.3716C1892.24 -44.5411 1961.59 -56.3648 2031.35 -56.5759" stroke="#4F92EA" stroke-miterlimit="10"/>
<path d="M-672.766 1631.69C-582.006 1573.2 -428.267 1537.73 -284.706 1550.19C-211.759 1556.1 -142.418 1571.93 -76.4687 1582.49C-8.82336 1593.47 53.7327 1600.01 119.47 1591.36C140.675 1588.61 161.668 1584.18 182.874 1577.42C263.243 1551.87 342.339 1530.34 430.765 1504.16C525.341 1476.29 592.351 1424.14 651.514 1367.55C665.298 1354.25 679.081 1341.79 692.44 1329.55C731.67 1293.86 770.052 1262.4 825.399 1245.51C857.419 1235.8 893.68 1229.04 935.455 1227.36C1041.69 1223.34 1114.85 1266.21 1196.07 1265.15C1206.88 1264.94 1217.7 1263.88 1228.51 1261.98C1281.95 1252.48 1335.39 1221.02 1374.2 1170.56C1420.64 1109.75 1444.17 1023.18 1438.66 939.574C1433.78 866.731 1411.3 797.267 1398.79 725.48C1377.59 602.598 1388.19 469.792 1431.24 354.299C1454.99 290.535 1488.49 233.317 1530.48 183.277C1606.61 92.4876 1710.73 27.6682 1827.36 -11.1812C1893.09 -33.1396 1962.22 -45.1745 2031.78 -46.019" stroke="#548BEC" stroke-miterlimit="10"/>
<path d="M-663.223 1650.26C-571.191 1601.91 -418.512 1571.51 -276.011 1581.22C-203.489 1586.29 -134.359 1598.75 -69.0462 1605.93C-2.24908 1613.1 59.0347 1615.43 123.499 1603.81C144.281 1600.01 164.638 1594.74 185.419 1587.35C263.667 1559.05 340.643 1534.56 428.645 1507.54C521.737 1479.03 590.019 1429.84 650.666 1378.32C664.874 1366.28 679.082 1355.09 692.865 1344.11C732.944 1312.44 771.961 1285.42 827.308 1270.85C859.54 1262.4 895.589 1256.28 936.516 1254.17C1041.27 1248.89 1114.22 1282.67 1192.04 1275.71C1202.43 1274.86 1212.82 1272.96 1223 1270.43C1273.89 1257.55 1324.15 1224.19 1360.41 1173.09C1404.1 1111.44 1425.94 1025.72 1421.27 943.163C1417.24 870.742 1397.52 801.067 1387.34 729.069C1369.96 606.186 1383.31 474.014 1428.06 359.999C1452.87 296.658 1487.43 240.284 1529.84 191.3C1607.03 102.199 1711.36 39.0689 1827.99 0.21946C1893.52 -21.7389 1962.65 -33.7738 2031.78 -35.4629" stroke="#5A84ED" stroke-miterlimit="10"/>
<path d="M-653.895 1668.84C-560.591 1630.63 -408.972 1605.08 -267.319 1612.47C-195.009 1616.27 -126.303 1625.98 -61.6267 1629.36C4.53427 1632.95 64.3335 1631.05 127.526 1616.27C147.671 1611.63 167.816 1605.5 187.961 1597.27C264.301 1566.23 338.944 1538.57 426.31 1510.91C517.706 1481.78 587.26 1435.54 649.392 1389.3C664.023 1378.53 678.655 1368.61 692.863 1358.89C734.001 1331.23 773.656 1308.43 828.79 1296.4C861.234 1289.22 896.859 1283.52 937.149 1280.98C1040.42 1274.23 1113.15 1299.14 1187.59 1286.26C1197.55 1284.57 1207.52 1281.83 1217.06 1278.66C1265.41 1262.4 1312.49 1227.14 1346.2 1175.41C1386.92 1113.13 1407.27 1028.25 1403.67 946.33C1400.7 874.331 1383.31 804.233 1375.68 732.235C1362.32 609.353 1378.22 477.814 1424.87 365.277C1450.75 302.358 1486.16 246.829 1529.21 198.689C1607.45 111.278 1712 49.8366 1828.84 10.9872C1894.36 -10.7601 1963.07 -23.2172 2032.2 -25.3286" stroke="#607DEE" stroke-miterlimit="10"/>
<path d="M-644.352 1687.42C-549.775 1659.13 -399.217 1638.65 -258.625 1643.72C-186.738 1646.25 -118.245 1653.01 -54.2043 1653.01C11.3205 1653.01 69.6354 1646.68 131.555 1628.94C151.276 1623.24 170.785 1616.27 190.507 1607.4C264.938 1573.62 337.248 1543.01 424.19 1514.29C514.101 1484.73 584.928 1441.03 648.544 1400.28C663.6 1390.56 678.656 1382.12 693.075 1373.88C735.062 1350.24 775.564 1331.87 830.486 1322.16C863.143 1316.45 898.556 1311.18 937.998 1308.01C1039.78 1299.99 1112.31 1315.61 1183.34 1297.03C1192.89 1294.5 1202.22 1291.12 1211.55 1287.32C1257.35 1267.89 1301.04 1230.52 1332.63 1178.16C1370.59 1115.03 1389.25 1031.21 1386.71 950.13C1384.58 878.554 1369.95 808.245 1364.44 736.036C1354.9 613.153 1373.77 482.248 1421.91 371.189C1449.05 308.903 1485.1 254.007 1528.99 206.923C1608.3 121.201 1713.06 61.4492 1830.11 22.5998C1895.42 0.852556 1963.92 -11.6046 2032.83 -14.5605" stroke="#6576F0" stroke-miterlimit="10"/>
<path d="M-634.812 1705.79C-538.964 1687.64 -389.466 1671.8 -249.722 1674.55C-178.047 1676.02 -109.978 1679.82 -46.7857 1676.02C17.8909 1672.22 74.9335 1661.67 135.581 1640.97C154.878 1634.22 173.963 1626.41 193.048 1616.9C265.57 1580.38 335.548 1546.6 422.067 1517.25C510.493 1487.05 582.592 1446.3 647.48 1410.62C662.96 1402.18 678.228 1394.79 693.284 1388.03C736.331 1368.39 777.258 1354.46 832.18 1347.07C865.048 1342.64 900.249 1337.99 939.055 1334.4C1039.36 1324.9 1111.46 1331.66 1179.31 1307.16C1188.43 1303.79 1197.34 1299.78 1206.03 1295.13C1249.29 1272.33 1289.79 1233.06 1318.84 1180.06C1353.83 1116.08 1371.01 1033.11 1369.53 953.086C1368.25 881.721 1356.38 811.201 1353.2 738.992C1347.68 615.898 1369.1 485.837 1418.93 376.256C1447.14 314.393 1484.25 260.553 1528.57 214.102C1608.94 130.069 1713.9 72.0062 1830.96 33.3679C1896.27 11.8318 1964.55 -1.04757 2033.04 -4.42578" stroke="#6B70F1" stroke-miterlimit="10"/>
<path d="M-625.27 1724.37C-528.361 1716.35 -379.711 1705.37 -241.027 1705.79C-169.777 1706.01 -101.919 1707.06 -39.3633 1699.46C24.6772 1692.07 80.4475 1677.29 139.611 1653.43C158.484 1645.83 177.144 1637.17 195.593 1626.83C266.207 1587.56 333.852 1550.82 419.735 1520.41C506.465 1489.8 579.836 1451.79 646.421 1421.39C662.325 1414.21 678.017 1408.09 693.497 1402.81C737.392 1387.19 779.167 1377.69 833.877 1372.83C866.745 1369.87 901.946 1365.65 939.904 1361.43C1038.72 1350.66 1110.61 1348.34 1175.07 1317.93C1183.77 1313.71 1192.25 1309.07 1200.31 1303.79C1241.02 1277.61 1278.13 1236.43 1304.85 1182.8C1336.87 1117.99 1352.56 1036.06 1352.14 956.676C1351.71 885.733 1342.6 815.002 1341.53 742.582C1339.84 619.488 1364.22 490.06 1415.75 381.957C1445.02 320.516 1482.98 267.521 1527.93 222.126C1609.36 139.571 1714.54 83.408 1831.8 44.7697C1896.91 23.2336 1964.98 10.3541 2033.47 6.13135" stroke="#7069F3" stroke-miterlimit="10"/>
<path d="M-615.93 1742.95C-517.749 1745.07 -370.159 1738.73 -232.535 1737.04C-161.709 1735.99 -94.0638 1734.09 -32.1439 1723.11C31.2604 1711.92 85.5461 1692.91 143.437 1666.1C161.886 1657.44 179.911 1647.94 197.723 1636.96C266.429 1594.95 331.741 1555.04 417.199 1524C502.445 1492.97 577.088 1457.71 644.946 1432.37C661.274 1426.25 677.39 1421.6 693.082 1417.59C737.826 1405.98 780.449 1400.91 834.946 1398.38C868.027 1396.69 903.016 1392.89 940.125 1388.24C1037.46 1376 1109.13 1364.81 1170.2 1328.28C1178.47 1323.42 1186.53 1317.72 1194.17 1311.81C1232.34 1282.25 1266.26 1239.18 1290.65 1184.92C1319.91 1119.25 1333.91 1038.39 1334.55 959.842C1335.18 889.322 1328.4 818.169 1329.88 745.748C1332.21 622.655 1359.14 493.86 1412.37 387.235C1442.69 326.217 1481.5 274.065 1527.09 229.515C1609.58 148.649 1714.97 94.1755 1832.45 55.5373C1897.55 34.2123 1965.2 20.9106 2033.48 16.0544" stroke="#7662F4" stroke-miterlimit="10"/>
<path d="M-606.395 1761.53C-506.941 1773.78 -360.199 1772.3 -223.636 1768.08C-153.022 1765.97 -85.801 1761.11 -24.5173 1746.33C38.0388 1731.55 91.0522 1708.33 147.671 1678.35C165.695 1668.85 183.296 1658.29 200.472 1646.68C267.057 1601.91 330.25 1559.05 415.072 1526.96C498.833 1495.29 574.748 1462.99 644.09 1442.93C660.843 1438.07 677.383 1434.69 693.499 1431.95C739.303 1424.35 782.349 1422.24 836.847 1423.5C870.14 1424.14 904.705 1419.91 941.178 1414.63C1037.03 1401.12 1108.28 1380.64 1166.17 1338.41C1174.01 1332.71 1181.44 1326.38 1188.65 1319.83C1224.27 1286.9 1255.02 1241.92 1276.86 1187.03C1303.16 1120.52 1315.67 1040.5 1317.36 963.01C1318.85 892.912 1314.82 821.336 1318.42 748.916C1324.57 625.822 1354.47 497.661 1409.18 392.303C1440.78 331.707 1480.22 280.611 1526.45 236.906C1610 157.729 1715.6 104.944 1833.08 66.5171C1897.97 45.1922 1965.61 31.8905 2033.47 26.4009" stroke="#7C5BF5" stroke-miterlimit="10"/>
<path d="M-596.848 1780.11C-496.122 1802.49 -350.44 1805.45 -214.938 1799.33C-144.748 1795.74 -77.5264 1788.14 -17.0909 1769.98C44.829 1751.4 96.3582 1723.95 151.704 1691.01C169.305 1680.46 186.269 1669.27 203.022 1656.81C267.698 1609.09 328.77 1563.49 412.956 1530.55C495.021 1498.46 572.42 1469.11 643.247 1453.91C660.423 1450.32 677.387 1448.21 693.928 1446.94C740.58 1443.35 784.475 1447.36 838.973 1449.26C872.477 1450.53 906.83 1447.36 942.455 1441.87C1036.82 1426.88 1107.86 1397.53 1162.36 1349.39C1169.78 1342.85 1176.78 1335.88 1183.35 1328.7C1216.43 1292.6 1243.78 1245.51 1263.29 1189.98C1286.83 1122.63 1297.65 1043.66 1300.19 966.81C1302.74 896.923 1301.04 825.347 1307.19 752.505C1316.94 629.411 1349.81 501.883 1406.43 398.003C1439.09 337.829 1479.59 287.578 1526.24 244.928C1610.85 167.44 1716.45 116.134 1834.36 77.9178C1899.24 56.804 1966.47 43.08 2034.32 36.957" stroke="#8154F7" stroke-miterlimit="10"/>
<path d="M-587.52 1798.69C-485.521 1831.21 -340.9 1839.02 -206.246 1830.37C-136.268 1825.72 -69.4708 1815.16 -9.67143 1793.2C51.6123 1771.04 101.869 1739.36 155.731 1703.05C172.907 1691.65 189.448 1679.4 205.564 1666.31C268.332 1615.85 327.071 1567.29 410.832 1533.29C491.413 1500.78 570.085 1474.17 642.184 1464.25C659.784 1461.93 677.173 1461.3 694.137 1461.08C741.637 1460.45 786.381 1469.95 840.667 1474.17C874.383 1476.71 908.524 1474.17 943.301 1468.05C1036.18 1451.58 1106.79 1413.16 1158.11 1359.32C1165.11 1351.93 1171.68 1344.11 1177.83 1336.3C1208.16 1296.82 1232.54 1247.83 1249.72 1191.67C1270.29 1123.69 1279.62 1045.56 1283.22 969.554C1286.62 900.09 1287.68 828.092 1295.95 755.249C1309.73 632.156 1345.36 505.261 1403.46 402.859C1437.18 343.318 1478.53 293.701 1525.81 251.896C1611.27 176.097 1717.3 126.479 1835.41 88.2634C1900.09 67.3607 1967.1 53.4256 2034.74 46.6692" stroke="#874DF8" stroke-miterlimit="10"/>
<path d="M-577.984 1817.28C-474.926 1859.71 -331.153 1872.59 -197.559 1861.61C-128.005 1855.7 -61.4199 1842.19 -2.25676 1816.85C58.1787 1790.88 107.163 1754.99 159.753 1715.72C176.505 1703.26 192.409 1690.17 208.101 1676.45C268.961 1623.24 325.367 1571.51 408.492 1536.88C487.589 1503.74 567.533 1480.3 641.116 1475.23C659.141 1473.96 676.953 1474.6 694.13 1476.08C742.69 1480.3 787.858 1493.39 842.144 1499.93C876.072 1503.95 910.001 1501.83 943.93 1495.08C1035.33 1477.13 1105.73 1429.84 1153.65 1370.08C1160.23 1361.85 1166.37 1353.4 1171.89 1344.96C1199.67 1302.1 1220.87 1251.21 1235.5 1194.42C1253.11 1125.59 1260.95 1048.31 1265.62 973.356C1269.86 904.314 1273.67 832.105 1284.28 759.051C1301.88 635.957 1340.47 509.908 1400.06 408.772C1435.05 349.654 1477.03 300.881 1525.17 260.131C1611.69 186.022 1717.93 138.093 1836.04 99.8772C1900.72 78.9745 1967.52 64.8283 2034.74 57.4385" stroke="#8D46F9" stroke-miterlimit="10"/>
<path d="M-568.434 1835.64C-464.103 1888.22 -321.39 1905.74 -188.856 1892.65C-119.727 1885.47 -53.3535 1869.21 5.17348 1840.08C64.9728 1810.52 112.685 1770.4 163.79 1727.96C180.118 1714.66 195.386 1700.51 210.654 1686.16C269.393 1629.99 323.679 1575.52 406.38 1539.84C483.992 1506.27 564.997 1484.73 640.064 1485.79C658.513 1486 676.75 1487.48 694.35 1490.43C743.759 1498.67 789.775 1516.4 843.849 1525.06C877.777 1530.55 911.494 1528.65 944.786 1521.47C1034.7 1502.26 1104.68 1445.67 1149.42 1380.22C1155.57 1371.35 1161.08 1362.06 1166.17 1352.77C1191.41 1306.53 1209.22 1253.75 1221.52 1196.32C1236.36 1126.64 1242.51 1050.42 1248.24 976.1C1253.54 907.48 1259.69 834.848 1272.83 761.794C1294.46 638.701 1335.81 513.285 1397.1 413.628C1433.15 354.931 1476.19 307.214 1524.76 267.098C1612.33 194.677 1718.78 148.438 1837.11 110.433C1901.58 89.7414 1968.16 75.384 2035.38 67.1497" stroke="#9240FB" stroke-miterlimit="10"/>
<path d="M-558.895 1854.22C-453.291 1916.93 -311.639 1939.31 -179.953 1923.69C-111.036 1915.45 -45.0868 1896.03 12.804 1863.51C71.9672 1830.15 118.195 1785.82 168.028 1740.42C183.72 1726.06 198.776 1711.28 213.407 1696.08C270.238 1637.17 322.403 1579.74 404.256 1543.22C480.384 1509.22 562.661 1491.49 639.213 1496.77C658.086 1498.03 676.534 1500.99 694.771 1505.42C745.24 1517.46 791.68 1539.84 845.754 1550.82C879.894 1557.79 913.399 1556.31 945.843 1548.71C1034.27 1528.02 1103.82 1462.56 1145.39 1391.2C1151.11 1381.49 1156.2 1371.56 1160.65 1361.64C1183.34 1312.02 1197.98 1257.34 1207.73 1199.27C1219.61 1128.75 1224.48 1053.59 1231.06 980.112C1237.42 911.703 1246.11 838.86 1261.38 765.807C1286.83 642.713 1331.15 518.141 1393.91 419.751C1431.24 361.688 1474.92 314.604 1524.12 275.544C1612.75 204.812 1719.42 160.262 1837.96 122.257C1902.21 101.566 1968.58 87.2084 2035.59 78.3406" stroke="#9839FC" stroke-miterlimit="10"/>
<path d="M-549.57 1872.8C-442.695 1945.65 -302.103 1972.88 -171.477 1954.94C-102.984 1945.44 -37.2469 1923.27 20.0077 1886.95C78.3227 1850 123.278 1801.44 171.839 1752.88C187.107 1737.68 201.526 1721.84 215.734 1706.01C270.444 1644.35 320.489 1584.18 401.918 1546.6C476.561 1512.39 559.898 1497.4 637.934 1507.54C657.231 1510.07 676.104 1514.29 694.553 1519.99C745.87 1535.83 793.158 1563.07 847.02 1576.16C881.373 1584.6 914.665 1583.33 946.261 1575.31C1033.2 1552.93 1102.33 1478.61 1140.72 1401.54C1146.02 1390.99 1150.68 1380.22 1154.71 1369.66C1174.86 1316.88 1186.31 1260.08 1193.73 1201.39C1202.85 1130.02 1206.03 1055.7 1213.66 983.28C1220.87 915.293 1232.32 842.239 1249.92 768.974C1279.4 645.67 1326.47 521.943 1390.73 425.03C1429.11 367.389 1473.64 321.15 1523.47 282.934C1613.17 213.892 1720.05 171.031 1838.59 133.026C1902.84 112.546 1969 97.7659 2035.58 88.2646" stroke="#9D32FE" stroke-miterlimit="10"/>
<path d="M-540.023 1891.38C-375.045 2017.86 -136.272 2026.09 27.4341 1910.39C85.1129 1869.64 128.584 1816.85 175.872 1765.33C248.607 1685.95 298.015 1598.11 399.59 1549.76C490.773 1506.27 599.981 1498.46 694.769 1534.56C747.147 1554.41 794.859 1586.08 848.721 1601.49C991.858 1642.24 1110.82 1500.36 1148.99 1378.11C1188.01 1253.54 1180.37 1117.56 1196.28 986.869C1218.12 805.923 1282.16 582.961 1387.55 430.519C1498.46 270.265 1654.74 203.123 1839.44 144.427C1903.48 123.947 1969.43 109.167 2036.01 99.0322" stroke="#A32BFF" stroke-miterlimit="10"/>
</g>
<g filter="url(#filter0_f_202_888)">
<ellipse cx="245.152" cy="1852" rx="262.5" ry="72" fill="#030416"/>
</g>
<g filter="url(#filter1_f_202_888)">
<ellipse cx="1658.15" cy="138" rx="262.5" ry="72" fill="#030416"/>
</g>
<g filter="url(#filter2_f_202_888)">
<ellipse cx="1186.15" cy="138" rx="262.5" ry="72" fill="#030416"/>
</g>
</g>
<defs>
<filter id="filter0_f_202_888" x="-93.3477" y="1704" width="677" height="296" filterUnits="userSpaceOnUse" color-interpolation-filters="sRGB">
<feFlood flood-opacity="0" result="BackgroundImageFix"/>
<feBlend mode="normal" in="SourceGraphic" in2="BackgroundImageFix" result="shape"/>
<feGaussianBlur stdDeviation="38" result="effect1_foregroundBlur_202_888"/>
</filter>
<filter id="filter1_f_202_888" x="1319.65" y="-10" width="677" height="296" filterUnits="userSpaceOnUse" color-interpolation-filters="sRGB">
<feFlood flood-opacity="0" result="BackgroundImageFix"/>
<feBlend mode="normal" in="SourceGraphic" in2="BackgroundImageFix" result="shape"/>
<feGaussianBlur stdDeviation="38" result="effect1_foregroundBlur_202_888"/>
</filter>
<filter id="filter2_f_202_888" x="847.652" y="-10" width="677" height="296" filterUnits="userSpaceOnUse" color-interpolation-filters="sRGB">
<feFlood flood-opacity="0" result="BackgroundImageFix"/>
<feBlend mode="normal" in="SourceGraphic" in2="BackgroundImageFix" result="shape"/>
<feGaussianBlur stdDeviation="38" result="effect1_foregroundBlur_202_888"/>
</filter>
</defs>
</svg>
