<svg width="1920" height="1415" viewBox="0 0 1920 1415" fill="none" xmlns="http://www.w3.org/2000/svg">
<g opacity="0.2">
<g clip-path="url(#clip0_65_461)">
<mask id="mask0_65_461" style="mask-type:luminance" maskUnits="userSpaceOnUse" x="-94" y="0" width="2122" height="1415">
<path d="M2027.62 0.884552H-93.1445V1414.73H2027.62V0.884552Z" fill="white"/>
</mask>
<g mask="url(#mask0_65_461)">
<path d="M-83.6016 1729.48C-34.4705 1556.64 158.519 1399.18 356.987 1369.66C451.008 1355.7 547.679 1366.66 637.105 1326.01C733.953 1281.83 794.925 1188.34 824.792 1099.79C854.66 1011.25 862.083 921.65 895.308 833.461C928.533 745.273 997.105 653.196 1096.78 617.143C1166.59 591.871 1239.58 598.233 1310.27 578.263C1407.3 550.869 1487.71 477.526 1548.86 401.532C1609.83 325.538 1658.43 243.005 1727.18 171.606C1828.62 66.2749 1972.83 -9.36574 2117.22 -32.8709" stroke="#C7E7F2" stroke-miterlimit="10"/>
<path d="M-100.926 1693.08C-64.1659 1571.84 42.0491 1458.38 171.062 1390.69C224.965 1362.41 283.109 1342.09 341.784 1333.08C400.458 1324.06 460.193 1324.95 517.984 1318.41C553.33 1314.52 587.792 1307.81 621.194 1294.2C678.632 1270.69 723.521 1230.4 757.984 1182.5C780.782 1150.87 798.455 1116.05 811.533 1081.77C828.322 1037.41 839.103 991.988 850.414 946.745C861.017 904.507 871.975 862.091 888.941 820.206C903.609 784.153 924.11 747.57 950.266 714.698C987.38 668.218 1035.8 629.337 1094.12 609.367C1132.65 596.289 1171.89 592.577 1211.3 588.866C1243.64 585.862 1275.8 582.857 1307.61 574.904C1365.23 560.236 1417.01 530.368 1462.78 493.255C1494.07 467.983 1522.52 439.352 1547.97 410.015C1585.26 367.07 1618.13 321.473 1653.65 276.76C1677.69 246.539 1702.61 216.495 1730.88 188.218C1771.89 147.04 1818.9 109.927 1869.62 78.6456C1947.03 30.5749 2032.74 -4.24097 2118.28 -21.0304" stroke="#C7E7F2" stroke-miterlimit="10"/>
<path d="M-118.242 1656.85C-79.3615 1536.32 27.0302 1423.39 155.867 1355.17C209.769 1326.54 267.56 1305.86 326.411 1296.49C385.086 1287.13 445.351 1287.66 502.965 1282.53C538.311 1279.35 572.42 1274.23 605.292 1262.39C662.022 1241.88 706.205 1205.66 741.904 1160.59C765.409 1130.9 783.966 1097.32 798.105 1063.92C816.308 1020.8 828.325 976.436 840.873 931.9C852.537 890.368 864.555 848.483 882.405 807.305C897.78 771.782 918.988 735.729 945.851 703.564C984.025 658.144 1032.98 620.678 1091.48 601.944C1130.18 589.573 1169.59 586.392 1208.83 583.564C1241.17 581.267 1273.33 578.969 1305.14 571.723C1362.76 558.822 1414.54 531.429 1460.84 496.79C1492.3 473.108 1521.29 446.422 1547.26 418.675C1585.44 378.204 1619.37 334.551 1655.95 291.252C1680.7 261.915 1706.32 232.755 1734.78 204.831C1776.31 164.36 1823.67 127.247 1874.22 95.4351C1951.45 46.6575 2035.57 10.0743 2119.87 -9.18932" stroke="#C7E7F2" stroke-miterlimit="10"/>
<path d="M-135.562 1620.44C-94.3843 1500.44 12.1841 1388.22 140.667 1319.47C194.393 1290.66 252.184 1269.45 311.035 1259.73C369.886 1250.01 430.328 1250.37 487.765 1246.66C523.288 1244.36 556.867 1240.65 589.209 1230.57C645.055 1213.08 688.885 1181.09 725.821 1138.5C750.033 1110.57 769.474 1078.23 784.672 1045.89C804.113 1004.18 817.721 960.53 831.152 916.701C844.054 875.7 856.955 834.521 875.688 793.873C891.948 758.704 913.862 723.535 941.256 692.077C980.313 647.717 1029.97 611.841 1088.65 594.168C1127.35 582.681 1166.94 580.03 1206.17 577.732C1238.52 575.965 1270.68 574.374 1302.32 568.189C1359.75 557.055 1411.89 532.136 1458.37 500.148C1490.18 478.233 1519.52 453.314 1546.2 427.158C1585.08 388.984 1620.25 347.453 1657.9 305.568C1683.35 277.291 1709.5 248.837 1738.31 221.267C1780.55 181.326 1828.09 144.389 1878.28 112.224C1955.16 62.74 2038.04 24.2128 2120.75 2.6517" stroke="#C7E7F2" stroke-miterlimit="10"/>
<path d="M-152.883 1584.03C-109.584 1464.57 -2.83876 1353.05 125.644 1283.77C179.37 1254.79 236.984 1233.23 296.012 1223.15C354.863 1213.08 415.836 1213.43 472.919 1210.78C508.442 1209.19 541.667 1206.89 573.479 1198.59C628.442 1184.27 671.918 1156.35 709.915 1116.41C734.834 1090.43 755.334 1059.32 771.417 1027.69C792.094 987.217 806.94 944.448 821.785 901.502C835.57 861.208 849.708 820.383 869.326 780.619C886.292 745.98 908.913 711.34 937.013 680.766C976.954 637.467 1027.32 603.005 1086.17 586.392C1125.05 575.612 1164.64 573.668 1203.7 572.077C1236.04 570.84 1268.03 570.133 1299.66 564.831C1357.1 555.464 1409.24 533.02 1456.25 503.506C1488.24 483.358 1518.1 460.207 1545.5 435.641C1585.26 399.942 1621.31 360.354 1660.02 319.883C1686 292.49 1712.86 264.743 1742.2 237.88C1785.14 198.646 1832.86 161.532 1882.7 129.014C1959.4 78.6458 2040.87 38.528 2122.17 14.4927" stroke="#C7E7F2" stroke-miterlimit="10"/>
<path d="M-170.203 1547.63C-124.783 1428.69 -17.8616 1317.88 110.445 1248.07C163.994 1218.91 221.608 1196.82 280.636 1186.39C339.664 1175.96 400.813 1176.14 457.72 1174.9C493.243 1174.2 526.114 1173.31 557.572 1166.77C611.829 1155.46 654.597 1131.61 694.008 1094.49C719.457 1070.28 741.019 1040.59 758.161 1009.84C780.253 970.78 796.512 928.719 812.418 886.657C827.44 847.069 842.462 806.775 862.962 767.541C880.812 733.432 904.141 699.323 932.771 669.455C973.772 627.217 1024.67 594.168 1083.7 578.793C1122.76 568.719 1162.34 567.482 1201.4 566.598C1233.74 566.068 1265.73 565.891 1297.37 561.65C1354.63 554.05 1406.94 534.08 1454.3 507.04C1486.64 488.66 1516.86 467.276 1544.79 444.301C1585.44 410.899 1622.55 373.432 1662.31 334.374C1689 308.042 1716.39 281.002 1746.08 254.492C1789.74 215.788 1837.63 178.852 1887.11 145.98C1963.46 94.9049 2043.52 53.0198 2123.58 26.5102" stroke="#C7E7F2" stroke-miterlimit="10"/>
<path d="M-187.699 1511.4C-140.159 1393.17 -33.0602 1282.89 95.2461 1212.55C148.795 1183.21 206.056 1160.59 265.261 1149.99C324.289 1139.38 385.967 1138.32 442.521 1139.2C478.044 1139.91 510.562 1139.91 541.49 1135.14C594.863 1126.83 637.101 1107.22 677.749 1072.58C703.905 1050.31 726.35 1021.68 744.553 991.988C767.882 954.345 785.555 913.166 802.521 871.635C818.603 832.754 834.686 792.99 856.247 754.463C874.98 720.884 898.839 687.305 928.176 658.321C970.061 616.966 1021.67 585.508 1080.87 571.37C1120.11 562.18 1159.69 561.12 1198.75 561.296C1231.09 561.473 1263.08 561.826 1294.54 558.469C1351.8 552.46 1404.11 535.14 1452.01 510.751C1484.52 494.139 1515.45 474.522 1543.9 453.137C1585.26 422.033 1623.61 386.687 1664.43 349.22C1691.83 323.947 1719.75 297.438 1749.8 271.459C1793.98 233.285 1842.23 196.348 1891.36 163.123C1967.53 111.164 2046.17 67.5117 2124.64 38.7047" stroke="#C7E7F2" stroke-miterlimit="10"/>
<path d="M-205.016 1474.99C-155.354 1357.29 -47.9024 1247.72 80.0504 1176.85C133.423 1147.33 190.684 1124.18 250.065 1113.23C309.27 1102.27 371.302 1101.91 427.502 1103.33C463.202 1104.21 495.013 1106.33 525.588 1103.15C578.077 1097.85 619.785 1082.47 661.67 1050.49C688.533 1029.99 711.685 1002.77 731.302 973.962C755.867 937.555 774.954 897.261 793.157 856.613C810.3 818.262 827.62 779.205 849.888 741.208C869.328 707.983 893.894 675.111 923.938 646.834C966.706 606.539 1019.02 576.495 1078.4 563.417C1117.81 554.934 1157.58 554.757 1196.46 555.464C1228.8 555.995 1260.61 557.408 1292.07 554.934C1349.15 550.693 1401.64 535.847 1449.89 513.933C1482.58 499.087 1514.04 481.238 1543.2 461.444C1585.44 432.813 1624.67 399.411 1666.56 363.358C1694.66 338.97 1723.11 313.344 1753.51 287.895C1798.4 250.428 1846.82 213.491 1895.6 179.912C1971.6 127.247 2048.83 81.827 2125.88 50.5457" stroke="#C7E7F2" stroke-miterlimit="10"/>
<path d="M-222.336 1438.59C-170.377 1321.41 -62.9252 1212.72 64.8509 1140.97C118.047 1111.1 175.307 1087.78 234.689 1076.29C294.07 1064.98 356.279 1064.45 412.303 1067.28C448.002 1069.04 479.46 1072.4 509.504 1071.16C561.286 1069.04 602.288 1057.73 645.587 1028.22C672.98 1009.66 697.192 983.505 717.87 955.759C743.672 920.766 764.173 881.178 783.613 841.414C801.993 803.77 820.196 765.243 843.348 727.953C863.672 695.258 888.944 663.093 919.519 635.523C963.348 596.289 1016.37 567.659 1075.75 555.818C1115.34 548.042 1155.1 548.395 1193.8 549.986C1226.15 551.223 1257.96 553.167 1289.24 551.753C1346.32 549.102 1398.63 536.908 1447.59 517.467C1480.64 504.389 1512.45 488.307 1542.14 469.927C1585.09 443.594 1625.56 412.313 1668.5 377.674C1697.31 354.345 1726.29 329.249 1757.22 304.331C1802.64 267.394 1851.24 230.634 1899.84 196.525C1975.48 143.152 2051.3 95.9655 2126.94 62.0332" stroke="#C7E7F2" stroke-miterlimit="10"/>
<path d="M-239.656 1402.18C-185.577 1285.54 -77.948 1177.55 49.8281 1105.27C103.024 1075.23 160.108 1051.37 219.489 1039.71C278.871 1028.04 341.61 1027.51 397.28 1031.4C432.979 1033.87 464.084 1038.82 493.598 1039.35C544.496 1040.24 584.968 1032.99 629.504 1006.3C657.427 989.514 682.699 964.772 704.437 937.732C731.477 903.976 753.392 865.273 774.069 826.215C793.509 789.278 812.773 751.281 836.808 714.698C858.016 682.533 883.818 650.899 915.1 624.212C959.813 586.039 1013.54 558.822 1073.1 548.042C1112.68 540.972 1152.63 542.033 1191.33 544.153C1223.67 545.921 1255.48 548.572 1286.76 548.218C1343.85 547.335 1396.16 537.614 1445.47 520.648C1478.69 509.338 1510.86 495.022 1541.43 478.233C1585.26 454.374 1626.79 425.037 1670.62 391.812C1700.14 369.367 1729.83 345.155 1760.93 320.59C1807.06 284.36 1855.84 247.423 1904.26 213.138C1979.72 158.881 2054.13 109.927 2128.35 73.6973" stroke="#C7E7F2" stroke-miterlimit="10"/>
<path d="M-256.977 1365.77C-200.776 1249.84 -92.9708 1142.39 34.6285 1069.57C87.6476 1039.35 144.555 1014.96 204.29 1002.95C263.848 990.928 326.764 990.221 382.257 995.523C417.957 998.881 448.708 1005.24 477.868 1007.36C528.06 1011.25 567.647 1008.25 613.597 984.212C642.051 969.367 668.383 945.685 691.182 919.706C719.459 887.364 742.787 849.367 764.525 811.193C785.202 774.963 805.349 737.497 830.268 701.444C852.183 669.809 878.692 638.704 910.681 612.725C956.277 575.435 1010.71 549.809 1070.27 540.265C1110.03 533.903 1149.97 535.67 1188.68 538.498C1221.02 540.972 1252.65 544.33 1283.94 544.684C1340.84 545.567 1393.33 538.321 1443.17 524.006C1476.57 514.286 1509.27 501.915 1540.55 486.716C1585.08 465.155 1627.68 437.939 1672.74 406.304C1702.96 384.92 1733.18 361.414 1764.64 337.202C1811.48 301.503 1860.61 264.743 1908.5 229.927C1983.79 175.141 2056.78 124.242 2129.41 85.5383" stroke="#C7E7F2" stroke-miterlimit="10"/>
<path d="M-274.293 1329.54C-215.972 1214.14 -107.99 1107.39 19.6096 1034.05C72.6287 1003.65 129.359 978.91 189.094 966.539C248.652 954.168 312.098 953.461 367.238 959.823C403.114 964.065 433.335 971.664 461.966 975.729C511.273 982.622 550.331 983.682 597.695 962.298C626.855 949.22 654.072 926.951 677.93 901.856C707.444 870.751 732.363 833.815 755.161 796.171C776.899 760.472 798.107 723.535 823.909 688.366C846.708 657.261 873.924 626.863 906.442 601.591C953.099 565.361 1008.06 541.149 1067.8 532.843C1107.74 527.364 1147.68 529.485 1186.38 533.196C1218.72 536.201 1250.36 540.266 1281.46 541.679C1338.37 544.33 1390.86 539.559 1441.05 527.718C1474.81 519.765 1507.86 508.984 1539.84 495.553C1585.26 476.289 1628.92 451.193 1675.04 420.973C1705.79 400.649 1736.72 377.674 1768.71 354.168C1816.25 318.999 1865.38 282.416 1913.1 247.07C1988.21 191.4 2059.61 138.911 2131.01 97.7327" stroke="#C7E7F2" stroke-miterlimit="10"/>
<path d="M-291.617 1293.14C-231.175 1178.26 -122.84 1072.22 4.40612 998.35C57.2485 967.776 113.979 942.504 173.714 929.779C233.449 917.054 297.248 916.171 352.035 923.947C387.911 929.072 417.778 938.085 445.879 943.741C494.303 953.638 532.653 958.94 581.431 940.206C611.121 928.895 639.222 907.864 664.317 883.829C695.068 854.138 721.401 817.909 745.436 781.149C768.235 746.156 790.679 709.75 817.189 675.111C840.871 644.36 868.618 614.669 901.843 590.103C949.383 554.934 1005.05 532.136 1064.97 524.89C1105.08 520.118 1145.2 522.946 1183.73 527.364C1216.07 531.075 1247.7 535.847 1278.63 538.145C1335.36 542.386 1388.03 540.089 1438.75 530.899C1472.68 524.713 1506.26 515.7 1538.78 503.859C1584.91 487.07 1629.8 463.918 1676.81 435.111C1708.26 415.67 1739.72 393.579 1772.06 370.428C1820.13 335.965 1869.62 299.382 1916.98 263.682C1991.74 207.305 2061.9 152.873 2131.71 109.397" stroke="#C7E7F2" stroke-miterlimit="10"/>
<path d="M-308.938 1256.73C-246.375 1142.56 -137.863 1037.05 -10.7934 962.651C42.049 931.9 98.6026 906.097 158.514 893.019C218.249 879.941 282.402 879.057 337.012 888.071C372.888 893.903 402.402 904.507 429.972 911.929C477.689 925.007 515.156 934.197 565.524 918.292C595.745 908.748 624.906 889.131 651.062 865.803C683.05 837.349 710.797 802.003 735.892 766.127C759.928 731.841 783.256 695.965 810.826 662.033C835.215 631.812 863.845 602.651 897.601 578.969C946.201 544.86 1002.4 523.476 1062.49 517.467C1102.78 513.402 1142.9 516.937 1181.25 522.062C1213.59 526.304 1245.23 531.782 1276.16 535.14C1332.89 541.149 1385.55 541.326 1436.63 534.61C1470.74 530.192 1504.85 522.946 1538.07 512.695C1584.9 498.203 1630.85 477.173 1679.1 449.779C1711.27 431.399 1743.26 409.838 1775.95 387.217C1824.73 353.285 1874.39 316.701 1921.4 280.648C1995.98 223.565 2064.73 167.364 2133.12 121.414" stroke="#C7E7F2" stroke-miterlimit="10"/>
<path d="M-326.43 1220.32C-261.57 1106.69 -153.057 1001.89 -25.9881 926.952C26.6775 895.847 83.0545 869.691 143.143 856.436C203.054 843.005 267.561 841.944 321.817 852.195C357.693 858.91 386.854 870.751 413.894 880.118C460.727 896.2 497.487 909.455 549.269 896.2C580.02 888.424 610.241 870.044 637.634 847.776C670.86 820.737 700.02 786.097 726.353 750.928C751.449 717.349 775.838 682.003 804.291 648.601C829.564 618.911 858.724 590.28 893.186 567.482C942.671 534.433 999.578 514.463 1059.84 509.691C1100.31 506.51 1140.43 510.398 1178.78 516.23C1211.12 521.179 1242.58 527.364 1273.51 531.606C1330.24 539.382 1382.73 542.033 1434.51 537.968C1468.97 535.317 1503.44 529.838 1537.37 521.179C1584.91 508.984 1632.1 490.074 1681.4 464.095C1714.28 446.598 1746.97 425.921 1779.84 403.653C1829.33 370.428 1879.17 333.844 1925.82 297.438C2000.23 239.47 2067.38 181.68 2134.36 133.079" stroke="#C7E7F2" stroke-miterlimit="10"/>
<path d="M-343.75 1183.92C-276.769 1070.81 -168.08 966.716 -41.1877 891.252C11.3013 859.971 67.6782 833.461 127.767 819.676C187.855 806.068 252.715 804.831 306.794 816.319C342.847 823.918 371.478 837.173 398.164 848.13C444.114 867.217 480.167 884.36 533.363 874.109C564.644 868.1 595.749 851.134 624.379 829.75C658.841 803.947 689.592 770.369 716.986 735.906C743.318 703.034 768.591 668.218 797.928 635.523C824.084 606.363 853.952 578.439 888.944 556.171C939.489 524.183 996.926 505.627 1057.37 501.915C1097.84 499.441 1138.13 504.036 1176.48 510.575C1208.83 516.054 1240.28 522.946 1271.04 528.071C1327.59 537.615 1380.25 542.74 1432.39 541.149C1467.03 540.089 1502.02 536.554 1536.48 529.485C1584.91 519.588 1633.16 502.799 1683.35 478.41C1716.93 461.974 1750.15 442.004 1783.55 420.266C1833.74 387.571 1883.76 351.164 1930.06 314.228C2004.11 255.553 2070.03 195.818 2135.6 144.92" stroke="#C7E7F2" stroke-miterlimit="10"/>
<path d="M-361.07 1147.69C-291.969 1035.11 -182.926 931.723 -56.3872 855.729C-3.89829 824.271 52.302 797.231 112.39 783.27C172.479 769.308 237.692 768.071 291.595 780.619C327.648 789.102 355.925 803.77 382.081 816.495C427.324 838.586 462.67 859.794 517.28 852.194C549.091 847.776 581.256 832.224 610.947 811.9C646.646 787.334 678.811 754.639 707.441 720.884C734.835 688.542 761.344 654.433 791.388 622.445C818.428 593.815 848.826 566.421 884.348 545.037C935.777 514.109 993.921 496.966 1054.54 494.492C1095.19 492.725 1135.48 498.027 1173.83 505.273C1206.17 511.458 1237.63 519.058 1268.38 525.066C1324.94 536.377 1377.6 543.8 1430.27 544.86C1465.08 545.567 1500.61 543.623 1535.78 538.321C1584.91 530.722 1634.22 516.053 1685.64 493.078C1719.93 477.703 1753.68 458.262 1787.44 437.055C1838.16 405.067 1888.53 368.483 1934.66 331.37C2008.53 271.812 2073.04 210.486 2137.01 157.114" stroke="#C7E7F2" stroke-miterlimit="10"/>
<path d="M-378.391 1111.28C-307.168 999.411 -197.949 896.554 -71.41 820.03C-19.0978 788.395 37.1025 760.825 97.3675 746.51C157.633 732.194 223.2 730.781 276.749 744.742C312.802 754.109 340.725 770.015 366.351 784.683C410.71 809.779 445.35 834.875 501.373 830.28C533.715 827.629 566.763 813.314 597.691 793.873C634.628 770.722 668.207 738.734 697.897 705.862C726.528 674.227 753.921 640.648 784.849 609.19C812.595 580.913 843.877 554.227 879.93 533.55C932.418 503.682 991.27 488.13 1051.89 486.716C1092.71 485.832 1133.01 491.665 1171.18 499.617C1203.52 506.333 1234.8 514.639 1265.56 521.709C1321.93 534.61 1374.77 544.684 1427.79 548.395C1462.96 550.869 1498.66 550.692 1534.72 546.981C1584.55 541.679 1635.1 529.131 1687.59 507.57C1722.58 493.078 1756.87 474.522 1790.97 453.667C1842.4 422.386 1892.77 385.626 1938.72 348.159C2012.24 287.718 2075.33 224.802 2138.07 168.955" stroke="#C7E7F2" stroke-miterlimit="10"/>
<path d="M-395.711 1074.87C-322.368 963.535 -212.972 861.384 -86.6096 784.33C-34.2974 752.519 21.7261 724.595 81.9912 709.75C142.256 695.081 208.177 693.667 261.549 708.689C297.602 718.94 324.995 736.259 350.268 752.519C393.92 780.795 427.676 809.602 485.29 808.012C518.162 807.128 552.271 794.227 584.259 775.67C622.256 753.756 657.425 722.828 688.353 690.663C718.044 659.735 746.497 626.687 778.309 595.935C806.939 568.189 838.75 542.209 875.51 522.239C928.883 493.255 988.441 479.293 1049.24 478.94C1090.24 478.763 1130.71 485.126 1168.71 493.962C1201.05 501.385 1232.33 510.221 1262.9 518.351C1319.28 533.019 1372.12 545.567 1425.67 551.753C1461.02 555.818 1497.25 557.585 1533.83 555.288C1584.55 552.283 1636.16 541.856 1689.53 521.709C1725.23 508.277 1760.05 490.428 1794.68 470.104C1846.82 439.352 1897.37 402.769 1942.96 364.949C2016.13 303.8 2077.98 238.94 2139.31 180.796" stroke="#C7E7F2" stroke-miterlimit="10"/>
<path d="M-413.027 1038.47C-337.387 927.658 -227.991 826.215 -101.628 748.631C-49.493 716.466 6.35377 688.189 66.7955 673.167C127.237 658.145 193.511 656.731 246.53 672.99C282.76 684.124 309.623 702.857 334.365 720.884C377.134 752.165 410.183 787.688 469.211 786.097C502.613 785.214 537.782 775.317 570.831 757.821C610.065 737.143 646.825 707.099 678.813 675.641C709.564 645.42 739.255 612.902 771.95 582.681C801.464 555.464 833.982 530.015 871.272 510.928C925.705 483.005 985.793 470.634 1046.59 471.341C1087.77 472.048 1128.24 478.94 1166.24 488.307C1198.58 496.26 1229.86 505.98 1260.26 514.816C1316.46 531.429 1369.3 546.098 1423.38 554.934C1458.9 560.766 1495.66 564.124 1532.95 563.594C1584.38 562.887 1637.04 554.581 1691.65 535.847C1727.88 523.299 1763.58 506.157 1798.4 486.363C1851.24 456.319 1901.96 419.559 1947.21 381.385C2020.2 319.353 2080.64 252.902 2140.37 192.283" stroke="#C7E7F2" stroke-miterlimit="10"/>
<path d="M-430.348 1002.24C-352.586 891.959 -243.013 791.399 -116.828 713.108C-64.6926 680.766 -9.02246 651.959 51.5961 636.583C112.215 621.208 178.665 619.794 231.508 637.29C267.737 649.308 294.247 669.279 318.636 689.249C360.521 723.535 393.039 760.118 453.304 764.36C487.236 766.657 523.289 756.583 557.575 740.147C598.046 720.707 636.22 691.547 669.269 660.972C701.257 631.458 731.831 599.47 765.41 569.956C795.808 543.27 828.856 518.528 866.853 499.971C922.17 473.285 982.965 462.151 1043.94 463.918C1085.29 465.332 1125.76 472.931 1163.76 483.005C1196.1 491.665 1227.21 502.092 1257.78 511.812C1313.98 530.015 1366.82 547.335 1421.43 558.645C1457.13 566.068 1494.42 571.37 1532.42 572.43C1584.56 574.021 1638.46 567.835 1693.95 550.692C1730.89 539.205 1767.12 522.769 1802.29 503.329C1855.84 473.992 1906.73 437.232 1951.62 398.704C2024.26 335.965 2083.29 267.747 2141.79 204.654" stroke="#C7E7F2" stroke-miterlimit="10"/>
<path d="M-447.844 965.832C-367.962 856.259 -258.035 756.23 -132.203 677.408C-80.2446 644.89 -24.5746 615.553 36.0439 600C96.6624 584.271 163.643 582.857 216.132 601.414C252.362 614.315 278.518 635.7 302.377 657.261C343.555 694.551 375.189 735.022 437.045 742.091C471.507 746.156 508.621 737.32 544.144 721.767C585.852 703.564 625.439 675.464 659.725 645.597C692.774 616.79 724.409 585.332 758.871 556.348C789.975 530.192 823.908 505.98 862.435 488.307C918.812 462.681 980.137 452.961 1041.29 455.965C1082.64 458.086 1123.29 466.392 1161.29 477.173C1193.63 486.539 1224.73 497.497 1255.13 508.277C1311.33 528.248 1364.17 547.865 1419.14 562.003C1455.19 571.193 1492.83 578.086 1531.36 580.913C1584.38 584.801 1639.34 580.737 1695.9 565.008C1733.54 554.404 1770.3 538.851 1805.82 519.765C1860.08 490.958 1911.15 454.374 1955.69 415.317C2028.15 351.871 2085.76 281.886 2142.67 216.142" stroke="#C7E7F2" stroke-miterlimit="10"/>
<path d="M-465.164 929.426C-383.161 820.383 -273.058 721.061 -147.226 641.709C-95.2675 609.014 -39.7741 579.323 20.8444 563.24C81.6396 547.158 148.797 545.567 201.109 565.538C237.339 579.323 263.142 602.121 286.47 625.45C326.765 665.744 357.869 709.927 420.962 720.177C456.131 725.832 493.952 718.41 530.711 703.918C573.48 686.952 614.835 659.735 650.181 630.575C684.467 602.475 717.162 571.547 752.331 543.27C784.32 517.644 818.782 494.139 858.016 476.996C915.277 452.431 977.309 444.124 1038.63 448.366C1080.17 451.37 1120.81 460.207 1158.63 471.694C1190.98 481.591 1222.08 493.432 1252.3 505.096C1308.33 526.834 1361.34 548.925 1416.84 565.538C1453.07 576.495 1491.24 585.155 1530.48 589.573C1584.2 595.759 1640.22 593.815 1698.02 579.5C1736.37 569.956 1773.66 555.111 1809.71 536.554C1864.5 508.454 1915.75 471.694 1960.11 432.46C2032.39 368.13 2088.59 296.378 2144.08 228.336" stroke="#C7E7F2" stroke-miterlimit="10"/>
<path d="M-482.484 893.019C-398.361 784.507 -288.081 685.891 -162.426 605.832C-110.644 572.961 -55.3271 542.74 5.6449 526.304C66.4401 509.868 134.128 508.277 186.087 529.308C222.316 543.977 247.765 568.012 270.564 593.285C310.151 636.76 340.549 684.654 405.056 697.909C440.755 705.155 479.636 699.146 517.456 685.715C561.462 669.986 604.231 643.829 640.814 615.376C676.337 587.983 709.915 557.585 745.968 530.015C778.84 504.919 814.01 481.944 853.774 465.685C912.095 442.18 974.657 435.288 1036.16 440.59C1077.87 444.301 1118.52 453.844 1156.34 466.039C1188.68 476.643 1219.61 489.014 1250 501.738C1306.03 525.243 1359.05 549.632 1414.89 568.896C1451.48 581.444 1490 591.871 1529.94 598.056C1584.55 606.363 1641.64 606.716 1700.31 593.815C1739.37 585.332 1777.37 571.017 1813.6 552.99C1869.09 525.42 1920.52 488.837 1964.7 449.073C2036.63 384.036 2091.42 310.516 2145.5 240.001" stroke="#C7E7F2" stroke-miterlimit="10"/>
<path d="M-499.801 856.613C-413.38 748.808 -303.1 650.722 -177.445 570.133C-125.839 537.085 -70.5228 506.334 -9.55081 489.721C51.4212 473.108 119.286 471.341 171.068 493.609C207.297 509.161 232.393 534.61 254.838 561.473C293.542 607.954 323.409 659.736 389.153 675.818C425.383 684.831 465.324 680.06 504.204 667.688C549.447 653.196 593.63 627.924 631.273 600.177C667.857 573.491 702.496 543.624 739.432 516.584C773.188 492.018 808.887 469.574 849.359 454.198C908.563 431.577 971.833 426.275 1033.51 432.814C1075.4 437.232 1116.22 447.306 1153.87 460.207C1186.21 471.341 1217.13 484.596 1247.36 498.027C1303.2 523.3 1356.4 549.986 1412.77 572.077C1449.53 586.216 1488.59 598.587 1529.24 606.363C1584.56 616.967 1642.88 619.264 1702.61 607.954C1742.38 600.354 1780.9 586.923 1817.49 569.25C1873.69 542.387 1925.29 505.627 1969.12 465.686C2040.87 399.765 2094.25 324.655 2146.91 251.665" stroke="#C7E7F2" stroke-miterlimit="10"/>
<path d="M-517.125 820.383C-428.583 713.108 -317.95 615.729 -192.648 534.61C-141.043 501.208 -85.903 470.28 -24.931 453.137C36.041 436.171 104.259 434.581 155.864 457.732C192.094 474.168 216.836 501.031 238.751 529.661C276.571 579.146 305.908 634.639 372.889 653.903C409.826 664.507 450.474 661.149 490.591 649.838C537.072 636.583 582.845 612.195 621.549 585.332C659.192 559.175 695.068 530.015 732.712 503.682C767.351 479.647 803.758 457.732 844.759 443.064C904.847 421.502 969 417.614 1030.68 425.391C1072.74 430.692 1113.57 441.296 1151.21 454.905C1183.55 466.745 1214.48 480.53 1244.52 495.022C1300.37 521.885 1353.57 551.223 1410.3 575.788C1447.41 591.694 1486.82 605.655 1528 615.199C1584.2 627.924 1643.4 632.519 1704.38 622.798C1744.85 616.259 1783.9 603.535 1821.02 586.215C1877.92 559.882 1929.71 523.299 1973.18 482.828C2044.76 416.201 2096.72 339.146 2147.79 263.859" stroke="#C7E7F2" stroke-miterlimit="10"/>
<path d="M-534.441 783.977C-443.779 677.232 -332.969 580.56 -207.844 498.911C-156.415 465.332 -101.275 433.874 -40.1266 416.554C21.0221 399.235 89.5935 397.467 140.845 422.033C239.991 469.397 249.004 596.996 356.986 631.989C437.929 658.321 537.782 619.087 612.185 570.31C686.589 521.532 753.393 460.914 840.521 431.753C943.378 397.291 1056.13 413.903 1148.74 449.249C1241.35 484.596 1320.17 537.438 1408.18 579.146C1496.19 620.678 1599.22 651.606 1706.5 636.937C1810.77 622.799 1906.2 566.952 1977.43 499.441C2048.65 431.93 2099.19 353.285 2149.03 275.524" stroke="#C7E7F2" stroke-miterlimit="10"/>
<path d="M-518.715 774.256C-429.289 668.572 -320.247 572.784 -197.066 491.311C-144.4 456.495 -87.6695 424.33 -25.107 407.188C35.6883 390.575 103.376 389.161 154.274 413.373C252.36 460.03 263.67 584.271 370.239 619.264C435.099 640.648 511.8 620.501 578.25 587.099C593.979 579.146 609.178 570.486 623.493 561.473C697.72 514.463 764.347 455.081 850.769 425.921C909.443 406.127 971.122 402.416 1030.5 409.132C1074.16 414.08 1116.39 424.507 1155.27 438.469C1247 471.164 1325.47 520.648 1412.77 560.236C1437.87 571.547 1464.2 581.974 1491.42 590.987C1559.28 613.255 1632.98 625.803 1708.62 616.436C1722.05 614.846 1735.3 612.371 1748.38 609.544C1836.04 589.75 1915.75 542.386 1978.13 485.656C2049.35 420.619 2100.96 343.565 2150.44 266.51" stroke="#C7E7F2" stroke-miterlimit="10"/>
<path d="M-502.809 764.536C-414.62 659.735 -307.345 564.831 -186.108 483.712C-132.382 447.659 -73.884 414.61 -9.73089 397.821C50.7109 381.915 117.515 380.678 168.237 404.536C265.438 450.31 279.046 571.547 384.024 606.362C448.177 627.747 523.995 609.19 590.092 577.025C605.821 569.426 620.843 561.12 635.158 552.283C709.032 506.863 775.659 449.072 861.196 419.735C919.164 399.765 980.136 395.346 1038.81 400.825C1081.76 404.89 1123.64 414.257 1162.17 426.981C1252.83 456.849 1330.95 503.152 1417.72 540.442C1442.64 551.046 1468.8 561.119 1495.83 569.603C1563.52 590.81 1636.34 603.535 1711.27 594.875C1724.52 593.461 1737.6 591.164 1750.5 588.513C1837.1 570.133 1916.63 525.42 1979.19 470.634C2050.59 408.071 2103.26 332.43 2152.21 256.083" stroke="#C7E7F2" stroke-miterlimit="10"/>
<path d="M-487.078 754.639C-400.127 650.899 -294.796 556.701 -175.503 475.935C-120.716 438.822 -60.2743 404.89 5.11589 388.277C65.2042 373.078 131.125 372.195 181.493 395.7C277.634 440.766 293.54 558.645 397.28 593.461C460.903 614.846 535.66 597.703 601.581 567.128C617.133 559.882 632.155 551.753 646.47 543.27C719.99 499.441 786.794 443.064 871.271 413.726C928.709 393.756 988.797 388.631 1046.76 392.872C1089.18 396.053 1130.53 404.36 1168.71 415.847C1258.49 443.064 1336.25 486.009 1422.14 521.178C1447.06 531.252 1472.86 540.619 1499.72 548.748C1567.06 568.896 1639.16 581.62 1713.21 574.021C1726.29 572.784 1739.37 570.84 1752.1 568.189C1837.81 551.223 1916.81 509.161 1979.72 456.318C2051.3 396.23 2104.85 322.18 2153.45 246.539" stroke="#C7E7F2" stroke-miterlimit="10"/>
<path d="M-471.172 744.919C-385.458 642.239 -281.894 548.748 -164.545 468.159C-108.521 429.809 -46.4889 394.993 20.4919 378.734C80.2268 364.242 145.264 363.535 195.278 386.687C290.536 430.869 308.562 545.744 410.889 580.383C473.982 601.768 547.679 586.215 613.422 556.878C628.975 549.986 643.997 542.209 658.135 534.08C731.301 491.841 798.105 436.878 881.699 407.364C938.429 387.394 997.811 381.385 1055.07 384.389C1096.96 386.687 1137.78 393.933 1175.42 404.183C1264.14 428.572 1341.55 468.513 1426.91 501.208C1451.65 510.575 1477.46 519.411 1503.97 527.187C1570.95 546.451 1642.35 558.999 1715.51 552.283C1728.59 551.046 1741.32 549.455 1754.04 547.158C1838.87 531.782 1917.34 492.195 1980.61 441.296C2052.18 383.506 2106.79 311.223 2155.04 236.289" stroke="#C7E7F2" stroke-miterlimit="10"/>
<path d="M-455.441 735.199C-370.964 633.403 -269.344 540.796 -153.763 460.56C-96.6788 420.973 -32.8792 385.273 35.6922 369.367C95.0736 355.582 159.227 355.229 208.888 378.027C303.262 421.503 323.409 533.02 424.499 567.659C486.885 589.22 559.874 574.905 625.265 546.981C640.64 540.266 655.662 533.02 669.801 525.067C742.79 484.596 809.418 430.87 892.304 401.356C948.504 381.385 1007 374.493 1063.56 376.437C1104.73 377.85 1145.03 384.036 1182.5 393.049C1270.33 414.434 1347.21 451.547 1432.04 481.945C1456.6 490.781 1482.23 499.088 1508.56 506.333C1575.19 524.713 1646.06 537.084 1718.34 531.429C1731.24 530.369 1743.97 528.955 1756.52 526.834C1840.29 512.872 1918.4 475.936 1981.85 426.805C2053.6 371.488 2109.27 300.796 2156.99 226.569" stroke="#C7E7F2" stroke-miterlimit="10"/>
<path d="M-439.715 725.479C-356.475 624.743 -256.622 532.666 -143.161 452.961C-85.017 411.959 -19.4501 375.73 50.5351 360.001C109.563 346.746 172.656 346.923 222.14 369.367C315.454 411.959 337.899 520.472 437.575 554.934C499.43 576.495 571.36 563.771 636.396 537.261C651.772 530.899 666.617 523.83 680.756 516.407C753.392 477.526 820.019 425.214 902.022 395.7C957.515 375.73 1015.31 368.13 1070.98 368.837C1111.62 369.544 1151.39 374.493 1188.5 382.445C1275.45 401.179 1351.98 434.934 1436.1 463.211C1460.49 471.341 1485.94 479.117 1512.1 486.009C1578.37 503.329 1648.53 515.7 1719.93 510.928C1732.65 510.045 1745.38 508.808 1757.75 507.04C1840.64 494.669 1918.04 460.207 1982.02 413.02C2053.77 360.001 2110.5 290.899 2157.87 217.556" stroke="#C7E7F2" stroke-miterlimit="10"/>
<path d="M-423.809 715.759C-341.806 615.906 -243.897 524.713 -132.204 445.184C-72.8222 402.946 -5.66461 365.832 65.9112 350.457C124.586 337.909 186.795 338.263 236.102 360.354C328.532 402.239 353.098 507.393 451.36 541.856C512.685 563.417 583.554 552.283 648.414 527.011C663.613 521.002 678.459 514.286 692.597 507.04C764.88 469.75 831.507 418.852 912.626 389.338C967.413 369.367 1024.5 360.884 1079.46 360.354C1119.58 360.177 1158.81 364.065 1195.57 370.781C1281.46 386.687 1357.81 417.261 1441.23 443.24C1465.44 450.84 1490.71 458.086 1516.69 464.448C1582.61 480.884 1652.07 493.078 1722.58 489.19C1735.13 488.483 1747.68 487.423 1760.05 485.832C1842.05 475.052 1918.93 443.064 1983.26 397.821C2055.01 347.276 2112.8 279.765 2159.81 207.129" stroke="#C7E7F2" stroke-miterlimit="10"/>
<path d="M-408.078 705.862C-327.312 607.07 -231.348 516.407 -121.422 437.409C-60.9797 393.933 7.94511 355.936 80.9347 340.914C139.256 328.896 200.581 329.78 249.535 351.518C340.905 392.519 367.768 494.669 464.793 528.955C525.411 550.693 595.573 540.973 660.08 517.114C675.279 511.459 689.947 505.096 704.086 498.027C776.192 462.504 842.642 412.843 922.878 383.152C977.134 363.182 1033.33 353.815 1087.59 352.225C1127 350.987 1165.88 353.815 1202.11 359.47C1287.12 372.549 1362.94 399.942 1445.82 423.8C1470.04 430.693 1494.95 437.409 1520.76 443.417C1586.32 458.793 1655.07 470.987 1724.88 468.16C1737.43 467.629 1749.8 466.746 1761.99 465.332C1843.11 455.965 1919.46 426.628 1984.14 383.329C2055.9 335.258 2114.75 269.338 2161.4 197.409" stroke="#C7E7F2" stroke-miterlimit="10"/>
<path d="M-392.176 696.142C-312.647 598.41 -218.627 508.277 -110.468 429.809C-48.9655 385.096 21.7267 346.216 96.3069 331.547C154.274 320.236 214.716 321.297 263.317 342.681C353.803 382.976 382.787 481.768 478.398 516.053C538.486 537.791 607.588 529.662 671.918 507.04C686.94 501.738 701.608 495.553 715.747 489.014C787.499 455.081 853.95 406.834 933.302 377.143C986.851 357.173 1042.34 346.923 1095.89 344.272C1134.77 342.328 1173.12 343.918 1209 348.336C1292.95 358.587 1368.59 382.799 1450.59 404.36C1474.63 410.722 1499.55 416.731 1524.99 422.386C1590.39 436.702 1658.25 448.896 1727.17 446.952C1739.55 446.598 1751.74 445.892 1763.93 444.831C1843.99 436.878 1919.99 410.192 1985.02 368.837C2056.95 323.064 2116.86 258.734 2162.81 187.688" stroke="#C7E7F2" stroke-miterlimit="10"/>
<path d="M-376.445 686.421C-298.154 589.573 -206.077 500.148 -99.8623 422.033C-37.2998 376.083 35.3364 336.318 111.33 322.003C168.768 311.223 228.503 312.813 276.75 333.844C366.352 373.255 397.457 469.043 491.654 503.152C551.212 524.89 619.253 518.351 683.407 496.966C698.429 492.018 713.097 486.186 727.059 479.824C798.458 447.482 864.909 400.648 943.554 370.958C996.573 350.81 1051.18 340.03 1103.85 335.965C1142.2 333.137 1179.84 333.668 1215.54 337.025C1298.6 344.625 1373.72 365.479 1455.19 384.919C1479.05 390.575 1503.79 396.23 1529.24 401.355C1594.27 414.787 1661.43 426.804 1729.47 425.921C1741.67 425.744 1753.86 425.214 1765.88 424.33C1845.05 417.968 1920.52 393.756 1985.73 354.345C2057.66 310.869 2118.63 248.307 2164.23 177.968" stroke="#C7E7F2" stroke-miterlimit="10"/>
<path d="M-360.539 676.701C-283.485 580.913 -193.352 492.018 -88.9045 414.433C-25.2816 367.07 49.1218 326.598 126.53 312.814C183.614 302.563 242.465 304.507 290.359 325.361C378.901 364.065 412.479 456.495 505.263 490.604C564.114 512.342 631.448 507.217 695.071 487.423C709.917 482.828 724.585 477.349 738.547 471.341C809.593 440.59 876.22 395.17 953.804 365.479C1006.12 345.332 1060.02 333.668 1111.98 328.543C1149.8 324.831 1186.91 324.301 1222.26 326.422C1304.26 331.193 1379.19 349.043 1459.96 366.186C1483.64 371.311 1508.21 376.26 1533.48 381.031C1598.16 393.403 1664.79 405.067 1731.95 405.42C1744.14 405.42 1756.16 405.243 1768 404.36C1846.29 399.411 1921.05 377.85 1986.79 340.383C2058.72 299.382 2120.75 238.41 2166 168.778" stroke="#C7E7F2" stroke-miterlimit="10"/>
<path d="M-344.812 666.981C-268.995 572.254 -180.807 483.888 -78.1264 406.834C-13.4431 358.233 62.7277 316.878 141.726 303.447C198.457 293.903 256.424 296.201 303.965 316.525C391.623 354.345 427.322 443.771 518.692 477.703C577.013 499.617 643.287 495.906 706.733 477.349C721.578 473.108 736.07 467.806 750.032 462.151C820.724 433.167 887.351 389.161 964.052 359.117C1015.83 338.969 1068.85 326.598 1120.11 320.236C1157.22 315.641 1193.98 314.05 1228.79 314.934C1309.91 316.878 1384.32 331.547 1464.55 346.392C1488.23 350.81 1512.45 355.405 1537.54 359.824C1601.87 371.134 1667.79 383.152 1734.07 384.212C1746.08 384.389 1757.93 384.389 1769.77 383.859C1847 380.324 1921.4 361.414 1987.5 325.891C2059.43 287.187 2122.7 227.983 2167.41 159.058" stroke="#C7E7F2" stroke-miterlimit="10"/>
<path d="M-329.082 657.261C-254.502 563.417 -168.257 475.582 -67.5211 399.058C-1.77745 349.043 76.1606 306.805 156.75 293.903C213.127 284.89 270.211 287.541 317.574 307.688C404.172 344.625 442.169 430.869 532.302 464.802C590.092 486.716 655.306 484.595 718.575 467.276C733.244 463.211 747.736 458.439 761.698 452.961C832.213 425.567 898.664 382.975 974.481 352.931C1025.56 332.784 1077.87 319.529 1128.41 311.93C1165 306.451 1201.23 303.8 1235.69 303.447C1315.75 302.74 1389.97 314.051 1469.5 326.775C1493.01 330.487 1517.22 334.551 1541.96 338.616C1606.12 349.043 1671.15 360.884 1736.54 362.828C1748.38 363.182 1760.22 363.358 1771.89 363.005C1848.24 361.061 1922.11 344.625 1988.56 311.046C2060.49 274.64 2124.82 217.026 2169.18 148.984" stroke="#C7E7F2" stroke-miterlimit="10"/>
<path d="M-313.176 647.364C-239.833 554.581 -155.532 467.276 -56.5633 391.282C10.2407 340.03 89.9462 296.908 171.949 284.36C227.973 275.877 284.173 279.058 331.183 298.675C416.897 334.905 457.015 417.968 545.734 451.724C602.818 473.638 667.148 472.931 730.24 457.202C744.909 453.491 759.224 449.073 773.186 443.948C843.348 418.145 909.798 376.967 984.732 346.923C1035.28 326.775 1086.71 312.637 1136.37 303.977C1172.42 297.615 1207.94 293.904 1242.23 292.313C1321.4 288.778 1395.28 296.908 1473.92 307.512C1497.25 310.693 1521.29 314.051 1545.85 317.762C1609.65 327.129 1673.98 338.97 1738.66 341.797C1750.33 342.328 1761.99 342.681 1773.66 342.504C1849.12 341.974 1922.29 328.012 1989.09 296.378C2061.02 262.445 2126.41 206.422 2170.42 139.088" stroke="#C7E7F2" stroke-miterlimit="10"/>
<path d="M-297.449 637.644C-225.343 545.744 -143.164 458.969 -45.7852 383.682C22.0793 331.016 103.552 287.011 187.145 274.993C242.639 267.04 298.132 270.751 344.789 290.015C429.619 325.361 471.858 405.243 559.163 438.822C615.717 460.913 678.986 461.62 741.725 447.128C756.217 443.77 770.532 439.529 784.494 434.757C854.303 410.545 920.753 370.781 994.98 340.737C1044.82 320.589 1095.54 305.744 1144.49 295.847C1179.84 288.601 1215.01 283.829 1248.94 281.178C1327.06 274.993 1400.58 279.765 1478.69 288.071C1501.84 290.545 1525.7 293.373 1550.09 296.731C1613.54 305.037 1677.16 316.878 1740.96 320.766C1752.62 321.473 1764.11 322.003 1775.6 322.18C1850 323.064 1922.81 311.753 1989.97 282.062C2061.9 250.427 2128.35 196.171 2172 129.544" stroke="#C7E7F2" stroke-miterlimit="10"/>
<path d="M-281.543 627.924C-210.851 537.084 -130.439 450.84 -35.0041 376.083C33.9207 322.18 117.161 277.291 202.168 265.626C257.308 258.204 311.918 262.268 358.221 281.355C441.991 315.994 486.527 392.695 572.595 426.097C628.618 448.189 691.004 450.31 753.39 437.232C767.882 434.227 782.02 430.339 795.982 425.921C865.437 403.299 931.888 364.949 1005.23 334.728C1054.36 314.581 1104.38 298.852 1152.62 287.718C1187.44 279.765 1222.08 273.756 1255.48 269.868C1332.71 260.855 1405.88 262.268 1483.29 268.631C1506.44 270.575 1530.12 272.872 1554.16 275.7C1617.25 283.123 1680.16 294.964 1743.08 299.559C1754.57 300.442 1765.88 301.149 1777.37 301.503C1850.89 303.8 1922.99 294.964 1990.68 267.394C2062.61 238.056 2130.3 185.567 2173.42 119.647" stroke="#C7E7F2" stroke-miterlimit="10"/>
<path d="M-265.812 618.203C-196.181 528.424 -118.066 442.533 -24.2221 368.307C45.7631 312.99 130.77 267.217 217.368 256.083C272.155 249.014 325.704 253.785 371.831 272.342C454.717 306.098 501.374 379.617 586.028 413.019C641.344 435.111 702.847 438.822 765.056 427.158C779.371 424.507 793.509 420.972 807.471 416.731C876.573 395.7 943.023 358.763 1015.48 328.542C1064.08 308.395 1113.21 291.959 1160.75 279.588C1195.04 270.752 1228.97 263.682 1262.2 258.557C1338.37 246.893 1411.18 244.949 1488.06 249.014C1511.03 250.251 1534.54 252.018 1558.4 254.492C1621.14 260.855 1683.52 272.696 1745.56 278.351C1756.87 279.411 1768.18 280.295 1779.31 280.825C1851.95 284.713 1923.52 278.351 1991.56 252.725C2063.49 225.685 2132.24 174.787 2175.01 109.75" stroke="#C7E7F2" stroke-miterlimit="10"/>
<path d="M-249.906 608.483C-181.512 519.588 -105.341 434.227 -13.2643 360.707C57.7813 303.977 144.556 257.32 232.744 246.716C287.177 240.177 339.843 245.302 385.616 263.682C467.442 296.731 516.397 367.07 599.637 400.295C654.423 422.386 714.865 427.688 776.897 417.261C791.212 414.964 805.351 411.606 819.136 407.718C887.884 388.277 954.334 352.755 1025.91 322.534C1073.8 302.21 1122.23 285.067 1168.89 271.635C1202.46 261.915 1236.04 253.786 1268.91 247.423C1344.2 232.931 1416.66 227.806 1492.83 229.75C1515.63 230.28 1538.96 231.518 1562.64 233.638C1625.2 238.94 1686.71 250.781 1747.85 257.32C1759.16 258.557 1770.3 259.618 1781.26 260.501C1852.83 265.803 1923.88 261.915 1992.45 238.41C2064.2 213.668 2134.19 164.537 2176.6 100.207" stroke="#C7E7F2" stroke-miterlimit="10"/>
<path d="M-234.18 598.763C-167.022 510.928 -92.9722 425.921 -2.66296 353.108C69.2663 294.964 157.808 247.423 247.587 237.349C301.49 231.341 353.449 236.996 399.045 254.846C479.988 287.011 531.239 354.168 613.066 387.394C667.322 409.662 726.703 416.201 788.559 407.187C802.697 405.067 816.836 402.239 830.621 398.704C899.192 380.854 965.643 346.746 1036.16 316.525C1083.52 296.201 1131.06 278.351 1177.01 263.506C1210.06 252.902 1243.11 243.712 1275.45 236.112C1349.68 218.969 1421.96 211.193 1497.42 210.31C1520.05 209.956 1543.2 211.017 1566.7 212.607C1628.91 216.849 1689.71 228.69 1749.97 236.289C1761.11 237.703 1772.06 238.94 1783.02 240C1853.71 246.716 1924.23 245.479 1992.98 223.918C2064.73 201.473 2135.77 154.109 2177.84 90.4865" stroke="#C7E7F2" stroke-miterlimit="10"/>
<path d="M-218.449 588.866C-152.529 502.092 -80.4228 417.615 8.11907 345.155C81.1087 285.597 171.418 237.173 262.787 227.63C316.337 222.151 367.412 228.16 412.655 245.833C492.714 277.291 546.086 341.09 626.498 374.316C680.048 396.584 738.722 404.713 800.048 397.114C814.186 395.347 828.148 392.872 841.933 389.515C910.151 373.255 976.601 340.56 1046.41 310.339C1093.07 290.015 1139.9 271.282 1185.14 255.376C1217.66 243.889 1250.18 233.638 1282.17 224.979C1355.51 205.008 1427.26 193.344 1502.02 190.87C1524.64 190.163 1547.62 190.339 1570.77 191.577C1632.62 194.758 1692.71 206.599 1752.27 215.082C1763.23 216.672 1774.19 218.086 1784.97 219.5C1854.77 227.63 1924.58 228.867 1993.86 209.426C2065.61 189.279 2137.9 143.506 2179.43 80.7666" stroke="#C7E7F2" stroke-miterlimit="10"/>
<path d="M-202.543 579.146C-137.86 493.255 -67.8744 409.308 19.0769 337.556C93.1269 276.584 185.203 227.276 277.987 218.263C331.183 213.138 381.374 219.853 426.264 237.173C505.262 267.747 560.932 328.543 640.107 361.591C693.126 383.859 750.741 393.403 811.889 387.217C825.851 385.803 839.813 383.506 853.598 380.678C921.462 366.009 987.913 334.905 1056.84 304.331C1102.96 284.007 1148.91 264.566 1193.45 247.247C1225.26 235.052 1257.43 223.565 1289.06 213.668C1361.34 191.046 1432.92 175.848 1506.97 171.429C1529.41 170.016 1552.21 169.662 1575.19 170.546C1636.69 172.843 1696.07 184.684 1754.75 193.874C1765.53 195.641 1776.31 197.232 1787.09 198.823C1855.84 208.366 1925.29 212.077 1994.92 194.758C2066.67 176.731 2140.02 132.902 2181.2 70.8698" stroke="#C7E7F2" stroke-miterlimit="10"/>
<path d="M-186.812 569.426C-123.366 484.595 -55.5018 401.002 29.8589 329.956C104.793 267.57 198.813 217.202 293.187 209.073C346.03 204.478 395.337 211.547 439.873 228.513C517.988 258.381 575.779 315.818 653.54 348.866C706.029 371.311 762.583 382.092 823.555 377.32C837.517 376.26 851.302 374.316 865.087 371.665C932.598 358.587 999.048 328.896 1067.09 298.322C1112.51 277.998 1157.75 257.674 1201.4 239.294C1232.69 226.216 1264.14 213.668 1295.6 202.534C1367 177.261 1438.05 158.705 1511.57 152.166C1533.83 150.222 1556.46 149.161 1579.25 149.691C1640.58 150.928 1699.08 162.946 1756.87 173.02C1767.65 174.964 1778.25 176.908 1788.86 178.498C1856.72 189.456 1925.47 195.641 1995.63 180.266C2067.38 164.537 2141.79 122.475 2182.61 61.1495" stroke="#C7E7F2" stroke-miterlimit="10"/>
<path d="M-170.91 559.706C-108.701 475.759 -42.9574 392.695 40.6361 322.357C116.453 258.557 212.418 207.305 308.383 199.706C360.695 195.464 409.296 203.241 453.478 219.853C530.709 248.837 590.621 303.27 666.969 336.142C718.751 358.586 774.421 370.958 835.216 367.6C849.001 366.716 862.786 365.126 876.394 362.828C943.552 351.341 1010 323.064 1077.16 292.489C1121.87 272.165 1166.41 251.134 1209.35 231.517C1240.11 217.556 1271.03 203.947 1301.96 191.576C1372.3 163.476 1443.17 141.738 1515.98 132.902C1538.25 130.251 1560.52 128.837 1583.14 128.837C1644.11 129.014 1701.9 141.031 1758.99 151.989C1769.59 154.109 1780.19 156.23 1790.62 158.174C1857.6 170.545 1925.82 179.205 1996.33 165.95C2068.09 152.519 2143.73 112.224 2184.02 51.4292" stroke="#C7E7F2" stroke-miterlimit="10"/>
<path d="M-155.18 549.986C-94.2077 467.099 -30.5848 384.212 51.4181 314.581C128.296 249.19 226.028 197.055 323.406 190.163C375.365 186.451 423.082 194.758 467.088 211.017C543.259 239.294 605.468 290.369 680.578 323.241C731.83 345.685 786.44 359.47 846.881 357.526C860.666 356.996 874.275 355.759 887.883 353.815C954.687 343.918 1021.14 317.055 1087.59 286.481C1131.77 266.157 1175.42 244.242 1217.66 223.388C1247.88 208.543 1278.28 194.051 1308.85 180.442C1378.31 149.868 1448.65 124.419 1520.93 113.638C1543.02 110.28 1565.29 108.336 1587.56 107.983C1648.18 106.923 1705.26 119.117 1761.46 131.135C1771.89 133.432 1782.31 135.73 1792.74 137.85C1858.84 151.635 1926.35 162.769 1997.22 151.635C2068.97 140.325 2145.67 101.797 2185.61 41.8858" stroke="#C7E7F2" stroke-miterlimit="10"/>
<path d="M-139.273 540.265C-79.5386 458.439 -18.0364 375.906 62.3759 306.981C140.137 240.177 239.813 187.158 338.782 180.796C390.387 177.438 437.221 186.274 480.873 202.18C556.161 229.573 620.49 277.644 694.187 310.339C744.908 332.961 798.635 348.159 858.723 347.453C872.331 347.276 885.939 346.392 899.548 344.625C965.998 336.319 1032.45 310.869 1098.02 280.118C1141.49 259.794 1184.44 237.173 1225.97 215.082C1255.48 199.353 1285.53 183.624 1315.75 168.955C1384.32 135.553 1454.3 106.923 1525.7 93.8445C1547.62 89.7797 1569.71 87.3055 1591.8 86.5986C1652.07 84.6545 1708.62 96.6722 1763.76 109.573C1774.19 112.048 1784.44 114.522 1794.69 116.819C1859.72 132.018 1926.88 145.626 1998.1 136.613C2069.86 127.423 2147.62 90.8401 2187.2 31.6354" stroke="#C7E7F2" stroke-miterlimit="10"/>
<path d="M-123.543 530.369C-65.0452 449.426 -5.66381 367.423 72.9812 299.205C151.626 230.987 253.246 176.908 353.629 171.253C553.334 160.119 673.157 334.905 870.035 337.556C993.569 339.146 1119.05 272.519 1233.75 207.129C1348.44 141.739 1470.74 72.1068 1595.69 65.7445C1666.91 62.2099 1732.13 79.8829 1796.46 96.4956C1860.61 113.108 1927.06 129.191 1998.81 122.298C2070.56 115.406 2149.39 80.5898 2188.62 22.0921" stroke="#C7E7F2" stroke-miterlimit="10"/>
</g>
<mask id="mask1_65_461" style="mask-type:luminance" maskUnits="userSpaceOnUse" x="-94" y="0" width="2122" height="1415">
<path d="M2027.62 0.884552H-93.1445V1414.73H2027.62V0.884552Z" fill="white"/>
</mask>
<g mask="url(#mask1_65_461)">
<path d="M-194.23 812.077C-114.879 762.946 -8.31011 779.559 71.2186 828.513C150.747 877.467 209.068 953.638 265.622 1027.86C320.585 1100.15 389.687 1179.5 480.526 1176.85C565.357 1174.2 630.747 1096.97 658.317 1016.73C685.887 936.495 687.301 849.367 709.569 767.541C731.837 685.538 784.326 602.475 867.035 583.211C940.909 566.068 1015.14 604.242 1090.07 616.436C1257.43 643.83 1417.37 540.619 1544.97 428.749C1672.57 316.879 1795.93 186.982 1959.58 142.269" stroke="#FF9E73" stroke-miterlimit="10"/>
<path d="M-200.418 802.533C-122.303 752.872 -17.8555 766.304 61.4964 811.37C140.848 856.436 200.406 928.012 258.197 998.881C304.854 1056.32 360.878 1119.23 429.802 1138.67C443.587 1142.56 457.903 1144.68 472.748 1144.68C556.165 1144.68 620.495 1074.34 651.069 999.234C681.82 923.594 688.182 837.88 712.571 756.407C715.222 747.394 718.403 738.38 721.761 729.367C748.801 657.438 798.639 589.397 872.159 571.193C891.245 566.422 910.509 565.361 929.773 566.598C985.089 570.31 1040.58 593.462 1096.25 603.182C1155.63 613.609 1214.13 608.66 1270.69 591.871C1358.34 565.892 1440.52 511.459 1513.16 450.84C1526.59 439.706 1539.67 428.395 1552.39 416.908C1609.12 366.01 1664.97 311.577 1724.88 263.683C1799.11 204.301 1880.23 155.7 1969.48 136.79" stroke="#F99A78" stroke-miterlimit="10"/>
<path d="M-206.426 792.99C-129.725 742.976 -27.0445 753.049 52.1307 794.051C131.306 835.052 192.278 902.21 251.129 969.721C298.846 1024.51 355.223 1084.95 423.088 1105.63C436.696 1109.69 450.834 1112.17 465.326 1112.7C547.329 1115.35 610.775 1051.9 644.354 981.738C678.286 910.87 689.42 826.392 716.107 745.273C719.111 736.26 722.292 727.247 725.827 718.41C754.28 646.834 804.472 578.616 877.815 559.353C896.902 554.404 916.165 552.991 935.606 553.874C991.276 556.702 1047.12 579.677 1103.15 590.104C1162.7 601.238 1221.38 598.057 1278.46 582.151C1367.18 557.409 1449.54 501.739 1521.82 439.883C1535.08 428.572 1548.15 416.908 1560.7 405.244C1617.08 353.285 1672.75 297.969 1733.19 250.252C1808.12 191.047 1892.07 144.743 1980.08 131.489" stroke="#F3967C" stroke-miterlimit="10"/>
<path d="M-212.613 783.447C-137.149 732.902 -36.5899 739.971 42.4086 776.908C121.407 813.844 183.616 876.407 243.881 940.737C292.659 992.695 349.212 1051.02 416.37 1072.58C429.802 1076.82 443.586 1079.65 457.902 1080.53C538.491 1085.83 600.876 1029.28 637.46 964.242C674.573 897.968 690.656 814.905 719.463 734.139C722.644 725.126 726.178 716.289 729.89 707.276C759.757 636.054 810.125 567.482 883.291 547.335C902.378 542.033 921.642 540.266 941.259 540.973C997.459 542.917 1053.48 565.715 1109.68 576.849C1169.24 588.69 1228.27 587.276 1285.71 572.077C1375.31 548.572 1457.84 491.665 1529.77 428.749C1543.03 417.261 1555.93 405.42 1568.48 393.58C1624.68 340.737 1679.99 284.537 1741.14 236.82C1816.78 177.792 1903.73 133.786 1990.51 126.187" stroke="#EC9281" stroke-miterlimit="10"/>
<path d="M-218.621 774.08C-144.571 723.005 -45.9556 726.893 32.8662 759.942C111.688 792.99 175.311 850.958 236.636 911.93C286.474 961.238 343.381 1017.26 409.479 1039.71C422.733 1044.12 436.342 1047.31 450.303 1048.54C529.302 1056.32 590.981 1006.66 630.392 946.922C670.863 885.243 691.54 803.594 722.645 723.358C726.003 714.522 729.714 705.509 733.602 696.672C764.883 625.803 815.428 557.055 888.595 535.671C907.681 530.015 926.945 527.895 946.739 528.425C1003.29 529.485 1059.67 552.107 1116.22 564.124C1175.96 576.672 1235.16 577.026 1293.13 562.534C1383.62 540.266 1466.5 481.945 1537.9 417.969C1550.98 406.128 1563.88 394.11 1576.43 382.092C1632.28 328.189 1687.24 271.106 1749.09 223.565C1825.44 164.714 1915.22 122.829 2000.76 121.061" stroke="#E68E85" stroke-miterlimit="10"/>
<path d="M-224.633 764.536C-151.82 713.108 -55.1484 713.638 23.4966 742.799C102.142 771.782 167.002 825.332 229.741 882.946C280.462 929.603 337.723 983.152 403.113 1006.83C416.015 1011.43 429.446 1014.79 443.231 1016.73C520.816 1026.98 581.788 984.212 623.85 929.779C667.855 872.695 693.128 792.46 726.353 712.578C730.064 703.741 733.953 694.905 738.017 686.068C770.713 615.553 821.611 546.628 894.424 524.183C913.511 518.351 932.951 515.877 952.745 515.877C1009.65 516.23 1066.21 538.498 1123.11 551.223C1183.02 564.478 1242.41 566.598 1300.9 552.99C1392.45 531.959 1475.51 472.401 1546.38 407.188C1559.46 395.17 1572.18 382.976 1584.73 370.604C1640.4 315.818 1695.01 257.85 1757.57 210.31C1834.63 151.459 1927.41 112.048 2011.54 115.936" stroke="#E08B8A" stroke-miterlimit="10"/>
<path d="M-230.816 754.993C-159.417 703.034 -64.6899 700.56 13.7784 725.479C92.2467 750.575 158.521 799.529 222.32 853.785C274.102 897.615 331.716 949.043 396.046 973.609C408.771 978.38 421.849 982.092 435.457 984.389C511.628 997.291 572.07 961.238 616.606 911.93C664.146 859.441 693.837 780.619 729.36 701.09C733.248 692.254 737.313 683.417 741.554 674.758C775.663 604.596 826.738 535.317 899.551 511.812C918.638 505.627 938.078 502.799 958.049 502.622C1015.49 502.092 1072.22 524.183 1129.48 537.615C1189.57 551.577 1249.12 555.288 1307.97 542.563C1400.4 522.77 1483.64 461.974 1554.34 395.524C1567.24 383.329 1579.96 370.958 1592.33 358.41C1647.65 302.564 1702.08 243.712 1765.18 196.172C1842.94 137.497 1938.55 100.207 2021.44 109.927" stroke="#DA878E" stroke-miterlimit="10"/>
<path d="M-236.824 745.45C-166.662 692.961 -74.0556 687.306 4.23597 708.336C82.5275 729.367 150.038 773.903 215.075 824.802C267.918 865.98 325.708 915.111 389.331 940.56C401.879 945.509 414.781 949.573 428.035 952.224C502.792 967.777 562.704 938.616 609.714 894.433C660.966 846.54 695.075 769.132 732.718 690.133C736.96 681.473 741.201 672.637 745.62 663.977C781.143 594.169 832.394 524.714 905.207 500.148C924.294 493.786 943.734 490.605 963.882 490.074C1021.67 488.661 1078.76 510.575 1136.37 524.714C1196.64 539.382 1256.37 544.861 1315.75 533.02C1409.07 514.463 1492.66 452.431 1562.82 384.92C1575.72 372.549 1588.27 359.824 1600.64 347.1C1655.78 290.369 1709.86 230.634 1773.66 183.094C1852.31 124.596 1950.74 89.6035 2032.39 104.979" stroke="#D48393" stroke-miterlimit="10"/>
<path d="M-243.008 735.906C-174.083 683.064 -83.4203 674.051 -5.30554 691.193C72.8093 708.336 141.734 748.277 208.008 795.818C261.734 834.168 320.055 881.179 382.794 907.688C395.165 912.99 407.713 917.232 420.615 920.413C493.958 938.616 553.339 916.348 602.824 877.29C657.787 833.992 696.137 757.821 735.902 679.353C740.32 670.693 744.738 662.033 749.333 653.373C786.27 584.095 837.698 514.11 910.334 488.661C929.421 481.945 948.862 478.41 969.186 477.703C1027.33 475.406 1084.77 497.32 1142.56 511.989C1203 527.364 1262.91 534.61 1322.65 523.476C1416.84 506.157 1500.61 442.887 1570.42 374.139C1583.15 361.591 1595.69 348.69 1608.07 335.789C1662.85 277.998 1716.75 217.379 1781.08 170.016C1860.44 111.695 1961.7 78.8228 2042.12 100.207" stroke="#CE7F97" stroke-miterlimit="10"/>
<path d="M-249.016 726.363C-181.505 672.99 -92.786 660.973 -14.8479 674.051C63.0902 687.129 133.252 722.652 200.763 766.834C255.55 802.534 314.047 847.07 375.903 874.64C388.097 880.118 400.468 884.713 413.016 888.248C484.946 909.102 544.15 893.727 595.755 859.794C654.607 821.09 697.199 746.333 739.084 668.219C743.679 659.559 748.45 650.899 753.222 642.239C791.396 573.314 843.355 503.153 915.814 476.466C934.901 469.397 954.518 465.509 974.842 464.449C1033.34 461.444 1091.13 483.005 1149.27 498.558C1209.72 514.64 1269.98 523.653 1330.25 513.226C1425.5 497.144 1509.45 432.637 1578.73 362.652C1591.45 349.927 1603.83 336.673 1616.2 323.595C1670.81 264.743 1724.36 203.418 1789.39 156.054C1869.45 97.7331 1973.72 67.3355 2052.72 94.3752" stroke="#C87B9C" stroke-miterlimit="10"/>
<path d="M-255.203 716.819C-188.929 662.916 -102.331 647.718 -24.57 656.731C53.1913 665.744 124.767 696.849 193.515 737.673C249.362 770.722 308.213 812.961 369.185 841.591C381.203 847.246 393.221 852.018 405.592 856.26C476.107 879.765 534.958 871.282 588.861 842.298C651.6 808.542 698.257 734.846 742.44 657.261C747.388 648.601 752.16 640.118 757.285 631.459C796.873 562.887 849.008 492.548 921.291 464.802C940.201 457.556 959.995 453.314 980.495 451.9C1039.52 448.012 1097.49 469.397 1155.81 485.656C1216.43 502.445 1276.87 513.226 1337.67 503.682C1433.81 488.837 1517.93 422.917 1587.03 352.048C1599.76 338.97 1611.95 325.715 1624.15 312.283C1678.4 252.549 1731.78 190.163 1797.34 142.976C1878.11 84.8315 1985.21 56.7314 2062.97 89.4265" stroke="#C177A0" stroke-miterlimit="10"/>
<path d="M-261.211 707.276C-196.351 653.02 -111.697 634.463 -33.9357 639.588C43.6489 644.713 116.462 671.223 186.447 708.69C243.354 738.911 302.382 779.028 362.47 808.542C374.135 814.374 386.152 819.5 398.17 824.095C467.095 850.074 525.946 849.014 581.97 824.802C648.774 795.995 699.495 723.358 745.799 646.127C750.924 637.644 756.049 628.984 761.174 620.501C802.176 552.283 854.488 481.591 926.771 452.784C945.681 445.185 965.474 440.59 986.152 438.999C1045.53 434.228 1103.85 455.435 1162.53 472.401C1223.32 489.898 1283.94 502.445 1345.09 493.609C1442.12 480.001 1526.59 412.843 1595.16 340.737C1607.71 327.482 1619.91 314.051 1632.1 300.443C1686.18 239.647 1739.02 176.555 1805.47 129.368C1886.95 71.4002 1996.87 45.4208 2073.57 83.948" stroke="#BB73A4" stroke-miterlimit="10"/>
<path d="M-267.223 697.733C-203.6 642.946 -120.89 621.208 -43.482 622.445C33.9258 623.506 108.153 645.597 179.198 679.529C236.989 707.099 296.547 744.743 355.752 775.317C367.239 781.326 378.903 786.805 390.744 791.753C458.255 820.383 516.93 826.569 575.074 807.129C645.943 783.447 700.553 711.694 749.153 634.817C754.455 626.334 759.934 617.85 765.236 609.367C807.651 541.503 860.14 470.634 932.423 440.767C951.333 432.991 971.127 428.042 991.981 426.098C1051.72 420.443 1110.39 441.474 1169.24 459.147C1230.21 477.35 1291.01 491.665 1352.69 483.712C1450.77 471.341 1535.43 402.946 1603.47 329.603C1616.02 316.172 1628.21 302.387 1640.23 288.602C1693.95 226.923 1746.62 162.77 1813.6 115.76C1895.78 57.9687 2008.71 34.2869 2084 78.4694" stroke="#B56FA9" stroke-miterlimit="10"/>
<path d="M-273.406 688.366C-211.197 633.049 -130.431 608.307 -53.0236 605.302C24.2076 602.475 99.6715 619.971 172.131 650.545C230.982 675.464 290.717 710.634 349.038 742.445C360.349 748.631 371.836 754.463 383.324 759.942C449.421 791.223 507.919 804.831 568.36 789.809C643.294 771.429 701.968 700.383 752.69 624.036C758.345 615.553 763.824 607.07 769.303 598.763C813.132 531.252 865.974 460.03 937.904 429.279C956.814 421.149 976.607 415.847 997.638 413.727C1057.9 407.364 1116.75 428.042 1175.96 446.422C1237.11 465.332 1298.08 481.414 1360.11 474.169C1459.08 463.035 1543.91 393.403 1611.6 318.823C1623.97 305.214 1636.17 291.253 1648.01 277.114C1701.38 214.375 1753.87 149.515 1821.56 102.505C1904.62 44.7138 2020.2 23.3294 2094.25 73.3441" stroke="#AF6BAD" stroke-miterlimit="10"/>
<path d="M-279.414 678.822C-218.442 622.976 -139.797 595.052 -62.5659 588.16C14.4885 581.267 91.3662 594.345 164.886 621.562C224.798 643.653 284.886 676.702 342.323 709.397C353.457 715.759 364.591 721.945 375.902 727.777C440.585 761.709 498.73 782.74 561.469 772.313C640.291 759.235 703.03 688.896 756.049 612.902C761.881 604.596 767.713 596.113 773.369 587.63C818.612 520.649 871.631 449.073 943.56 417.085C962.47 408.602 982.441 403.123 1003.47 400.472C1064.09 393.226 1123.29 413.727 1182.68 432.991C1244 452.608 1305.15 470.281 1367.71 463.918C1467.57 454.021 1552.75 383.153 1620.08 307.512C1632.45 293.727 1644.47 279.412 1656.31 265.273C1709.51 201.651 1761.64 135.73 1829.86 88.8965C1913.63 31.2824 2032.22 12.1956 2105.03 67.8656" stroke="#A968B2" stroke-miterlimit="10"/>
<path d="M-285.602 669.279C-226.043 613.079 -149.166 581.797 -72.288 571.017C4.58966 560.236 82.8812 568.719 157.638 592.578C218.433 612.018 279.052 642.593 335.429 676.348C346.386 682.887 357.167 689.426 368.124 695.789C431.217 732.548 489.184 761.002 554.221 754.993C636.931 747.394 703.912 677.585 759.051 601.945C765.06 593.638 771.069 585.155 776.901 576.849C823.558 510.222 876.754 438.469 948.683 405.421C967.593 396.761 987.564 390.752 1008.77 387.924C1069.74 379.795 1129.3 400.295 1189.04 420.089C1250.36 440.413 1311.86 459.854 1374.78 454.375C1475.52 445.715 1560.88 373.609 1627.86 296.731C1640.05 282.593 1652.07 268.278 1663.91 253.786C1716.75 189.103 1768.71 122.475 1837.46 75.6418C1921.94 18.2044 2043.35 1.23827 2114.93 62.7404" stroke="#A364B6" stroke-miterlimit="10"/>
<path d="M-291.609 659.736C-233.288 603.005 -158.531 568.72 -81.6537 553.874C-4.95273 539.029 74.5759 543.094 150.57 563.594C212.426 580.384 273.221 608.661 328.891 643.476C339.671 650.192 350.275 657.085 360.879 663.8C422.558 703.211 480.172 739.264 547.506 737.674C634.104 735.73 705.15 666.275 762.587 590.988C768.95 582.681 775.135 574.375 781.144 566.069C829.215 499.795 882.587 427.689 954.34 393.58C973.25 384.566 993.22 378.204 1014.43 375.2C1075.93 366.187 1135.66 386.511 1195.58 407.011C1257.08 428.042 1318.76 449.25 1382.2 444.478C1484 436.879 1569.54 363.536 1635.99 285.598C1648.18 271.282 1660.02 256.79 1671.86 241.945C1724.53 176.378 1776.14 108.69 1845.59 62.0336C1930.77 4.77296 2055.19 -9.89566 2125.35 57.2619" stroke="#9C60BB" stroke-miterlimit="10"/>
<path d="M-297.797 650.192C-240.89 592.931 -168.077 555.465 -91.3758 536.554C-14.8516 517.644 66.0909 517.291 143.145 534.434C206.061 548.395 267.21 574.552 321.82 610.251C332.247 617.144 342.674 624.213 353.101 631.459C413.366 673.521 470.627 717.173 540.258 719.824C630.568 723.358 706.032 654.257 765.59 579.677C772.129 571.37 778.491 563.241 784.676 554.934C833.984 489.014 887.887 416.731 959.463 381.562C978.373 372.372 998.343 365.656 1019.73 362.298C1081.58 352.578 1141.67 372.549 1201.94 393.756C1263.62 415.494 1325.47 438.469 1389.45 434.581C1492.13 428.219 1578.02 353.639 1643.94 274.463C1655.96 259.972 1667.8 245.126 1679.46 230.281C1731.77 163.653 1783.03 95.2588 1853.19 48.4253C1939.08 -8.83535 2066.32 -21.0297 2135.25 51.7832" stroke="#965CBF" stroke-miterlimit="10"/>
<path d="M-303.805 640.649C-147.222 478.41 129.008 450.133 315.282 577.379C385.444 625.273 448.89 694.375 533.544 702.681C637.815 712.931 724.766 627.04 788.919 544.331C853.072 461.621 922.351 367.424 1025.74 349.75C1151.57 328.189 1269.8 431.223 1397.23 424.861C1500.79 419.736 1586.86 343.918 1652.6 263.683C1718.34 183.447 1775.25 92.2544 1861.85 35.3472C1948.45 -21.7367 2078.7 -31.8104 2146.39 46.8346" stroke="#9058C4" stroke-miterlimit="10"/>
<path d="M-294.438 674.758C-141.212 509.161 133.78 474.699 323.058 596.643C394.281 642.593 459.141 709.75 543.794 716.113C627.565 722.475 699.14 667.335 756.048 601.945C770.009 585.862 782.911 569.25 795.105 552.814C831.688 503.329 869.508 449.957 914.928 409.839C946.563 382.092 982.086 360.708 1023.26 351.695C1063.74 342.858 1103.85 347.1 1144.15 356.82C1225.8 376.083 1307.98 418.145 1393.51 415.494C1484.71 412.667 1562.47 359.294 1625.74 296.378C1634.4 287.895 1642.7 279.235 1650.66 270.399C1701.56 214.905 1748.04 153.403 1805.65 102.682C1824.21 86.4223 1843.82 71.2235 1865.21 57.792C1952.69 2.65213 2080.82 -10.6026 2147.27 58.4989" stroke="#8C5BC7" stroke-miterlimit="10"/>
<path d="M-284.895 708.69C-135.027 539.736 138.728 498.911 330.834 615.907C403.117 659.912 469.567 725.126 554.221 729.544C637.815 733.962 708.507 677.409 763.823 611.135C777.255 594.876 789.98 578.086 801.644 561.297C836.813 510.929 872.866 457.026 916.695 415.671C947.093 387.041 981.202 364.419 1021.32 353.815C1060.55 343.212 1099.79 345.332 1139.91 352.932C1221.2 368.131 1304.62 407.365 1390.33 406.304C1481.35 405.067 1559.29 357.527 1623.62 300.973C1632.28 293.374 1640.76 285.421 1649.07 277.645C1701.2 227.453 1749.45 171.253 1808.48 123.712C1827.39 108.337 1847.36 94.0218 1868.92 80.9437C1957.28 27.7479 2083.29 11.1352 2148.68 70.6934" stroke="#895ECA" stroke-miterlimit="10"/>
<path d="M-275.527 742.622C-129.018 570.31 143.677 523.123 338.611 635.17C411.777 677.232 479.818 740.501 564.472 742.975C648.065 745.626 717.697 687.659 771.423 620.501C784.501 604.065 796.696 586.922 808.006 569.78C841.939 518.705 876.224 463.918 918.109 421.326C947.093 391.812 980.142 368.13 1018.85 355.759C1057.02 343.388 1095.37 343.388 1135.13 348.867C1215.9 359.824 1300.55 396.23 1386.62 396.761C1477.64 397.114 1555.75 355.582 1621.14 305.214C1629.98 298.322 1638.64 291.429 1647.12 284.36C1700.67 239.471 1750.51 188.572 1810.77 144.036C1830.21 129.721 1850.54 115.936 1872.28 103.565C1961.53 52.3132 2085.41 32.5194 2149.57 82.3573" stroke="#8560CE" stroke-miterlimit="10"/>
<path d="M-265.984 776.731C-123.01 601.238 148.625 547.688 346.563 654.433C420.79 694.728 490.245 755.877 574.899 756.407C658.315 757.114 727.24 697.909 779.022 629.691C791.747 612.902 803.588 595.582 814.368 578.263C847.063 526.481 879.405 470.987 919.699 427.158C947.446 396.761 979.258 372.018 1016.72 357.88C1053.66 343.918 1091.3 341.621 1130.72 344.979C1211.13 351.871 1297.02 385.45 1383.09 387.571C1473.93 389.515 1552.22 353.992 1618.84 309.632C1627.86 303.624 1636.69 297.438 1645.35 291.253C1700.14 251.842 1751.92 206.068 1813.42 164.537C1833.22 151.105 1853.9 138.204 1875.81 126.186C1965.94 76.8786 2087.71 53.7269 2150.8 94.0215" stroke="#8263D1" stroke-miterlimit="10"/>
<path d="M-256.617 810.663C-117 631.812 153.397 571.9 354.34 673.697C429.627 712.048 500.496 771.429 585.149 770.015C668.389 768.778 736.431 708.16 786.622 639.058C798.993 622.092 810.304 604.419 820.731 586.922C852.189 534.257 882.763 478.233 921.114 432.99C947.623 401.886 978.021 375.73 1014.25 359.824C1049.95 344.095 1086.89 339.677 1125.94 340.914C1206.18 343.565 1292.95 374.669 1379.38 378.204C1470.04 381.915 1548.68 352.048 1616.37 314.051C1625.56 308.926 1634.57 303.624 1643.41 298.145C1699.43 264.036 1752.98 223.565 1815.9 185.038C1836.05 172.667 1857.08 160.472 1879.35 148.808C1970.36 101.444 2090.01 75.1114 2152.04 105.686" stroke="#7E66D4" stroke-miterlimit="10"/>
<path d="M-247.25 844.772C-110.991 662.563 158.169 596.289 362.116 693.137C438.287 729.544 510.746 786.981 595.577 783.623C678.817 780.619 745.798 718.587 794.399 648.601C806.24 631.282 817.197 613.432 827.27 595.582C857.491 542.21 886.298 485.479 922.882 438.822C947.977 406.834 977.314 379.618 1012.31 361.945C1046.95 344.625 1083 337.733 1121.7 337.026C1201.59 335.435 1289.6 363.889 1376.19 368.837C1466.86 374.139 1545.5 350.281 1614.43 318.292C1623.79 314.051 1632.98 309.456 1642 305.038C1699.26 276.231 1754.57 241.061 1818.73 205.715C1839.41 194.404 1860.79 182.74 1883.06 171.783C1974.96 126.363 2092.48 96.6725 2153.28 117.88" stroke="#7B69D7" stroke-miterlimit="10"/>
<path d="M-237.707 878.704C-104.806 693.138 163.117 620.678 370.069 712.224C447.3 746.687 521.173 802.18 606.004 796.878C689.067 791.93 755.164 728.66 801.998 657.615C813.485 640.118 824.089 621.915 833.632 603.889C862.439 549.809 889.479 492.372 924.295 444.478C948.154 411.606 976.254 383.153 1009.83 363.889C1043.23 344.802 1078.58 335.789 1117.11 332.961C1196.64 326.952 1285.71 352.932 1372.66 359.471C1463.15 366.363 1542.14 348.513 1612.13 322.711C1621.67 319.176 1631.04 315.642 1640.23 311.93C1698.73 288.425 1755.81 258.558 1821.38 226.216C1842.41 215.789 1864.15 205.008 1886.59 194.404C1979.38 150.929 2094.78 117.88 2154.51 129.544" stroke="#776BDA" stroke-miterlimit="10"/>
<path d="M-228.34 912.637C-98.7965 723.712 167.89 644.89 377.845 731.488C455.96 764.007 531.424 817.556 616.255 810.31C699.318 803.417 764.355 738.734 809.598 666.982C820.732 649.132 830.805 630.752 839.995 612.372C867.565 557.409 892.838 499.441 925.886 450.133C948.508 416.555 975.194 386.864 1007.71 365.833C1039.88 344.979 1074.52 333.668 1112.69 328.896C1191.87 318.646 1282.17 341.798 1369.3 349.927C1459.79 358.41 1538.79 346.393 1609.83 326.952C1619.55 324.301 1629.1 321.65 1638.46 318.646C1698.2 300.443 1757.05 275.877 1823.85 246.54C1845.24 237.173 1867.33 227.1 1890.13 217.026C1983.79 175.494 2097.08 139.265 2155.58 141.209" stroke="#746EDD" stroke-miterlimit="10"/>
<path d="M-218.797 946.746C-92.6114 754.463 172.838 669.279 385.621 750.752C464.796 781.326 541.85 832.931 626.681 823.741C709.568 814.905 773.897 748.984 817.373 676.171C828.154 658.145 837.697 639.588 846.533 620.855C872.866 565.185 896.371 506.51 927.476 455.965C948.684 421.503 974.31 390.575 1005.59 367.954C1036.7 345.332 1070.45 331.901 1108.27 325.008C1187.09 310.516 1278.46 331.017 1365.94 340.737C1456.25 350.811 1535.43 344.802 1607.71 331.37C1617.61 329.603 1627.33 327.659 1636.87 325.715C1698.02 312.814 1758.46 293.55 1826.68 267.394C1848.59 258.911 1870.86 249.721 1893.84 240.001C1988.21 200.236 2099.55 160.826 2156.99 153.226" stroke="#7171E1" stroke-miterlimit="10"/>
<path d="M-209.43 980.678C-86.7788 785.038 177.61 693.668 393.398 770.015C473.633 798.646 552.101 848.307 636.932 837.173C719.818 826.569 783.088 759.235 824.973 685.362C835.4 666.982 844.59 648.248 852.896 629.338C877.992 572.961 899.553 513.58 929.067 461.621C949.038 426.452 973.426 394.287 1003.29 369.898C1033.16 345.686 1066.03 329.78 1103.68 320.767C1182.14 302.034 1274.75 319.883 1362.23 331.194C1452.37 342.858 1531.89 342.858 1605.24 335.612C1615.31 334.729 1625.21 333.668 1634.93 332.431C1697.31 324.832 1759.7 310.87 1829.15 287.718C1851.42 280.296 1874.22 271.636 1897.37 262.446C1992.63 224.626 2101.85 182.034 2158.05 164.891" stroke="#6D74E4" stroke-miterlimit="10"/>
<path d="M-200.062 1014.79C-80.5928 815.789 182.559 718.057 401.174 789.279C482.293 815.965 562.352 863.859 647.183 850.781C729.893 838.233 792.278 769.485 832.396 694.905C842.293 676.348 851.13 657.261 859.082 637.998C882.941 580.737 902.735 520.826 930.481 467.63C949.215 431.577 972.19 398.175 1001 372.195C1029.63 346.216 1061.79 328.19 1099.08 317.056C1177.2 293.904 1270.86 309.103 1358.7 322.004C1448.83 335.259 1528.36 341.091 1602.94 340.207C1613.01 340.03 1623.26 339.854 1633.16 339.5C1696.78 337.203 1760.94 328.543 1831.63 308.396C1854.25 301.857 1877.4 294.081 1900.73 285.421C1996.87 249.545 2103.97 203.595 2159.11 176.908" stroke="#6A77E7" stroke-miterlimit="10"/>
<path d="M-190.52 1048.72C-74.5844 846.363 187.507 742.269 409.126 808.542C491.306 833.285 572.779 879.235 657.609 864.212C740.319 849.721 801.645 779.735 840.172 704.095C849.715 685.185 858.022 665.921 865.621 646.481C888.066 588.513 906.269 527.895 932.072 473.285C949.568 436.348 971.306 401.709 998.699 373.963C1026.27 346.216 1057.55 325.892 1094.49 312.814C1172.25 285.244 1267.15 297.968 1355.16 312.46C1445.12 327.306 1525 339.147 1600.64 344.272C1610.89 344.979 1621.32 345.686 1631.57 346.039C1696.43 349.044 1762.35 345.686 1834.46 328.543C1857.61 323.064 1880.94 315.995 1904.62 307.689C2001.64 273.756 2106.62 224.625 2160.7 188.219" stroke="#6679EA" stroke-miterlimit="10"/>
<path d="M-181.156 1082.65C-68.579 877.114 192.275 766.657 416.899 827.806C500.139 850.604 583.026 894.61 668.033 877.644C750.566 861.385 811.008 789.986 847.945 713.461C857.135 694.375 865.087 674.757 872.157 655.14C893.364 596.466 909.8 535.141 933.836 479.117C950.095 441.473 970.419 405.597 996.752 376.083C1023.08 346.569 1053.66 324.125 1090.24 308.926C1167.65 277.114 1263.61 287.188 1351.98 303.094C1441.94 319.353 1521.82 337.203 1598.7 348.69C1609.12 350.281 1619.55 351.694 1630.15 353.108C1696.25 361.415 1763.94 363.359 1837.28 349.397C1860.79 344.802 1884.47 338.44 1908.33 330.664C2006.24 298.675 2109.09 246.186 2161.93 200.237" stroke="#637CED" stroke-miterlimit="10"/>
<path d="M-171.609 1116.76C-62.5668 907.688 197.05 791.046 424.679 847.07C508.802 867.924 593.279 909.986 678.287 891.075C760.82 872.872 820.378 800.236 855.547 722.651C864.384 703.211 871.807 683.417 878.522 663.447C898.493 603.889 913.161 542.033 935.253 484.772C950.098 446.245 969.185 409.132 994.457 378.027C1019.55 346.746 1049.42 322.004 1085.65 304.861C1162.7 268.631 1259.91 275.877 1348.45 293.727C1438.23 311.4 1518.46 335.435 1596.22 353.108C1606.83 355.582 1617.43 357.88 1628.21 360.001C1695.55 373.609 1765 380.855 1839.76 369.898C1863.62 366.363 1887.83 360.708 1911.86 353.462C2010.66 323.418 2111.39 267.747 2163.18 212.254" stroke="#5F7FF0" stroke-miterlimit="10"/>
<path d="M-162.242 1150.69C-56.3807 938.263 201.999 815.258 432.455 866.333C517.639 885.243 603.53 925.361 688.538 904.507C770.894 884.36 829.568 810.31 862.97 731.841C871.277 712.224 878.346 692.077 884.708 671.93C903.442 611.665 916.343 549.102 936.667 490.428C950.275 451.194 968.125 412.666 991.984 379.971C1015.84 346.923 1045 319.883 1080.88 300.796C1157.58 260.148 1256.02 264.92 1344.74 284.36C1434.52 303.624 1514.75 333.668 1593.75 357.35C1604.53 360.531 1615.31 363.712 1626.27 366.717C1694.84 385.803 1766.06 398.175 1842.23 390.222C1866.62 387.571 1891.01 382.799 1915.22 375.907C2014.9 347.806 2113.51 288.778 2164.06 223.742" stroke="#5C82F3" stroke-miterlimit="10"/>
<path d="M-152.875 1184.8C-50.3714 969.014 206.771 839.647 440.409 885.774C526.653 902.917 614.135 941.09 699.142 918.292C781.498 896.378 839.112 820.914 870.924 741.562C878.877 721.591 885.592 701.267 891.425 680.767C908.921 619.795 920.055 556.525 938.435 496.614C950.806 456.496 967.419 416.908 990.04 382.446C1012.66 347.807 1040.94 318.469 1076.64 297.262C1152.99 252.196 1252.48 254.493 1341.56 275.347C1431.16 296.201 1511.75 332.078 1591.81 362.122C1602.76 366.187 1613.72 370.251 1624.86 374.139C1694.84 398.528 1767.83 416.201 1845.06 411.43C1869.8 409.839 1894.55 405.774 1918.93 399.412C2019.49 373.256 2115.99 311.047 2165.47 236.29" stroke="#5884F7" stroke-miterlimit="10"/>
<path d="M-143.336 1218.73C-44.3669 999.588 211.715 864.036 448.181 905.037C535.309 920.236 624.381 956.466 709.388 931.723C791.568 907.865 848.298 831.164 878.519 750.751C886.118 730.604 892.304 710.104 897.782 689.249C913.865 627.57 923.408 563.594 940.021 502.269C951.155 461.444 966.354 420.442 987.738 384.389C1009.3 347.983 1036.69 316.348 1072.22 293.197C1148.03 243.712 1248.95 243.535 1338.02 265.98C1427.62 288.425 1508.21 330.31 1589.51 366.363C1600.64 371.311 1611.77 376.083 1623.08 380.855C1694.31 410.546 1769.06 433.521 1847.71 431.753C1872.8 431.223 1897.9 427.688 1922.64 421.856C2024.09 397.644 2118.46 332.077 2166.88 247.777" stroke="#5587FA" stroke-miterlimit="10"/>
<path d="M-133.969 1252.67C-38.3576 1030.34 216.488 888.424 455.957 924.124C544.146 937.379 634.632 971.664 719.639 944.978C801.818 919.176 857.489 841.061 886.119 759.941C914.749 678.822 921.642 591.694 941.435 507.924C961.229 424.154 997.459 338.97 1067.62 289.132C1143.08 235.406 1245.06 232.401 1334.48 256.613C1423.91 280.649 1504.68 328.543 1587.21 370.781C1669.56 413.02 1757.58 451.017 1850.18 452.254C1980.79 454.198 2109.27 376.26 2167.77 259.618" stroke="#518AFD" stroke-miterlimit="10"/>
</g>
<g filter="url(#filter0_f_65_461)">
<ellipse cx="133.562" cy="1401.7" rx="262.5" ry="72" fill="#030416"/>
</g>
</g>
</g>
<defs>
<filter id="filter0_f_65_461" x="-204.938" y="1253.7" width="677" height="296" filterUnits="userSpaceOnUse" color-interpolation-filters="sRGB">
<feFlood flood-opacity="0" result="BackgroundImageFix"/>
<feBlend mode="normal" in="SourceGraphic" in2="BackgroundImageFix" result="shape"/>
<feGaussianBlur stdDeviation="38" result="effect1_foregroundBlur_65_461"/>
</filter>
<clipPath id="clip0_65_461">
<rect x="-93.1445" y="0.884552" width="2120.76" height="1413.84" rx="40" fill="white"/>
</clipPath>
</defs>
</svg>
