<svg width="883" height="588" viewBox="0 0 883 588" fill="none" xmlns="http://www.w3.org/2000/svg">
<g opacity="0.4">
<g clip-path="url(#clip0_65_774)">
<mask id="mask0_65_774" style="mask-type:luminance" maskUnits="userSpaceOnUse" x="0" y="0" width="883" height="588">
<path d="M6.10352e-05 0H883V588H6.10352e-05V0Z" fill="white"/>
</mask>
<g mask="url(#mask0_65_774)">
<path d="M1442.38 705.306C1432.3 649.078 1375.34 615.562 1320.38 609.021C1265.41 602.406 1209.41 615.268 1153.86 615.268C1005 615.195 864.676 512.883 815.964 368.896C800.364 322.738 793.521 273.567 778.289 227.262C763.058 180.957 737.23 135.901 695.287 113.851C634.949 82.1727 559.379 106.575 498.525 142.002C437.672 177.429 380.645 224.322 313.169 240.565C224.501 261.88 132.448 225.204 64.6045 166.036C-3.16572 106.869 -51.0684 27.3417 -97.8674 -50.8623" stroke="#D4E8F7" stroke-miterlimit="10"/>
<path d="M1445.69 699.867C1434.65 643.934 1377.85 610.491 1322.81 603.729C1299.04 600.789 1274.98 601.524 1250.92 603.509C1219.35 606.081 1187.71 610.638 1156.29 611.3C1092.2 612.696 1029.72 596.306 974.832 564.48C932.448 539.931 894.699 507.518 864.604 468.636C843.044 441 825.899 409.836 813.905 376.026C808.533 360.885 804.118 345.377 800.071 329.721C791.83 297.896 785.06 265.556 774.391 234.759C762.249 199.847 743.927 166.037 716.701 143.031C708.239 135.828 699.041 129.654 688.96 124.803C646.65 104.517 597.717 111.5 550.918 128.772C530.683 136.269 510.815 145.604 492.346 155.673C471.669 166.919 451.433 179.046 431.272 190.586C391.684 213.371 352.611 234.318 310.301 241.962C282.78 246.887 255.628 245.637 228.77 239.61C174.171 227.409 120.529 194.849 75.7905 153.321C63.5021 141.929 51.8024 129.948 40.4705 117.453C-9.86047 61.9607 -51.95 -2.20481 -93.451 -62.6953" stroke="#D4E8F7" stroke-miterlimit="10"/>
<path d="M1449 694.354C1436.94 638.715 1380.35 605.272 1325.24 598.29C1301.4 595.276 1277.33 596.011 1253.2 598.069C1221.63 600.789 1189.99 605.787 1158.64 607.183C1094.7 610.05 1032.3 596.305 976.893 565.803C934.068 542.283 895.731 511.413 864.458 474.001C842.089 447.247 824.281 416.598 811.772 383.008C806.18 368.014 801.618 352.506 797.35 336.85C788.741 305.098 781.603 272.685 770.492 242.182C757.836 207.49 738.851 174.489 710.742 152.586C702.06 145.824 692.788 140.017 682.634 135.607C640.102 117.159 591.832 125.832 545.106 143.178C524.797 150.675 504.783 159.715 486.092 169.123C465.195 179.634 444.739 190.659 424.65 200.802C385.21 220.941 347.167 238.654 307.285 243.064C281.457 245.931 256.807 242.623 232.009 234.979C181.752 219.324 130.759 183.823 86.7557 140.385C74.688 128.478 62.9883 115.983 51.5828 103.194C0.73676 46.0108 -44.517 -17.5667 -89.1821 -74.8232" stroke="#D4E8F7" stroke-miterlimit="10"/>
<path d="M1452.31 688.842C1439.21 633.496 1382.85 600.054 1327.66 592.924C1303.82 589.837 1279.61 590.499 1255.48 592.704C1223.84 595.644 1192.34 601.083 1161 603.141C1097.13 607.477 1034.95 596.379 978.951 567.199C935.684 544.708 896.685 515.382 864.308 479.44C841.056 453.568 822.66 423.433 809.636 389.991C803.823 375.07 799.04 359.709 794.551 343.98C785.574 312.301 778.068 279.814 766.516 249.532C753.344 215.061 733.771 182.868 704.706 162.067C695.802 155.746 686.457 150.307 676.303 146.412C633.624 129.801 585.942 140.238 539.291 157.584C518.908 165.154 498.82 173.827 479.909 182.574C458.79 192.349 438.187 202.272 418.099 211.092C378.805 228.438 341.719 243.064 304.339 244.24C280.13 244.975 257.981 239.757 235.391 230.422C189.475 211.459 141.131 172.798 97.9377 127.522C86.0908 115.027 74.4646 102.165 62.9856 89.0083C11.698 30.1348 -36.7198 -32.8547 -84.6961 -86.8037" stroke="#D4E8F7" stroke-miterlimit="10"/>
<path d="M1455.62 683.329C1441.5 628.351 1385.35 594.836 1330.02 587.559C1306.1 584.399 1281.89 584.986 1257.69 587.412C1226.05 590.499 1194.55 596.379 1163.28 599.172C1099.56 604.905 1037.45 596.526 981.013 568.743C937.23 547.281 897.569 519.572 864.236 485.027C840.027 460.037 821.116 430.416 807.65 397.194C801.616 382.421 796.613 367.059 791.977 351.33C782.632 319.652 774.758 287.238 762.691 257.103C749.004 222.926 728.842 191.394 698.82 171.843C689.696 165.89 680.277 160.965 670.049 157.437C627.15 142.664 580.204 154.865 533.479 172.211C513.096 179.855 492.787 188.16 473.729 196.319C452.39 205.433 431.566 214.179 411.625 221.676C372.478 236.376 336.349 247.695 301.544 245.711C278.954 244.388 259.307 237.111 238.851 226.086C197.203 203.742 151.655 162.068 109.124 114.954C97.4239 101.945 85.8713 88.5675 74.3187 75.0435C22.5896 14.553 -28.9922 -47.9955 -80.2062 -98.5635" stroke="#D4E8F7" stroke-miterlimit="10"/>
<path d="M1458.94 677.817C1443.78 623.133 1387.86 589.617 1332.45 582.194C1308.53 578.96 1284.25 579.548 1259.97 582.047C1228.33 585.281 1196.83 591.602 1165.63 595.13C1102.06 602.333 1040.1 596.526 983.074 570.14C938.85 549.707 898.527 523.614 864.09 490.539C838.998 466.431 819.498 437.252 805.517 404.25C799.263 389.55 794.038 374.262 789.256 358.607C779.543 327.002 771.301 294.515 758.792 264.674C744.59 230.717 723.84 199.994 692.861 181.545C683.59 176.033 674.024 171.476 663.796 168.389C620.75 155.526 574.392 169.344 527.74 186.837C507.284 194.481 486.828 202.493 467.549 209.99C445.989 218.369 425.018 226.013 405.077 232.113C366.078 244.094 330.758 252.252 298.602 247.034C277.557 243.653 260.559 234.318 242.163 221.676C204.783 195.878 161.958 151.263 120.162 102.239C108.683 88.7145 97.1306 74.8966 85.5044 61.0051C33.3339 -1.17595 -21.4858 -63.1365 -75.9375 -110.397" stroke="#D4E8F7" stroke-miterlimit="10"/>
<path d="M1462.32 672.378C1446.13 617.988 1390.43 584.545 1334.95 576.901C1310.96 573.594 1286.6 574.108 1262.32 576.754C1230.61 580.209 1199.26 586.971 1168.06 591.16C1104.56 599.76 1042.75 596.673 985.206 571.609C940.541 552.279 899.481 527.73 864.014 496.051C837.966 472.825 817.951 444.16 803.455 411.379C797.053 396.753 791.608 381.538 786.531 365.883C776.45 334.351 767.767 301.791 754.89 272.17C740.174 238.507 718.834 208.446 686.899 191.173C677.407 186.028 667.767 181.912 657.466 179.266C614.272 168.241 568.577 183.823 521.925 201.316C501.396 209.034 480.792 216.678 461.366 223.513C439.586 231.157 418.467 237.699 398.526 242.476C359.674 251.811 325.09 256.588 295.657 248.283C276.083 242.77 261.735 231.451 245.546 217.119C212.507 187.939 172.331 140.238 131.271 89.3758C120.013 75.2638 108.461 61.0048 96.7609 46.8193C44.0752 -17.0522 -13.8348 -78.4247 -71.5242 -122.451" stroke="#D4E8F7" stroke-miterlimit="10"/>
<path d="M1465.63 666.865C1448.41 612.843 1392.93 579.327 1337.38 571.462C1313.39 568.081 1288.96 568.596 1264.6 571.389C1232.89 574.99 1201.54 582.193 1170.42 587.118C1107.06 597.187 1045.32 596.746 987.268 573.006C942.161 554.704 900.366 531.772 863.868 501.49C836.937 479.146 816.333 450.996 801.322 418.435C794.7 403.956 789.034 388.741 783.81 373.086C773.361 341.554 764.31 308.994 750.991 279.594C735.76 246.151 713.832 216.825 680.94 200.802C671.301 196.098 661.514 192.349 651.212 190.144C607.798 180.957 562.765 198.303 516.187 215.796C495.657 223.513 474.833 230.863 455.26 237.037C433.332 243.946 411.919 249.385 392.052 252.766C353.347 259.381 319.499 260.778 292.862 249.459C274.687 241.741 263.134 228.511 249.006 212.562C220.235 179.928 182.781 129.286 142.457 76.5133C131.346 61.8868 119.941 47.1868 108.094 32.6338C54.9667 -32.9282 -6.18105 -93.7861 -67.108 -134.432" stroke="#D4E8F7" stroke-miterlimit="10"/>
<path d="M1468.94 661.353C1450.69 607.624 1395.43 574.108 1339.73 566.097C1315.67 562.642 1291.16 563.083 1266.81 566.023C1235.09 569.845 1203.75 577.489 1172.77 583.075C1109.56 594.615 1047.97 596.82 989.325 574.476C943.777 557.203 901.32 535.888 863.718 507.003C835.83 485.541 814.712 457.905 799.186 425.491C792.343 411.085 786.456 395.944 781.011 380.289C770.194 348.831 760.775 316.197 747.015 287.017C731.268 253.795 708.826 225.204 674.904 210.357C665.043 206.02 655.183 202.713 644.808 201.022C601.247 193.672 556.876 212.709 510.298 230.275C489.694 238.066 468.723 245.049 448.929 250.635C426.781 256.882 405.221 261.145 385.353 263.203C346.796 267.172 313.536 265.041 289.768 250.782C272.991 240.786 264.161 225.718 252.241 208.152C227.811 172.063 193.006 118.482 153.492 63.7979C142.602 48.6569 131.196 33.4424 119.276 18.5954C65.7072 -48.6571 1.39548 -108.927 -62.7692 -146.265" stroke="#D4E8F7" stroke-miterlimit="10"/>
<path d="M1472.25 655.84C1452.98 602.406 1397.93 568.89 1342.16 560.731C1318.1 557.203 1293.52 557.571 1269.09 560.658C1237.38 564.627 1206.1 572.712 1175.12 579.106C1111.99 592.042 1050.55 596.967 991.387 575.946C945.397 559.702 902.204 540.004 863.573 512.589C834.728 492.082 813.094 464.887 797.053 432.694C789.989 418.435 783.955 403.294 778.289 387.639C767.031 356.254 757.318 323.547 743.117 294.661C726.855 261.733 703.823 233.803 668.945 220.206C658.937 216.31 648.93 213.444 638.555 212.121C594.846 206.608 551.064 227.409 504.559 244.975C483.883 252.766 462.838 259.455 442.823 264.379C420.454 269.892 398.747 273.052 378.953 273.714C340.542 274.963 308.018 269.157 286.974 252.178C271.668 239.83 265.561 222.999 255.701 203.742C235.539 164.199 203.53 107.604 164.678 51.0824C153.935 35.4269 142.603 19.7714 130.609 4.4834C76.5988 -64.4596 9.0494 -124.142 -58.3529 -158.246" stroke="#D4E8F7" stroke-miterlimit="10"/>
<path d="M1475.57 650.328C1455.33 597.187 1400.44 563.745 1344.59 555.366C1320.45 551.764 1295.88 552.132 1271.45 555.292C1239.66 559.482 1208.46 567.934 1177.55 575.064C1114.57 589.47 1053.27 596.967 993.522 577.342C947.017 562.128 903.088 544.12 863.5 518.028C833.699 498.403 811.55 471.723 794.994 439.677C787.709 425.491 781.455 410.424 775.642 394.768C764.016 363.384 753.935 330.676 739.292 302.011C722.515 269.304 698.968 242.035 663.059 229.687C652.831 226.159 642.75 223.734 632.301 222.852C588.372 219.25 545.326 241.668 498.821 259.381C478.144 267.246 456.879 273.567 436.717 277.83C414.127 282.607 392.273 284.739 372.479 284.004C334.289 282.607 302.427 272.905 284.179 253.354C270.271 238.507 266.887 220.059 259.234 199.185C243.413 156.187 214.054 96.6524 175.937 38.2199C165.415 21.9764 154.157 5.95342 142.016 -9.70208C87.4903 -80.3356 16.8504 -139.43 -53.8632 -170.226" stroke="#D4E8F7" stroke-miterlimit="10"/>
<path d="M1478.88 644.889C1457.61 592.116 1402.94 558.6 1347.02 550.074C1322.88 546.399 1298.16 546.693 1273.73 550.074C1241.94 554.41 1210.74 563.377 1179.91 571.168C1117 587.044 1055.85 597.187 995.584 578.886C948.637 564.774 903.972 548.31 863.354 523.614C832.67 504.945 809.933 478.705 792.861 446.88C785.356 432.841 778.881 417.774 772.847 402.118C760.853 370.807 750.404 338.1 735.246 309.582C717.954 277.168 693.892 250.561 656.879 239.389C646.504 236.229 636.276 234.244 625.754 233.803C581.677 232.039 539.22 256.221 492.789 273.934C472.038 281.872 450.625 287.826 430.243 291.501C407.432 295.543 385.357 296.572 365.637 294.514C327.594 290.472 296.615 276.874 280.942 254.824C268.654 237.478 267.844 217.413 262.252 194.848C250.773 148.396 224.062 85.9214 186.682 25.6514C176.38 8.8934 165.122 -7.6441 152.981 -23.5936C98.014 -95.8441 24.21 -154.497 -49.7412 -181.913" stroke="#D4E8F7" stroke-miterlimit="10"/>
<path d="M1482.19 639.377C1459.89 586.898 1405.44 553.382 1349.37 544.635C1325.16 540.887 1300.44 541.107 1275.93 544.635C1244.15 549.119 1213.02 558.527 1182.19 567.053C1119.42 584.325 1058.35 597.188 997.641 580.283C950.254 567.2 904.853 552.426 863.278 529.053C831.637 511.266 808.385 485.541 790.798 453.936C783.072 439.971 776.376 424.977 770.195 409.322C757.833 378.084 747.016 345.303 731.417 317.079C713.683 284.886 689.033 258.941 650.99 249.092C640.394 246.372 630.092 244.755 619.57 244.755C575.346 244.829 533.551 270.774 487.12 288.488C466.296 296.426 444.736 302.085 424.206 305.099C401.175 308.48 378.953 308.333 359.232 304.878C321.337 298.19 291.315 280.623 278.143 256.074C267.474 236.156 269.24 214.547 265.781 190.365C258.644 140.459 234.582 74.9702 197.938 12.8627C187.783 -4.40982 176.598 -21.3883 164.384 -37.7053C108.975 -111.646 31.9337 -169.711 -45.2552 -193.819" stroke="#D4E8F7" stroke-miterlimit="10"/>
<path d="M1485.57 633.864C1462.25 581.679 1408.09 548.163 1351.87 539.269C1327.66 535.447 1302.79 535.668 1278.29 539.269C1246.43 543.973 1215.38 553.749 1184.62 563.01C1122 581.752 1061.07 597.261 999.777 581.679C951.948 569.625 905.811 556.468 863.206 534.565C830.609 517.734 806.842 492.45 788.74 460.992C780.793 447.1 773.95 432.18 767.474 416.525C754.745 385.287 743.56 352.506 727.519 324.502C709.27 292.603 684.105 267.246 645.032 258.646C634.289 256.294 623.84 255.192 613.244 255.633C568.8 257.544 527.666 285.18 481.235 302.967C460.411 310.979 438.631 316.27 417.954 318.622C394.701 321.268 372.332 320.092 352.612 315.241C314.937 305.907 285.945 284.445 275.128 257.323C266.225 234.906 270.419 211.68 269.021 185.808C266.225 132.447 244.886 64.0185 208.977 -2.66633e-05C199.043 -17.8605 187.859 -35.28 175.57 -51.891C119.647 -127.523 39.5146 -185 -40.9119 -205.874" stroke="#D4E8F7" stroke-miterlimit="10"/>
<path d="M1488.88 628.352C1464.53 576.534 1410.59 542.945 1354.3 533.904C1330.02 530.009 1305.15 530.156 1280.57 533.978C1248.71 538.829 1217.73 549.119 1187.04 559.041C1124.5 579.254 1063.72 597.408 1001.91 583.149C953.638 572.124 906.691 560.658 863.13 540.078C829.576 524.202 805.294 499.359 786.677 468.122C778.509 454.377 771.445 439.457 764.823 423.875C751.725 392.711 740.172 359.856 723.69 332.073C704.926 300.395 679.245 275.699 639.142 268.349C628.178 266.364 617.656 265.703 607.06 266.585C562.469 270.333 521.998 299.733 475.567 317.52C454.669 325.532 432.815 330.53 411.843 332.22C388.444 334.131 365.854 331.853 346.207 325.605C308.68 313.698 280.865 288.267 272.403 258.573C265.265 233.657 271.814 208.814 272.624 181.325C274.169 124.583 255.479 53.1405 220.306 -12.789C210.519 -31.164 199.482 -49.0245 187.046 -66.0765C130.682 -143.399 47.3115 -200.361 -36.3527 -217.854" stroke="#D4E8F7" stroke-miterlimit="10"/>
<path d="M1492.2 622.839C1466.81 571.316 1413.09 537.8 1356.73 528.539C1332.45 524.57 1307.43 524.716 1282.85 528.612C1250.99 533.683 1220.01 544.341 1189.4 554.999C1127 576.608 1066.37 597.408 1003.97 584.619C955.258 574.697 907.576 564.848 862.984 545.591C828.4 530.67 803.603 506.268 784.544 475.177C776.156 461.506 768.871 446.733 762.102 431.077C748.636 399.987 736.642 367.059 719.791 339.57C700.512 308.112 674.243 284.004 633.184 278.05C622.072 276.433 611.329 276.213 600.733 277.536C555.921 283.122 516.112 314.286 469.755 332.146C448.784 340.231 426.782 344.862 405.664 345.964C382.044 347.14 359.233 343.833 339.66 336.189C302.279 321.636 275.716 292.383 269.461 260.043C264.163 232.627 273.067 206.167 275.936 177.061C281.897 116.865 265.782 42.4095 231.345 -25.3575C221.779 -44.247 210.742 -62.622 198.232 -79.968C141.426 -158.981 54.8922 -215.355 -32.0097 -229.541" stroke="#D4E8F7" stroke-miterlimit="10"/>
<path d="M1495.51 617.4C1469.09 566.171 1415.6 532.655 1359.08 523.247C1334.73 519.204 1309.71 519.278 1285.06 523.32C1253.12 528.539 1222.22 539.71 1191.68 551.029C1129.43 574.108 1068.87 597.555 1005.96 586.089C956.731 577.196 908.386 569.037 862.765 551.103C827.224 537.138 801.911 513.103 782.338 482.307C773.729 468.783 766.223 454.009 759.233 438.354C745.399 407.264 733.037 374.335 715.745 347.067C695.951 315.903 669.167 292.31 627.077 287.679C615.819 286.43 604.929 286.65 594.333 288.414C549.373 295.911 510.227 328.692 463.87 346.626C442.825 354.711 420.676 359.047 399.411 359.488C375.57 360.003 352.612 355.52 333.038 346.479C295.805 329.28 270.493 296.279 266.445 261.219C263.061 231.452 274.319 203.227 279.249 172.431C289.698 108.78 276.085 31.3845 242.384 -38.2935C233.039 -57.6975 222.001 -76.5135 209.418 -94.227C152.244 -174.93 62.5461 -230.79 -27.6671 -241.668" stroke="#D4E8F7" stroke-miterlimit="10"/>
<path d="M1498.82 611.887C1471.37 560.952 1418.1 527.436 1361.51 517.807C1337.15 513.691 1312.06 513.691 1287.34 517.881C1255.4 523.32 1224.57 534.859 1194.03 546.913C1131.86 571.462 1071.52 597.555 1008.02 587.412C958.347 579.547 909.193 573.153 862.615 556.468C826.118 543.459 800.29 519.865 780.202 489.289C771.445 475.839 763.719 461.139 756.508 445.483C742.233 414.466 729.576 381.538 711.843 354.417C691.534 323.473 664.234 300.541 621.114 297.16C609.635 296.278 598.672 297.013 588.002 299.145C542.895 308.479 504.338 343.024 458.054 360.958C437.009 369.117 414.64 373.086 393.227 372.865C369.165 372.645 346.06 367.132 326.487 356.695C289.401 336.85 265.339 300.1 263.573 262.321C262.101 230.128 275.641 200.214 282.631 167.8C297.348 100.768 286.531 20.3593 253.492 -51.2297C244.294 -71.2217 233.404 -90.4787 220.674 -108.486C163.058 -190.733 70.1961 -246.005 -23.2547 -253.575" stroke="#D4E8F7" stroke-miterlimit="10"/>
<path d="M1502.13 606.375C1473.65 555.807 1420.6 522.217 1363.94 512.442C1339.51 508.252 1314.34 508.253 1289.62 512.589C1257.69 518.175 1226.85 530.155 1196.39 542.944C1134.36 568.89 1074.09 597.702 1010.08 588.882C959.967 582.046 910.077 577.342 862.469 562.054C825.015 550 798.672 526.848 778.069 496.419C769.092 483.116 761.145 468.416 753.713 452.76C739.07 421.817 726.046 388.815 707.797 361.988C686.973 331.338 659.158 308.847 615.008 306.936C603.382 306.422 592.271 307.598 581.601 310.244C536.274 321.416 498.452 357.725 452.168 375.659C431.05 383.891 408.533 387.492 386.9 386.61C362.617 385.655 339.292 379.113 319.792 367.28C282.853 344.862 260.042 304.364 260.484 263.792C260.852 229.247 276.672 197.568 285.87 163.464C304.928 92.9776 296.76 9.55507 264.531 -63.7979C255.554 -84.3044 244.663 -104.002 231.86 -122.451C173.655 -206.461 77.6292 -261.219 -19.0593 -265.482" stroke="#D4E8F7" stroke-miterlimit="10"/>
<path d="M1505.44 600.863C1476.01 550.589 1423.1 517.073 1366.37 507.077C1341.94 502.814 1316.7 502.74 1291.9 507.224C1259.97 512.957 1229.14 525.452 1198.75 538.902C1136.86 566.318 1076.67 597.776 1012.21 590.352C961.661 584.546 911.035 581.532 862.397 567.567C823.986 556.469 797.128 533.757 776.083 503.549C766.885 490.319 758.718 475.692 751.139 460.037C736.128 429.093 722.735 396.092 704.045 369.485C682.706 339.056 654.303 317.153 609.196 316.565C597.349 316.418 586.165 318.035 575.422 321.122C529.947 334.131 492.714 372.131 446.504 390.138C425.312 398.37 402.648 401.678 380.867 400.208C356.364 398.517 332.817 390.947 313.465 377.643C276.6 352.653 255.113 308.48 257.762 265.041C260.043 228.218 278.145 194.702 289.403 158.981C312.803 85.0396 307.284 -1.3229 275.79 -76.5869C267.034 -97.6079 256.144 -117.747 243.34 -136.563C184.694 -222.264 85.4301 -276.433 -14.496 -277.462" stroke="#D4E8F7" stroke-miterlimit="10"/>
<path d="M1508.82 595.423C1478.36 545.443 1425.68 511.927 1368.8 501.784C1344.29 497.448 1318.98 497.301 1294.18 501.931C1262.17 507.885 1231.49 520.747 1201.17 534.933C1139.36 563.818 1079.39 597.849 1014.34 591.822C963.351 587.118 911.916 585.868 862.395 573.079C823.028 563.083 795.655 540.666 774.095 510.604C764.676 497.448 756.361 482.895 748.561 467.239C733.182 436.369 719.422 403.294 700.291 376.908C678.436 346.699 649.518 325.384 603.381 326.119C591.387 326.34 580.055 328.398 569.312 331.926C523.691 346.773 487.12 386.536 440.909 404.617C419.717 412.923 396.907 415.863 374.905 413.731C350.181 411.379 326.487 402.633 307.135 388.006C270.417 360.37 250.181 312.595 255.112 266.29C259.306 227.115 279.688 191.908 293.08 154.497C320.821 77.175 317.952 -12.2011 287.194 -89.3761C278.585 -110.912 267.841 -131.565 254.891 -150.675C195.803 -238.067 93.3753 -291.648 -9.78856 -289.37" stroke="#D4E8F7" stroke-miterlimit="10"/>
<path d="M1512.14 589.911C1467.03 518.836 1379.1 480.763 1296.46 496.566C1199.19 515.161 1114.12 600.201 1016.41 593.218C964.971 589.543 912.801 589.984 862.249 578.518C804.339 565.435 772.036 525.892 745.766 474.442C711.992 408.366 685.649 331.779 597.349 335.748C533.478 338.614 492.051 396.753 435.024 419.097C389.844 436.81 337.011 428.652 300.44 398.37C263.869 368.088 244.811 316.711 252.022 267.54C258.056 226.086 280.72 189.042 296.246 149.94C337.305 46.5989 325.532 -75.7786 265.929 -164.861C206.327 -253.943 100.808 -307.01 -5.66675 -301.35" stroke="#D4E8F7" stroke-miterlimit="10"/>
<path d="M1506.91 600.054C1461.15 534.565 1373.73 499.138 1291.68 513.618C1250.62 520.821 1211.7 539.122 1173.29 556.836C1133.92 575.064 1095.14 592.777 1054.67 597.922C1041.65 599.613 1028.4 599.98 1015.01 598.584C964.605 593.365 913.759 592.116 863.428 580.282C806.401 566.905 773.435 528.979 746.283 480.396C740.029 469.224 733.995 457.831 727.814 446.586C709.712 413.511 690.433 382.2 659.896 364.78C642.825 355.078 622.295 349.566 596.762 350.448C533.701 352.579 492.494 405.72 437.233 424.83C429.875 427.329 422.369 429.166 414.79 430.342C377.042 436.075 337.086 425.197 307.947 399.619C272.921 368.896 254.82 318.034 261.369 269.377C266.888 228.144 288.153 190.879 302.428 151.777C327.079 84.3044 329.875 9.11386 312.141 -59.2411C302.576 -95.7706 287.197 -130.242 266.152 -160.671C227.815 -216.237 171.376 -257.324 108.021 -279.006C71.5974 -291.501 32.8927 -297.381 -5.88577 -295.691" stroke="#D4E8F7" stroke-miterlimit="10"/>
<path d="M1501.69 610.27C1455.26 550.294 1368.35 517.587 1286.9 530.817C1245.99 537.432 1207.21 554.043 1169.16 569.772C1130.17 585.942 1092.2 601.303 1052.39 604.831C1039.58 606.007 1026.63 605.86 1013.54 604.096C964.235 597.408 914.566 594.468 864.529 582.12C808.312 568.449 774.831 531.993 746.722 486.349C740.247 475.839 733.919 465.181 727.591 454.671C708.901 423.801 689.401 394.842 658.864 378.819C641.719 369.852 621.336 364.633 596.245 365.221C533.993 366.618 492.934 414.834 439.438 430.71C432.301 432.768 425.09 434.238 417.731 435.046C381.381 438.942 343.191 426.961 315.377 401.089C281.97 369.925 264.678 319.578 270.712 271.362C275.789 230.349 295.509 192.937 308.534 153.762C331.05 86.2889 332.301 11.3923 313.611 -56.1542C303.456 -92.3897 287.562 -126.42 266.223 -156.335C227.298 -210.945 170.786 -251.15 107.357 -272.759C71.0067 -285.18 32.4492 -291.207 -6.25563 -289.884" stroke="#D4E8F7" stroke-miterlimit="10"/>
<path d="M1496.54 620.487C1449.44 566.097 1363.05 535.962 1282.11 547.943C1241.42 553.896 1202.79 568.89 1165.12 582.708C1126.48 596.82 1089.25 609.903 1050.25 611.741C1037.67 612.329 1025.09 611.741 1012.21 609.609C963.939 601.377 915.595 596.673 865.852 583.958C810.518 569.846 776.375 535.08 747.457 492.303C740.761 482.454 734.212 472.532 727.663 462.756C708.384 434.165 688.59 407.484 658.127 392.858C640.908 384.552 620.599 379.701 595.949 379.995C534.507 380.583 493.668 424.022 441.939 436.517C435.095 438.207 428.032 439.163 421.041 439.604C386.089 441.735 349.739 428.652 323.249 402.339C291.387 370.734 274.978 320.901 280.423 273.126C284.985 232.26 303.308 194.775 315.081 155.526C335.464 87.9796 335.39 13.524 315.596 -53.214C304.927 -89.229 288.444 -122.745 266.81 -152.145C227.296 -205.873 170.711 -245.122 107.135 -266.731C70.858 -279.079 32.3739 -285.18 -6.18376 -284.224" stroke="#D4E8F7" stroke-miterlimit="10"/>
<path d="M1491.31 630.704C1443.56 581.9 1357.69 554.411 1277.33 565.068C1236.79 570.36 1198.38 583.811 1161.07 595.571C1122.88 607.698 1086.31 618.356 1048.05 618.503C1035.76 618.576 1023.4 617.547 1010.81 614.974C963.646 605.346 916.48 598.805 867.032 585.722C812.58 571.316 777.775 538.094 747.974 498.183C741.057 488.996 734.287 479.808 727.517 470.841C707.65 444.454 687.562 420.126 657.172 406.822C639.88 399.252 619.644 394.842 595.435 394.695C534.803 394.401 494.111 432.988 444.222 442.249C437.599 443.499 430.829 444.087 424.06 444.16C390.506 444.454 355.922 430.269 330.756 403.662C300.513 371.616 285.061 322.297 289.844 275.037C293.964 234.391 310.741 196.686 321.264 157.363C339.512 89.817 337.967 15.6555 317.217 -50.2005C305.958 -85.995 289.034 -118.997 267.033 -147.956C226.93 -200.729 170.197 -239.096 106.621 -260.631C70.4183 -272.906 32.0813 -279.153 -6.4028 -278.565" stroke="#D4E8F7" stroke-miterlimit="10"/>
<path d="M1486.09 640.92C1437.6 597.628 1352.39 572.859 1272.55 582.193C1232.23 586.824 1193.89 598.657 1156.95 608.433C1119.13 618.502 1083.37 626.881 1045.77 625.338C1033.7 624.897 1021.63 623.353 1009.42 620.413C963.28 609.315 917.438 601.009 868.284 587.485C814.716 572.712 779.248 541.033 748.564 504.063C741.427 495.463 734.363 487.084 727.446 478.852C707.063 454.671 686.681 432.768 656.217 420.787C638.851 413.952 618.763 409.689 594.922 409.395C535.099 408.66 494.628 442.029 446.505 448.056C440.103 448.864 433.628 449.011 427.152 448.717C394.996 447.174 362.178 431.959 338.337 404.985C309.64 372.424 295.07 323.694 299.264 276.874C302.87 236.449 318.249 198.597 327.447 159.201C343.488 91.6544 340.545 17.8604 318.838 -47.2606C306.991 -82.8346 289.551 -115.322 267.256 -143.766C226.638 -195.584 169.758 -232.995 106.035 -254.531C69.8315 -266.732 31.7155 -273.126 -6.62145 -272.906" stroke="#D4E8F7" stroke-miterlimit="10"/>
<path d="M1480.94 651.063C1431.78 613.358 1347.09 591.161 1267.77 599.319C1227.59 603.288 1189.47 613.505 1152.9 621.369C1115.45 629.454 1080.42 635.408 1043.63 632.247C1031.78 631.218 1020.01 629.307 1008.09 625.926C963.058 613.284 918.393 603.288 869.534 589.323C816.848 574.256 780.718 544.121 749.151 510.017C741.793 502.079 734.508 494.435 727.371 486.938C706.399 465.035 685.722 445.41 655.332 434.826C637.82 428.726 617.879 424.757 594.479 424.169C535.465 422.699 495.142 451.143 448.858 453.863C442.677 454.23 436.496 454.01 430.315 453.348C399.557 449.967 368.505 433.724 345.988 406.382C318.91 373.38 305.223 325.238 308.829 278.786C311.993 238.581 325.9 200.508 333.847 161.112C347.754 93.5656 343.339 20.1391 320.676 -44.1734C308.24 -79.4534 290.286 -111.499 267.622 -139.429C226.415 -190.365 169.462 -226.821 105.665 -248.283C69.5356 -260.484 31.493 -266.952 -6.69674 -267.025" stroke="#D4E8F7" stroke-miterlimit="10"/>
<path d="M1475.71 661.28C1425.9 629.087 1341.72 609.609 1262.99 616.445C1223.03 619.752 1184.99 628.352 1148.86 634.232C1111.77 640.259 1077.56 643.86 1041.43 639.083C1029.87 637.539 1018.32 635.114 1006.69 631.439C962.692 617.327 919.351 605.567 870.786 591.161C818.91 575.799 782.192 547.208 749.742 516.044C742.163 508.767 734.657 501.785 727.299 495.096C705.812 475.398 684.768 458.199 654.451 448.938C636.865 443.573 616.997 439.898 594.113 439.016C535.909 436.811 495.732 460.331 451.288 459.743C445.327 459.669 439.367 459.008 433.48 457.979C404.194 452.76 374.835 435.414 353.643 407.778C328.109 374.336 315.306 326.708 318.323 280.77C320.972 240.786 333.334 202.566 340.103 163.097C351.729 95.4766 345.916 22.4176 322.37 -41.0129C309.345 -76.0725 290.95 -107.604 267.918 -135.093C226.123 -185.073 169.022 -220.647 105.152 -242.109C69.0958 -254.236 31.2004 -260.778 -6.91578 -261.292" stroke="#D4E8F7" stroke-miterlimit="10"/>
<path d="M1470.49 671.496C1420.01 644.889 1336.35 628.204 1258.2 633.57C1218.39 636.289 1180.57 643.272 1144.73 647.094C1108.09 651.063 1074.54 652.312 1039.14 645.918C1027.81 643.86 1016.55 640.993 1005.22 636.877C962.248 621.295 920.159 607.845 871.888 592.998C820.895 577.342 783.441 550.294 750.255 521.997C742.455 515.382 734.729 509.134 727.149 503.181C705.148 485.761 683.735 470.841 653.492 462.903C635.832 458.272 616.112 454.818 593.596 453.715C536.201 450.775 496.171 469.371 453.567 465.549C447.901 465.034 442.161 464.005 436.569 462.609C408.681 455.553 381.161 437.178 361.22 409.101C337.305 375.217 325.311 328.104 327.813 282.607C330.02 242.77 340.911 204.477 346.429 164.934C355.922 97.3137 348.637 24.6222 324.06 -38.0733C310.447 -72.9123 291.536 -103.929 268.21 -130.904C225.826 -180.002 168.652 -214.62 104.708 -236.009C68.7258 -248.063 30.9775 -254.751 -7.06508 -255.633" stroke="#D4E8F7" stroke-miterlimit="10"/>
<path d="M1465.34 681.713C1414.2 660.618 1331.12 646.653 1253.42 650.696C1213.83 652.754 1176.08 658.119 1140.69 659.957C1104.41 661.941 1071.67 660.839 1037.01 652.754C1025.9 650.181 1014.93 646.8 1003.89 642.317C962.026 625.191 921.187 610.05 873.137 594.762C823.027 578.813 784.911 553.235 750.842 527.877C742.821 521.924 734.801 516.411 727.074 511.193C704.558 495.978 682.777 483.483 652.535 476.868C634.801 472.973 615.154 469.812 593.079 468.416C536.494 464.741 496.611 478.338 455.773 471.282C450.328 470.327 444.882 468.857 439.511 467.093C413.021 458.199 387.267 438.722 368.65 410.351C346.281 376.026 335.243 329.427 337.083 284.445C338.775 244.829 348.194 206.315 352.462 166.698C359.82 99.0781 350.99 26.7541 325.53 -35.1329C311.329 -69.6779 291.903 -100.254 268.282 -126.714C225.383 -174.856 168.062 -208.593 103.971 -229.908C68.0622 -241.888 30.3875 -248.724 -7.50792 -249.9" stroke="#D4E8F7" stroke-miterlimit="10"/>
<path d="M1460.11 691.929C1408.31 676.421 1325.75 665.028 1248.63 667.821C1209.19 669.218 1171.67 672.966 1136.64 672.893C1100.73 672.819 1068.72 669.438 1034.8 659.589C1023.98 656.429 1013.24 652.607 1002.5 647.756C961.66 629.16 922.072 612.329 874.39 596.526C825.089 580.283 786.311 556.248 751.432 533.757C743.191 528.465 734.949 523.688 727.002 519.204C703.971 506.195 681.822 496.125 651.653 490.833C633.772 487.673 614.346 484.806 592.639 483.116C536.863 478.706 497.128 487.379 458.129 477.015C452.904 475.619 447.754 473.781 442.676 471.65C417.584 460.919 393.596 440.412 376.304 411.674C355.554 376.908 345.326 330.824 346.65 286.283C347.827 246.887 355.848 208.226 358.865 168.536C364.016 100.916 353.788 28.8855 327.371 -32.1195C312.507 -66.444 292.714 -96.5055 268.725 -122.524C225.238 -169.711 167.843 -202.566 103.678 -223.881C67.8429 -235.788 30.3154 -242.697 -7.43288 -244.314" stroke="#D4E8F7" stroke-miterlimit="10"/>
<path d="M1454.89 702.072C1402.43 692.149 1320.38 683.403 1243.85 684.946C1204.63 685.755 1167.25 687.813 1132.52 685.755C1097.05 683.697 1065.78 677.89 1032.52 666.424C1021.93 662.749 1011.48 658.486 1001.1 653.194C961.367 633.055 922.957 614.533 875.569 598.363C827.151 581.826 787.637 559.335 751.949 539.71C743.487 535.08 735.025 531.037 726.857 527.289C703.31 516.558 680.794 508.84 650.698 504.798C632.744 502.372 613.392 499.8 592.2 497.815C537.233 492.597 497.645 496.345 460.485 482.821C455.482 480.984 450.552 478.705 445.842 476.206C422.148 463.638 399.926 442.102 384.032 412.996C364.827 377.79 355.482 332.22 356.218 288.12C356.88 248.944 363.429 210.136 365.195 170.373C368.212 102.753 356.439 31.0902 329.139 -29.1798C313.687 -63.2103 293.378 -92.8308 269.095 -118.335C225.019 -164.64 167.477 -196.539 103.238 -217.781C67.4768 -229.614 30.0229 -236.67 -7.57815 -238.655" stroke="#D4E8F7" stroke-miterlimit="10"/>
<path d="M1449.74 712.289C1396.54 707.879 1315.08 701.852 1239.07 702.072C1200 702.219 1162.76 702.734 1128.47 698.618C1093.37 694.502 1062.84 686.417 1030.39 673.26C1020.01 669.071 1009.86 664.293 999.776 658.634C961.071 637.025 923.985 616.812 876.892 600.128C829.284 583.296 789.107 562.422 752.61 545.591C743.927 541.622 735.244 538.314 726.856 535.301C702.794 526.775 679.909 521.483 649.887 518.763C631.86 517.146 612.581 514.721 591.83 512.442C537.673 506.489 498.232 505.239 462.912 488.481C458.129 486.203 453.494 483.557 449.005 480.69C426.709 466.284 406.327 443.646 391.683 414.173C374.097 378.525 365.561 333.47 365.782 289.884C365.929 250.856 371.08 211.901 371.595 172.137C372.478 104.517 359.16 33.2221 330.977 -26.2394C314.936 -60.0494 294.112 -89.1554 269.462 -114.145C224.797 -159.495 167.181 -190.438 102.869 -211.68C67.181 -223.513 29.8742 -230.643 -7.65332 -232.921" stroke="#D4E8F7" stroke-miterlimit="10"/>
<path d="M1444.51 722.505C1390.65 723.681 1309.71 720.227 1234.28 719.198C1195.43 718.683 1158.35 717.581 1124.42 711.554C1089.69 705.38 1059.89 694.943 1028.18 680.169C1018.1 675.465 1008.16 670.173 998.376 664.146C960.775 640.994 924.866 619.164 878.067 601.965C831.342 584.84 790.356 565.509 753.196 551.618C744.219 548.31 735.389 545.738 726.78 543.533C702.203 537.212 678.877 534.419 648.929 532.949C630.754 532.067 611.696 529.935 591.313 527.363C537.892 520.674 498.672 514.426 465.191 494.434C460.629 491.715 456.288 488.628 452.093 485.394C431.196 469.151 412.579 445.484 399.261 415.643C383.219 379.554 375.567 335.013 375.199 291.869C374.905 253.061 378.51 213.959 377.774 174.122C376.523 106.428 361.733 35.574 332.594 -23.079C315.964 -56.6685 294.699 -85.26 269.68 -109.735C224.5 -154.129 166.737 -184.191 102.278 -205.359C66.5904 -217.119 29.5045 -224.396 -7.94942 -227.042" stroke="#D4E8F7" stroke-miterlimit="10"/>
<path d="M1439.29 732.721C1384.76 739.41 1304.34 738.675 1229.5 736.323C1190.8 735.147 1153.86 732.427 1120.31 724.416C1085.94 716.257 1056.95 703.468 1025.9 687.004C1016.04 681.786 1006.4 675.979 996.906 669.585C960.335 644.889 925.751 621.369 879.246 603.802C833.33 586.383 791.682 568.669 753.713 557.571C744.515 554.925 735.465 553.087 726.635 551.617C701.543 547.428 677.849 546.325 647.974 546.913C629.725 547.281 610.741 544.929 590.8 542.062C538.188 534.565 499.115 523.393 467.474 500.167C463.133 497.007 459.086 493.552 455.112 489.951C435.612 471.87 418.762 447.1 406.768 416.965C392.345 380.436 385.502 336.409 384.619 293.706C383.81 255.118 386.017 215.869 384.031 175.885C380.646 108.192 364.31 37.7052 334.215 -20.2128C316.923 -53.5083 295.216 -81.6588 269.903 -105.693C224.134 -149.205 166.224 -178.311 101.765 -199.479C66.1506 -211.166 29.1382 -218.516 -8.16858 -221.529" stroke="#D4E8F7" stroke-miterlimit="10"/>
<path d="M1434.14 742.864C1378.95 755.139 1299.11 756.829 1224.72 753.375C1186.23 751.464 1149.44 747.274 1116.26 737.205C1082.33 726.988 1054.01 711.921 1023.76 693.693C1014.12 687.886 1004.78 681.712 995.58 674.877C960.113 648.711 926.706 623.5 880.496 605.419C835.463 587.779 793.079 571.536 754.3 563.304C744.882 561.319 735.61 560.143 726.559 559.482C701.026 557.497 676.891 559.702 647.089 560.731C628.694 561.393 609.93 559.776 590.43 556.615C538.628 548.383 499.702 532.213 469.827 505.827C465.78 502.225 461.88 498.33 458.275 494.361C440.173 474.442 425.089 448.644 414.419 418.141C401.542 381.171 395.655 337.659 394.184 295.47C392.859 257.103 393.742 217.633 390.357 177.649C384.986 109.956 366.958 39.8369 335.979 -17.2726C318.098 -50.3476 295.876 -77.9836 270.269 -101.504C223.912 -144.06 165.928 -172.284 101.322 -193.379C65.7811 -204.992 28.9157 -212.489 -8.24386 -215.87" stroke="#D4E8F7" stroke-miterlimit="10"/>
<path d="M1428.91 753.081C1373.06 770.942 1293.74 775.278 1219.94 770.574C1181.6 768.002 1145.03 762.195 1112.21 750.215C1078.66 738.014 1051.14 720.521 1021.56 700.676C1012.21 694.355 1003.16 687.666 994.184 680.463C959.747 652.754 927.591 625.926 881.675 607.331C837.451 589.397 794.405 574.844 754.817 569.331C745.178 568.008 735.686 567.714 726.414 567.641C700.366 567.347 675.862 572.492 646.135 574.844C627.665 576.24 608.975 574.844 589.917 571.463C538.924 562.422 500.219 541.254 472.11 511.707C468.284 507.664 464.678 503.402 461.367 499.065C444.663 477.309 431.345 450.408 422 419.612C410.742 382.2 405.664 339.203 403.604 297.455C401.764 259.235 401.176 219.692 396.614 179.634C389.034 111.941 369.535 42.189 337.673 -14.1855C319.13 -46.9665 296.54 -74.1615 270.565 -97.167C223.693 -138.768 165.562 -166.11 100.882 -187.131C65.4149 -198.67 28.6969 -206.314 -8.38913 -210.063" stroke="#D4E8F7" stroke-miterlimit="10"/>
<path d="M1423.69 763.297C1367.18 786.67 1288.37 793.726 1215.16 787.699C1177.04 784.465 1140.54 777.042 1108.09 763.077C1074.91 748.818 1048.05 729.12 1019.28 707.511C1010.15 700.675 1001.4 693.472 992.787 685.902C959.454 656.649 928.476 628.204 882.927 609.094C839.587 590.94 795.805 577.93 755.408 575.211C745.547 574.549 735.834 574.843 726.342 575.652C699.779 578.004 674.907 585.207 645.253 588.735C626.71 590.94 608.094 589.764 589.477 586.089C539.293 576.24 500.809 550.147 474.466 517.366C470.861 512.883 467.55 508.179 464.459 503.475C449.227 479.881 437.675 451.951 429.581 420.714C419.868 382.788 415.673 340.378 413.098 299.071C410.743 261.072 408.756 221.382 402.87 181.251C393.157 113.557 372.112 44.1732 339.367 -11.3928C320.236 -43.8798 297.13 -70.7073 270.861 -93.1983C223.4 -133.917 165.196 -160.304 100.369 -181.251C64.9751 -192.717 28.3305 -200.435 -8.60829 -204.551" stroke="#D4E8F7" stroke-miterlimit="10"/>
<path d="M1418.54 773.514C1361.36 802.473 1283.07 812.101 1210.37 804.825C1172.4 800.929 1136.13 791.889 1104.04 775.939C1071.3 759.696 1045.18 737.572 1017.07 714.346C1008.16 706.996 999.703 699.279 991.388 691.341C959.232 660.471 929.357 630.556 884.103 610.932C841.572 592.483 797.128 580.576 755.995 581.238C745.84 581.385 735.906 582.193 726.193 583.81C699.115 588.294 673.876 598.069 644.222 602.847C625.605 605.86 607.136 604.831 588.887 600.936C539.513 590.352 501.176 559.261 476.672 523.32C473.288 518.395 470.271 513.324 467.474 508.252C453.641 482.821 443.854 453.862 437.085 422.257C428.99 383.89 425.532 341.995 422.441 301.203C419.572 263.424 416.113 223.513 408.976 183.382C397.129 115.615 374.465 46.6723 340.911 -8.08517C321.117 -40.3517 297.571 -66.6647 271.007 -88.6412C222.957 -128.405 164.605 -153.909 99.7785 -174.857C64.4585 -186.249 27.9612 -194.114 -8.90407 -198.597" stroke="#D4E8F7" stroke-miterlimit="10"/>
<path d="M1413.31 783.73C1355.4 818.202 1277.7 830.55 1205.59 821.95C1167.84 817.393 1131.64 806.809 1099.92 788.875C1067.54 770.574 1042.16 746.172 1014.86 721.255C1006.18 713.391 998.008 705.232 989.988 696.853C958.862 664.513 930.238 632.908 885.352 612.769C843.63 594.1 798.524 584.325 756.581 587.191C746.206 587.926 736.052 589.543 726.118 591.895C698.45 598.51 672.991 610.858 643.336 616.885C624.646 620.707 606.25 619.899 588.517 615.709C539.952 604.317 501.836 568.302 479.098 529.126C475.934 523.761 473.138 518.248 470.636 512.809C458.201 485.541 450.18 455.479 444.809 423.58C438.26 384.772 435.684 343.392 432.079 303.04C428.62 265.482 423.837 225.424 415.449 185.146C401.468 117.379 377.186 48.8773 342.822 -5.21873C322.366 -37.1912 298.451 -63.0632 271.446 -84.5252C222.808 -123.407 164.382 -147.882 99.4084 -168.83C64.162 -180.222 27.7383 -188.16 -8.90623 -193.011" stroke="#D4E8F7" stroke-miterlimit="10"/>
<path d="M1408.09 793.873C1349.52 833.931 1272.4 848.925 1200.81 839.076C1163.2 833.857 1127.22 821.656 1095.88 801.738C1063.87 781.378 1039.22 754.698 1012.65 728.017C1004.26 719.638 996.317 710.965 988.591 702.292C958.569 668.409 931.123 635.26 886.531 614.533C845.619 595.644 799.924 587.485 757.098 593.071C746.502 594.468 736.127 596.746 725.972 599.907C697.79 608.653 671.962 623.574 642.382 630.85C623.544 635.481 605.369 634.819 588.004 630.409C540.322 618.135 502.426 577.195 481.381 534.859C478.512 529.053 475.936 523.173 473.729 517.366C462.691 488.26 456.437 457.17 452.389 424.903C447.459 385.654 445.693 344.788 441.499 304.878C437.526 267.54 431.271 227.335 421.632 186.984C405.517 119.217 379.689 51.0822 344.369 -2.20533C323.251 -33.8838 298.895 -59.3148 271.595 -80.3358C222.441 -118.262 163.869 -141.855 98.8215 -162.729C63.5751 -174.048 27.3721 -182.133 -9.19877 -187.278" stroke="#D4E8F7" stroke-miterlimit="10"/>
<path d="M1402.87 804.09C1312.43 873.694 1181.53 878.104 1091.76 814.6C1060.19 792.256 1036.27 763.15 1010.37 734.853C970.418 691.12 943.339 642.904 887.71 616.297C837.747 592.41 777.924 588.073 725.901 607.992C697.203 618.943 671.007 636.363 641.5 644.815C563.061 667.233 497.792 589.176 476.821 521.923C455.482 453.421 459.602 378.598 450.92 306.715C438.926 207.123 403.9 84.5249 346.063 0.808375C285.284 -87.2446 199.559 -124.215 98.3819 -156.629C63.2091 -167.874 27.1531 -176.033 -9.34423 -181.619" stroke="#D4E8F7" stroke-miterlimit="10"/>
</g>
</g>
</g>
<defs>
<clipPath id="clip0_65_774">
<rect width="883" height="588" rx="40" transform="matrix(-1 0 0 1 883 0)" fill="white"/>
</clipPath>
</defs>
</svg>
