<svg width="900" height="1700" viewBox="0 0 900 1700" fill="none" xmlns="http://www.w3.org/2000/svg">
<circle cx="150" cy="170" r="88" transform="rotate(180 150 170)" stroke="#F5D7D7" stroke-width="4"/>
<path d="M111.63 162L116.492 147.568H118.56L123.422 162H121.486L118.978 153.926C118.728 153.119 118.479 152.32 118.23 151.528C117.995 150.721 117.768 149.9 117.548 149.064H117.46C117.225 149.9 116.99 150.721 116.756 151.528C116.521 152.32 116.279 153.119 116.03 153.926L113.5 162H111.63ZM114.182 157.6V156.126H120.804V157.6H114.182ZM126.163 162V151.308H127.967V155.642H133.467V151.308H135.271V162H133.467V157.248H127.967V162H126.163ZM142.721 162.264C142.061 162.264 141.452 162.147 140.895 161.912C140.337 161.663 139.897 161.311 139.575 160.856C139.252 160.401 139.091 159.859 139.091 159.228C139.091 158.025 139.692 157.116 140.895 156.5C142.097 155.869 144.077 155.444 146.835 155.224C146.82 154.74 146.717 154.293 146.527 153.882C146.351 153.471 146.057 153.149 145.647 152.914C145.236 152.665 144.686 152.54 143.997 152.54C143.542 152.54 143.087 152.606 142.633 152.738C142.193 152.855 141.767 153.017 141.357 153.222C140.961 153.413 140.594 153.611 140.257 153.816L139.553 152.584C139.905 152.349 140.33 152.115 140.829 151.88C141.342 151.631 141.892 151.433 142.479 151.286C143.065 151.125 143.674 151.044 144.305 151.044C145.287 151.044 146.094 151.227 146.725 151.594C147.37 151.961 147.847 152.474 148.155 153.134C148.477 153.779 148.639 154.549 148.639 155.444V162H147.165L147.011 160.548H146.945C146.358 161.017 145.698 161.421 144.965 161.758C144.231 162.095 143.483 162.264 142.721 162.264ZM143.205 160.812C143.821 160.812 144.429 160.673 145.031 160.394C145.632 160.115 146.233 159.727 146.835 159.228V156.412C145.309 156.544 144.107 156.727 143.227 156.962C142.361 157.197 141.745 157.497 141.379 157.864C141.027 158.216 140.851 158.627 140.851 159.096C140.851 159.492 140.961 159.822 141.181 160.086C141.401 160.335 141.687 160.519 142.039 160.636C142.405 160.753 142.794 160.812 143.205 160.812ZM152.128 162.264C151.923 162.264 151.747 162.249 151.6 162.22C151.453 162.191 151.299 162.147 151.138 162.088L151.49 160.416C151.563 160.431 151.637 160.453 151.71 160.482C151.798 160.497 151.886 160.504 151.974 160.504C152.355 160.504 152.663 160.328 152.898 159.976C153.147 159.609 153.316 159.03 153.404 158.238C153.551 157.094 153.69 155.943 153.822 154.784C153.954 153.625 154.086 152.467 154.218 151.308H161.412V162H159.586V152.782H155.648C155.545 153.765 155.435 154.755 155.318 155.752C155.201 156.735 155.076 157.717 154.944 158.7C154.797 159.888 154.482 160.783 153.998 161.384C153.529 161.971 152.905 162.264 152.128 162.264ZM165.891 162V151.308H167.651V155.752C167.651 156.324 167.629 156.955 167.585 157.644C167.541 158.319 167.505 159.001 167.475 159.69H167.563C167.769 159.353 168.003 158.971 168.267 158.546C168.546 158.106 168.781 157.725 168.971 157.402L173.019 151.308H174.691V162H172.931V157.556C172.931 156.984 172.953 156.353 172.997 155.664C173.041 154.975 173.078 154.285 173.107 153.596H173.019C172.829 153.919 172.594 154.3 172.315 154.74C172.051 155.18 171.817 155.561 171.611 155.884L167.563 162H165.891ZM183.043 162.264C182.177 162.264 181.349 162.154 180.557 161.934C179.779 161.699 179.009 161.274 178.247 160.658L179.039 159.47C179.655 159.969 180.285 160.321 180.931 160.526C181.576 160.717 182.229 160.812 182.889 160.812C184.003 160.812 184.861 160.651 185.463 160.328C186.064 159.991 186.365 159.514 186.365 158.898C186.365 158.297 186.079 157.857 185.507 157.578C184.949 157.299 184.135 157.16 183.065 157.16H181.217V155.752H182.801C183.827 155.752 184.59 155.613 185.089 155.334C185.602 155.041 185.859 154.63 185.859 154.102C185.859 153.559 185.609 153.156 185.111 152.892C184.612 152.613 183.879 152.474 182.911 152.474C182.148 152.474 181.488 152.577 180.931 152.782C180.373 152.973 179.816 153.273 179.259 153.684L178.511 152.474C179.127 152.019 179.794 151.667 180.513 151.418C181.246 151.169 182.082 151.044 183.021 151.044C183.93 151.044 184.729 151.147 185.419 151.352C186.108 151.557 186.651 151.873 187.047 152.298C187.443 152.723 187.641 153.266 187.641 153.926C187.641 154.454 187.479 154.923 187.157 155.334C186.849 155.73 186.372 156.053 185.727 156.302V156.39C186.46 156.581 187.047 156.881 187.487 157.292C187.941 157.688 188.169 158.275 188.169 159.052C188.169 159.727 187.949 160.306 187.509 160.79C187.083 161.274 186.489 161.641 185.727 161.89C184.964 162.139 184.069 162.264 183.043 162.264ZM80.1473 190V179.308H81.9073V183.752C81.9073 184.324 81.8853 184.955 81.8413 185.644C81.7973 186.319 81.7606 187.001 81.7313 187.69H81.8193C82.0246 187.353 82.2593 186.971 82.5233 186.546C82.8019 186.106 83.0366 185.725 83.2273 185.402L87.2753 179.308H88.9473V190H87.1873V185.556C87.1873 184.984 87.2093 184.353 87.2533 183.664C87.2973 182.975 87.3339 182.285 87.3633 181.596H87.2753C87.0846 181.919 86.8499 182.3 86.5713 182.74C86.3073 183.18 86.0726 183.561 85.8673 183.884L81.8193 190H80.1473ZM111.942 190.264C110.827 190.264 109.823 190.044 108.928 189.604C108.048 189.164 107.351 188.526 106.838 187.69C106.339 186.854 106.09 185.849 106.09 184.676C106.09 183.473 106.361 182.454 106.904 181.618C107.447 180.782 108.165 180.144 109.06 179.704C109.969 179.264 110.967 179.044 112.052 179.044C112.932 179.044 113.687 179.198 114.318 179.506C114.963 179.814 115.506 180.181 115.946 180.606L115.044 181.772C114.604 181.391 114.149 181.09 113.68 180.87C113.211 180.65 112.69 180.54 112.118 180.54C111.297 180.54 110.571 180.716 109.94 181.068C109.309 181.405 108.818 181.889 108.466 182.52C108.129 183.136 107.96 183.855 107.96 184.676C107.96 185.483 108.129 186.194 108.466 186.81C108.803 187.426 109.28 187.91 109.896 188.262C110.527 188.599 111.253 188.768 112.074 188.768C112.734 188.768 113.335 188.636 113.878 188.372C114.435 188.108 114.934 187.793 115.374 187.426L116.188 188.592C115.601 189.12 114.941 189.531 114.208 189.824C113.489 190.117 112.734 190.264 111.942 190.264ZM123.219 190V180.782H118.973V179.308H129.269V180.782H125.023V190H123.219ZM132.759 194.51V179.308H134.255L134.409 180.672H134.475C134.974 180.203 135.546 179.814 136.191 179.506C136.851 179.198 137.511 179.044 138.171 179.044C139.139 179.044 139.946 179.271 140.591 179.726C141.251 180.166 141.75 180.797 142.087 181.618C142.424 182.425 142.593 183.385 142.593 184.5C142.593 185.703 142.366 186.737 141.911 187.602C141.456 188.467 140.862 189.127 140.129 189.582C139.396 190.037 138.596 190.264 137.731 190.264C137.247 190.264 136.712 190.147 136.125 189.912C135.553 189.663 135.025 189.318 134.541 188.878H134.475L134.563 190.902V194.51H132.759ZM137.423 188.746C138.054 188.746 138.618 188.577 139.117 188.24C139.616 187.903 140.004 187.419 140.283 186.788C140.576 186.143 140.723 185.38 140.723 184.5C140.723 183.723 140.62 183.041 140.415 182.454C140.21 181.853 139.887 181.391 139.447 181.068C139.007 180.731 138.428 180.562 137.709 180.562C137.225 180.562 136.712 180.694 136.169 180.958C135.641 181.207 135.106 181.611 134.563 182.168V187.492C135.076 187.947 135.59 188.269 136.103 188.46C136.631 188.651 137.071 188.746 137.423 188.746ZM149.316 190.264C148.656 190.264 148.048 190.147 147.49 189.912C146.933 189.663 146.493 189.311 146.17 188.856C145.848 188.401 145.686 187.859 145.686 187.228C145.686 186.025 146.288 185.116 147.49 184.5C148.693 183.869 150.673 183.444 153.43 183.224C153.416 182.74 153.313 182.293 153.122 181.882C152.946 181.471 152.653 181.149 152.242 180.914C151.832 180.665 151.282 180.54 150.592 180.54C150.138 180.54 149.683 180.606 149.228 180.738C148.788 180.855 148.363 181.017 147.952 181.222C147.556 181.413 147.19 181.611 146.852 181.816L146.148 180.584C146.5 180.349 146.926 180.115 147.424 179.88C147.938 179.631 148.488 179.433 149.074 179.286C149.661 179.125 150.27 179.044 150.9 179.044C151.883 179.044 152.69 179.227 153.32 179.594C153.966 179.961 154.442 180.474 154.75 181.134C155.073 181.779 155.234 182.549 155.234 183.444V190H153.76L153.606 188.548H153.54C152.954 189.017 152.294 189.421 151.56 189.758C150.827 190.095 150.079 190.264 149.316 190.264ZM149.8 188.812C150.416 188.812 151.025 188.673 151.626 188.394C152.228 188.115 152.829 187.727 153.43 187.228V184.412C151.905 184.544 150.702 184.727 149.822 184.962C148.957 185.197 148.341 185.497 147.974 185.864C147.622 186.216 147.446 186.627 147.446 187.096C147.446 187.492 147.556 187.822 147.776 188.086C147.996 188.335 148.282 188.519 148.634 188.636C149.001 188.753 149.39 188.812 149.8 188.812ZM162.794 190V180.782H158.548V179.308H168.844V180.782H164.598V190H162.794ZM177.547 190.264C176.476 190.264 175.501 190.044 174.621 189.604C173.756 189.164 173.066 188.526 172.553 187.69C172.04 186.839 171.783 185.82 171.783 184.632C171.783 183.473 172.04 182.476 172.553 181.64C173.066 180.804 173.734 180.166 174.555 179.726C175.391 179.271 176.286 179.044 177.239 179.044C178.266 179.044 179.138 179.257 179.857 179.682C180.59 180.093 181.148 180.672 181.529 181.42C181.925 182.168 182.123 183.048 182.123 184.06C182.123 184.265 182.116 184.463 182.101 184.654C182.086 184.845 182.064 185.013 182.035 185.16H172.993V183.752H180.957L180.495 184.258C180.495 182.997 180.202 182.051 179.615 181.42C179.043 180.789 178.266 180.474 177.283 180.474C176.623 180.474 176.007 180.635 175.435 180.958C174.878 181.281 174.43 181.75 174.093 182.366C173.756 182.982 173.587 183.737 173.587 184.632C173.587 185.556 173.77 186.326 174.137 186.942C174.504 187.558 175.002 188.027 175.633 188.35C176.264 188.658 176.975 188.812 177.767 188.812C178.412 188.812 178.992 188.724 179.505 188.548C180.033 188.357 180.539 188.108 181.023 187.8L181.683 188.988C181.155 189.34 180.546 189.641 179.857 189.89C179.182 190.139 178.412 190.264 177.547 190.264ZM186.691 190V179.308H194.985V180.782H188.495V190H186.691ZM198.87 190V179.308H200.63V183.752C200.63 184.324 200.608 184.955 200.564 185.644C200.52 186.319 200.483 187.001 200.454 187.69H200.542C200.747 187.353 200.982 186.971 201.246 186.546C201.525 186.106 201.759 185.725 201.95 185.402L205.998 179.308H207.67V190H205.91V185.556C205.91 184.984 205.932 184.353 205.976 183.664C206.02 182.975 206.057 182.285 206.086 181.596H205.998C205.807 181.919 205.573 182.3 205.294 182.74C205.03 183.18 204.795 183.561 204.59 183.884L200.542 190H198.87ZM219.057 190V185.82H215.515C215.017 185.82 214.533 185.761 214.063 185.644C213.594 185.512 213.169 185.314 212.787 185.05C212.406 184.771 212.105 184.419 211.885 183.994C211.665 183.569 211.555 183.063 211.555 182.476C211.555 181.684 211.731 181.061 212.083 180.606C212.435 180.137 212.919 179.807 213.535 179.616C214.151 179.411 214.841 179.308 215.603 179.308H220.883V190H219.057ZM215.911 184.412H219.057V180.76H215.911C215.105 180.76 214.474 180.892 214.019 181.156C213.579 181.42 213.359 181.875 213.359 182.52C213.359 183.151 213.579 183.627 214.019 183.95C214.474 184.258 215.105 184.412 215.911 184.412ZM211.071 190L214.877 184.852L216.439 185.424L213.117 190H211.071Z" fill="#F9F9F9"/>
<circle cx="750" cy="170" r="88" transform="rotate(180 750 170)" stroke="#F5D7D7" stroke-width="4"/>
<path d="M686.281 162V147.568H688.129V153.618H694.157V147.568H696.005V162H694.157V155.202H688.129V162H686.281ZM703.146 162.264C702.486 162.264 701.878 162.147 701.32 161.912C700.763 161.663 700.323 161.311 700 160.856C699.678 160.401 699.516 159.859 699.516 159.228C699.516 158.025 700.118 157.116 701.32 156.5C702.523 155.869 704.503 155.444 707.26 155.224C707.246 154.74 707.143 154.293 706.952 153.882C706.776 153.471 706.483 153.149 706.072 152.914C705.662 152.665 705.112 152.54 704.422 152.54C703.968 152.54 703.513 152.606 703.058 152.738C702.618 152.855 702.193 153.017 701.782 153.222C701.386 153.413 701.02 153.611 700.682 153.816L699.978 152.584C700.33 152.349 700.756 152.115 701.254 151.88C701.768 151.631 702.318 151.433 702.904 151.286C703.491 151.125 704.1 151.044 704.73 151.044C705.713 151.044 706.52 151.227 707.15 151.594C707.796 151.961 708.272 152.474 708.58 153.134C708.903 153.779 709.064 154.549 709.064 155.444V162H707.59L707.436 160.548H707.37C706.784 161.017 706.124 161.421 705.39 161.758C704.657 162.095 703.909 162.264 703.146 162.264ZM703.63 160.812C704.246 160.812 704.855 160.673 705.456 160.394C706.058 160.115 706.659 159.727 707.26 159.228V156.412C705.735 156.544 704.532 156.727 703.652 156.962C702.787 157.197 702.171 157.497 701.804 157.864C701.452 158.216 701.276 158.627 701.276 159.096C701.276 159.492 701.386 159.822 701.606 160.086C701.826 160.335 702.112 160.519 702.464 160.636C702.831 160.753 703.22 160.812 703.63 160.812ZM712.972 162V151.308H722.08V162H720.276V152.782H714.776V162H712.972ZM730.717 162.264C729.779 162.264 728.906 162.044 728.099 161.604C727.307 161.164 726.662 160.526 726.163 159.69C725.679 158.854 725.437 157.849 725.437 156.676C725.437 155.473 725.679 154.454 726.163 153.618C726.662 152.782 727.307 152.144 728.099 151.704C728.906 151.264 729.779 151.044 730.717 151.044C731.656 151.044 732.521 151.264 733.313 151.704C734.12 152.144 734.765 152.782 735.249 153.618C735.748 154.454 735.997 155.473 735.997 156.676C735.997 157.849 735.748 158.854 735.249 159.69C734.765 160.526 734.12 161.164 733.313 161.604C732.521 162.044 731.656 162.264 730.717 162.264ZM730.717 160.768C731.407 160.768 732.008 160.599 732.521 160.262C733.035 159.91 733.431 159.426 733.709 158.81C733.988 158.194 734.127 157.483 734.127 156.676C734.127 155.855 733.988 155.136 733.709 154.52C733.431 153.889 733.035 153.405 732.521 153.068C732.008 152.716 731.407 152.54 730.717 152.54C730.028 152.54 729.427 152.716 728.913 153.068C728.415 153.405 728.019 153.889 727.725 154.52C727.447 155.136 727.307 155.855 727.307 156.676C727.307 157.483 727.447 158.194 727.725 158.81C728.019 159.426 728.415 159.91 728.913 160.262C729.427 160.599 730.028 160.768 730.717 160.768ZM738.937 162.264C738.731 162.264 738.555 162.249 738.409 162.22C738.262 162.191 738.108 162.147 737.947 162.088L738.299 160.416C738.372 160.431 738.445 160.453 738.519 160.482C738.607 160.497 738.695 160.504 738.783 160.504C739.164 160.504 739.472 160.328 739.707 159.976C739.956 159.609 740.125 159.03 740.213 158.238C740.359 157.094 740.499 155.943 740.631 154.784C740.763 153.625 740.895 152.467 741.027 151.308H748.221V162H746.395V152.782H742.457C742.354 153.765 742.244 154.755 742.127 155.752C742.009 156.735 741.885 157.717 741.753 158.7C741.606 159.888 741.291 160.783 740.807 161.384C740.337 161.971 739.714 162.264 738.937 162.264ZM752.546 162V151.308H754.35V155.642H759.85V151.308H761.654V162H759.85V157.248H754.35V162H752.546ZM770.951 162.264C769.881 162.264 768.905 162.044 768.025 161.604C767.16 161.164 766.471 160.526 765.957 159.69C765.444 158.839 765.187 157.82 765.187 156.632C765.187 155.473 765.444 154.476 765.957 153.64C766.471 152.804 767.138 152.166 767.959 151.726C768.795 151.271 769.69 151.044 770.643 151.044C771.67 151.044 772.543 151.257 773.261 151.682C773.995 152.093 774.552 152.672 774.933 153.42C775.329 154.168 775.527 155.048 775.527 156.06C775.527 156.265 775.52 156.463 775.505 156.654C775.491 156.845 775.469 157.013 775.439 157.16H766.397V155.752H774.361L773.899 156.258C773.899 154.997 773.606 154.051 773.019 153.42C772.447 152.789 771.67 152.474 770.687 152.474C770.027 152.474 769.411 152.635 768.839 152.958C768.282 153.281 767.835 153.75 767.497 154.366C767.16 154.982 766.991 155.737 766.991 156.632C766.991 157.556 767.175 158.326 767.541 158.942C767.908 159.558 768.407 160.027 769.037 160.35C769.668 160.658 770.379 160.812 771.171 160.812C771.817 160.812 772.396 160.724 772.909 160.548C773.437 160.357 773.943 160.108 774.427 159.8L775.087 160.988C774.559 161.34 773.951 161.641 773.261 161.89C772.587 162.139 771.817 162.264 770.951 162.264ZM778.929 162V151.308H780.733V155.642H786.233V151.308H788.037V162H786.233V157.248H780.733V162H778.929ZM792.274 162V151.308H794.034V155.752C794.034 156.324 794.012 156.955 793.968 157.644C793.924 158.319 793.888 159.001 793.858 159.69H793.946C794.152 159.353 794.386 158.971 794.65 158.546C794.929 158.106 795.164 157.725 795.354 157.402L799.402 151.308H801.074V162H799.314V157.556C799.314 156.984 799.336 156.353 799.38 155.664C799.424 154.975 799.461 154.285 799.49 153.596H799.402C799.212 153.919 798.977 154.3 798.698 154.74C798.434 155.18 798.2 155.561 797.994 155.884L793.946 162H792.274ZM810.526 162.264C809.455 162.264 808.48 162.044 807.6 161.604C806.734 161.164 806.045 160.526 805.532 159.69C805.018 158.839 804.762 157.82 804.762 156.632C804.762 155.473 805.018 154.476 805.532 153.64C806.045 152.804 806.712 152.166 807.534 151.726C808.37 151.271 809.264 151.044 810.218 151.044C811.244 151.044 812.117 151.257 812.836 151.682C813.569 152.093 814.126 152.672 814.508 153.42C814.904 154.168 815.102 155.048 815.102 156.06C815.102 156.265 815.094 156.463 815.08 156.654C815.065 156.845 815.043 157.013 815.014 157.16H805.972V155.752H813.936L813.474 156.258C813.474 154.997 813.18 154.051 812.594 153.42C812.022 152.789 811.244 152.474 810.262 152.474C809.602 152.474 808.986 152.635 808.414 152.958C807.856 153.281 807.409 153.75 807.072 154.366C806.734 154.982 806.566 155.737 806.566 156.632C806.566 157.556 806.749 158.326 807.116 158.942C807.482 159.558 807.981 160.027 808.612 160.35C809.242 160.658 809.954 160.812 810.746 160.812C811.391 160.812 811.97 160.724 812.484 160.548C813.012 160.357 813.518 160.108 814.002 159.8L814.662 160.988C814.134 161.34 813.525 161.641 812.836 161.89C812.161 162.139 811.391 162.264 810.526 162.264ZM693.559 190V179.308H695.363V183.708H699.081L703.459 190H701.457L698.179 185.182H695.363V190H693.559ZM699.345 184.786L697.761 184.478L699.477 181.332C699.814 180.731 700.115 180.269 700.379 179.946C700.657 179.609 700.951 179.374 701.259 179.242C701.567 179.11 701.919 179.044 702.315 179.044C702.579 179.044 702.813 179.088 703.019 179.176L702.711 180.87C702.637 180.841 702.564 180.826 702.491 180.826C702.432 180.811 702.359 180.804 702.271 180.804C701.992 180.804 701.75 180.899 701.545 181.09C701.339 181.266 701.068 181.655 700.731 182.256L699.345 184.786ZM710.93 190.264C709.991 190.264 709.119 190.044 708.312 189.604C707.52 189.164 706.875 188.526 706.376 187.69C705.892 186.854 705.65 185.849 705.65 184.676C705.65 183.473 705.892 182.454 706.376 181.618C706.875 180.782 707.52 180.144 708.312 179.704C709.119 179.264 709.991 179.044 710.93 179.044C711.869 179.044 712.734 179.264 713.526 179.704C714.333 180.144 714.978 180.782 715.462 181.618C715.961 182.454 716.21 183.473 716.21 184.676C716.21 185.849 715.961 186.854 715.462 187.69C714.978 188.526 714.333 189.164 713.526 189.604C712.734 190.044 711.869 190.264 710.93 190.264ZM710.93 188.768C711.619 188.768 712.221 188.599 712.734 188.262C713.247 187.91 713.643 187.426 713.922 186.81C714.201 186.194 714.34 185.483 714.34 184.676C714.34 183.855 714.201 183.136 713.922 182.52C713.643 181.889 713.247 181.405 712.734 181.068C712.221 180.716 711.619 180.54 710.93 180.54C710.241 180.54 709.639 180.716 709.126 181.068C708.627 181.405 708.231 181.889 707.938 182.52C707.659 183.136 707.52 183.855 707.52 184.676C707.52 185.483 707.659 186.194 707.938 186.81C708.231 187.426 708.627 187.91 709.126 188.262C709.639 188.599 710.241 188.768 710.93 188.768ZM719.567 190V179.308H721.371V183.642H726.871V179.308H728.675V190H726.871V185.248H721.371V190H719.567ZM736.411 190V180.782H732.165V179.308H742.461V180.782H738.215V190H736.411ZM751.164 190.264C750.094 190.264 749.118 190.044 748.238 189.604C747.373 189.164 746.684 188.526 746.17 187.69C745.657 186.839 745.4 185.82 745.4 184.632C745.4 183.473 745.657 182.476 746.17 181.64C746.684 180.804 747.351 180.166 748.172 179.726C749.008 179.271 749.903 179.044 750.856 179.044C751.883 179.044 752.756 179.257 753.474 179.682C754.208 180.093 754.765 180.672 755.146 181.42C755.542 182.168 755.74 183.048 755.74 184.06C755.74 184.265 755.733 184.463 755.718 184.654C755.704 184.845 755.682 185.013 755.652 185.16H746.61V183.752H754.574L754.112 184.258C754.112 182.997 753.819 182.051 753.232 181.42C752.66 180.789 751.883 180.474 750.9 180.474C750.24 180.474 749.624 180.635 749.052 180.958C748.495 181.281 748.048 181.75 747.71 182.366C747.373 182.982 747.204 183.737 747.204 184.632C747.204 185.556 747.388 186.326 747.754 186.942C748.121 187.558 748.62 188.027 749.25 188.35C749.881 188.658 750.592 188.812 751.384 188.812C752.03 188.812 752.609 188.724 753.122 188.548C753.65 188.357 754.156 188.108 754.64 187.8L755.3 188.988C754.772 189.34 754.164 189.641 753.474 189.89C752.8 190.139 752.03 190.264 751.164 190.264ZM759.142 190V179.308H760.946V183.642H766.446V179.308H768.25V190H766.446V185.248H760.946V190H759.142ZM775.985 190V180.782H771.739V179.308H782.035V180.782H777.789V190H775.985ZM790.079 190.264C789.14 190.264 788.267 190.044 787.461 189.604C786.669 189.164 786.023 188.526 785.525 187.69C785.041 186.854 784.799 185.849 784.799 184.676C784.799 183.473 785.041 182.454 785.525 181.618C786.023 180.782 786.669 180.144 787.461 179.704C788.267 179.264 789.14 179.044 790.079 179.044C791.017 179.044 791.883 179.264 792.675 179.704C793.481 180.144 794.127 180.782 794.611 181.618C795.109 182.454 795.359 183.473 795.359 184.676C795.359 185.849 795.109 186.854 794.611 187.69C794.127 188.526 793.481 189.164 792.675 189.604C791.883 190.044 791.017 190.264 790.079 190.264ZM790.079 188.768C790.768 188.768 791.369 188.599 791.883 188.262C792.396 187.91 792.792 187.426 793.071 186.81C793.349 186.194 793.489 185.483 793.489 184.676C793.489 183.855 793.349 183.136 793.071 182.52C792.792 181.889 792.396 181.405 791.883 181.068C791.369 180.716 790.768 180.54 790.079 180.54C789.389 180.54 788.788 180.716 788.275 181.068C787.776 181.405 787.38 181.889 787.087 182.52C786.808 183.136 786.669 183.855 786.669 184.676C786.669 185.483 786.808 186.194 787.087 186.81C787.38 187.426 787.776 187.91 788.275 188.262C788.788 188.599 789.389 188.768 790.079 188.768ZM798.078 190V179.308H800.278L802.302 184.324C802.463 184.764 802.625 185.197 802.786 185.622C802.947 186.047 803.101 186.48 803.248 186.92H803.336C803.497 186.48 803.659 186.047 803.82 185.622C803.981 185.197 804.135 184.764 804.282 184.324L806.262 179.308H808.462V190H806.746V185.204C806.746 184.881 806.753 184.507 806.768 184.082C806.797 183.642 806.827 183.195 806.856 182.74C806.9 182.285 806.937 181.875 806.966 181.508H806.878C806.731 181.919 806.57 182.351 806.394 182.806C806.233 183.246 806.071 183.664 805.91 184.06L803.974 188.988H802.61L800.586 184.06C800.425 183.664 800.271 183.246 800.124 182.806C799.977 182.351 799.823 181.919 799.662 181.508H799.574C799.603 181.875 799.633 182.285 799.662 182.74C799.706 183.195 799.735 183.642 799.75 184.082C799.779 184.507 799.794 184.881 799.794 185.204V190H798.078Z" fill="#F9F9F9"/>
<circle cx="750" cy="978" r="88" transform="rotate(180 750 978)" stroke="#F5D7D7" stroke-width="4"/>
<path d="M686.787 986V971.568H691.143C692.214 971.568 693.145 971.707 693.937 971.986C694.744 972.25 695.367 972.69 695.807 973.306C696.262 973.922 696.489 974.758 696.489 975.814C696.489 976.826 696.262 977.662 695.807 978.322C695.367 978.967 694.744 979.459 693.937 979.796C693.13 980.119 692.199 980.28 691.143 980.28H688.613V986H686.787ZM688.613 978.784H690.923C692.184 978.784 693.116 978.542 693.717 978.058C694.333 977.574 694.641 976.826 694.641 975.814C694.641 974.773 694.333 974.054 693.717 973.658C693.101 973.247 692.17 973.042 690.923 973.042H688.613V978.784ZM703.146 986.264C702.486 986.264 701.878 986.147 701.32 985.912C700.763 985.663 700.323 985.311 700 984.856C699.678 984.401 699.516 983.859 699.516 983.228C699.516 982.025 700.118 981.116 701.32 980.5C702.523 979.869 704.503 979.444 707.26 979.224C707.246 978.74 707.143 978.293 706.952 977.882C706.776 977.471 706.483 977.149 706.072 976.914C705.662 976.665 705.112 976.54 704.422 976.54C703.968 976.54 703.513 976.606 703.058 976.738C702.618 976.855 702.193 977.017 701.782 977.222C701.386 977.413 701.02 977.611 700.682 977.816L699.978 976.584C700.33 976.349 700.756 976.115 701.254 975.88C701.768 975.631 702.318 975.433 702.904 975.286C703.491 975.125 704.1 975.044 704.73 975.044C705.713 975.044 706.52 975.227 707.15 975.594C707.796 975.961 708.272 976.474 708.58 977.134C708.903 977.779 709.064 978.549 709.064 979.444V986H707.59L707.436 984.548H707.37C706.784 985.017 706.124 985.421 705.39 985.758C704.657 986.095 703.909 986.264 703.146 986.264ZM703.63 984.812C704.246 984.812 704.855 984.673 705.456 984.394C706.058 984.115 706.659 983.727 707.26 983.228V980.412C705.735 980.544 704.532 980.727 703.652 980.962C702.787 981.197 702.171 981.497 701.804 981.864C701.452 982.216 701.276 982.627 701.276 983.096C701.276 983.492 701.386 983.822 701.606 984.086C701.826 984.335 702.112 984.519 702.464 984.636C702.831 984.753 703.22 984.812 703.63 984.812ZM717.086 986.264C716.22 986.264 715.392 986.154 714.6 985.934C713.822 985.699 713.052 985.274 712.29 984.658L713.082 983.47C713.698 983.969 714.328 984.321 714.974 984.526C715.619 984.717 716.272 984.812 716.932 984.812C718.046 984.812 718.904 984.651 719.506 984.328C720.107 983.991 720.408 983.514 720.408 982.898C720.408 982.297 720.122 981.857 719.55 981.578C718.992 981.299 718.178 981.16 717.108 981.16H715.26V979.752H716.844C717.87 979.752 718.633 979.613 719.132 979.334C719.645 979.041 719.902 978.63 719.902 978.102C719.902 977.559 719.652 977.156 719.154 976.892C718.655 976.613 717.922 976.474 716.954 976.474C716.191 976.474 715.531 976.577 714.974 976.782C714.416 976.973 713.859 977.273 713.302 977.684L712.554 976.474C713.17 976.019 713.837 975.667 714.556 975.418C715.289 975.169 716.125 975.044 717.064 975.044C717.973 975.044 718.772 975.147 719.462 975.352C720.151 975.557 720.694 975.873 721.09 976.298C721.486 976.723 721.684 977.266 721.684 977.926C721.684 978.454 721.522 978.923 721.2 979.334C720.892 979.73 720.415 980.053 719.77 980.302V980.39C720.503 980.581 721.09 980.881 721.53 981.292C721.984 981.688 722.212 982.275 722.212 983.052C722.212 983.727 721.992 984.306 721.552 984.79C721.126 985.274 720.532 985.641 719.77 985.89C719.007 986.139 718.112 986.264 717.086 986.264ZM726.163 990.51V975.308H727.659L727.813 976.672H727.879C728.378 976.203 728.95 975.814 729.595 975.506C730.255 975.198 730.915 975.044 731.575 975.044C732.543 975.044 733.35 975.271 733.995 975.726C734.655 976.166 735.154 976.797 735.491 977.618C735.829 978.425 735.997 979.385 735.997 980.5C735.997 981.703 735.77 982.737 735.315 983.602C734.861 984.467 734.267 985.127 733.533 985.582C732.8 986.037 732.001 986.264 731.135 986.264C730.651 986.264 730.116 986.147 729.529 985.912C728.957 985.663 728.429 985.318 727.945 984.878H727.879L727.967 986.902V990.51H726.163ZM730.827 984.746C731.458 984.746 732.023 984.577 732.521 984.24C733.02 983.903 733.409 983.419 733.687 982.788C733.981 982.143 734.127 981.38 734.127 980.5C734.127 979.723 734.025 979.041 733.819 978.454C733.614 977.853 733.291 977.391 732.851 977.068C732.411 976.731 731.832 976.562 731.113 976.562C730.629 976.562 730.116 976.694 729.573 976.958C729.045 977.207 728.51 977.611 727.967 978.168V983.492C728.481 983.947 728.994 984.269 729.507 984.46C730.035 984.651 730.475 984.746 730.827 984.746ZM742.721 986.264C742.061 986.264 741.452 986.147 740.895 985.912C740.337 985.663 739.897 985.311 739.575 984.856C739.252 984.401 739.091 983.859 739.091 983.228C739.091 982.025 739.692 981.116 740.895 980.5C742.097 979.869 744.077 979.444 746.835 979.224C746.82 978.74 746.717 978.293 746.527 977.882C746.351 977.471 746.057 977.149 745.647 976.914C745.236 976.665 744.686 976.54 743.997 976.54C743.542 976.54 743.087 976.606 742.633 976.738C742.193 976.855 741.767 977.017 741.357 977.222C740.961 977.413 740.594 977.611 740.257 977.816L739.553 976.584C739.905 976.349 740.33 976.115 740.829 975.88C741.342 975.631 741.892 975.433 742.479 975.286C743.065 975.125 743.674 975.044 744.305 975.044C745.287 975.044 746.094 975.227 746.725 975.594C747.37 975.961 747.847 976.474 748.155 977.134C748.477 977.779 748.639 978.549 748.639 979.444V986H747.165L747.011 984.548H746.945C746.358 985.017 745.698 985.421 744.965 985.758C744.231 986.095 743.483 986.264 742.721 986.264ZM743.205 984.812C743.821 984.812 744.429 984.673 745.031 984.394C745.632 984.115 746.233 983.727 746.835 983.228V980.412C745.309 980.544 744.107 980.727 743.227 980.962C742.361 981.197 741.745 981.497 741.379 981.864C741.027 982.216 740.851 982.627 740.851 983.096C740.851 983.492 740.961 983.822 741.181 984.086C741.401 984.335 741.687 984.519 742.039 984.636C742.405 984.753 742.794 984.812 743.205 984.812ZM757.342 986.264C756.242 986.264 755.303 985.993 754.526 985.45C753.763 984.907 753.177 984.13 752.766 983.118C752.355 982.106 752.15 980.903 752.15 979.51C752.15 978.102 752.253 976.907 752.458 975.924C752.678 974.927 752.979 974.113 753.36 973.482C753.756 972.837 754.233 972.323 754.79 971.942C755.347 971.546 755.978 971.245 756.682 971.04C757.401 970.835 758.171 970.666 758.992 970.534C759.432 970.475 759.777 970.424 760.026 970.38C760.29 970.321 760.517 970.263 760.708 970.204C760.913 970.131 761.126 970.043 761.346 969.94L761.72 971.59C761.427 971.781 761.082 971.927 760.686 972.03C760.305 972.118 759.865 972.199 759.366 972.272C758.574 972.389 757.87 972.529 757.254 972.69C756.653 972.837 756.139 973.049 755.714 973.328C755.289 973.607 754.944 974.01 754.68 974.538C754.416 975.051 754.218 975.741 754.086 976.606C753.969 977.471 753.91 978.557 753.91 979.862C753.91 980.845 754.035 981.703 754.284 982.436C754.548 983.169 754.929 983.741 755.428 984.152C755.941 984.563 756.572 984.768 757.32 984.768C757.951 984.768 758.486 984.599 758.926 984.262C759.381 983.91 759.725 983.433 759.96 982.832C760.195 982.216 760.312 981.505 760.312 980.698C760.312 979.965 760.195 979.327 759.96 978.784C759.725 978.241 759.381 977.823 758.926 977.53C758.486 977.237 757.943 977.09 757.298 977.09C756.755 977.09 756.183 977.229 755.582 977.508C754.995 977.787 754.431 978.307 753.888 979.07L753.822 977.706C754.306 977.046 754.893 976.547 755.582 976.21C756.286 975.873 757.005 975.704 757.738 975.704C758.618 975.704 759.388 975.902 760.048 976.298C760.723 976.694 761.243 977.266 761.61 978.014C761.991 978.762 762.182 979.657 762.182 980.698C762.182 981.842 761.969 982.832 761.544 983.668C761.119 984.489 760.539 985.127 759.806 985.582C759.087 986.037 758.266 986.264 757.342 986.264ZM770.291 986.264C769.353 986.264 768.48 986.044 767.673 985.604C766.881 985.164 766.236 984.526 765.737 983.69C765.253 982.854 765.011 981.849 765.011 980.676C765.011 979.473 765.253 978.454 765.737 977.618C766.236 976.782 766.881 976.144 767.673 975.704C768.48 975.264 769.353 975.044 770.291 975.044C771.23 975.044 772.095 975.264 772.887 975.704C773.694 976.144 774.339 976.782 774.823 977.618C775.322 978.454 775.571 979.473 775.571 980.676C775.571 981.849 775.322 982.854 774.823 983.69C774.339 984.526 773.694 985.164 772.887 985.604C772.095 986.044 771.23 986.264 770.291 986.264ZM770.291 984.768C770.981 984.768 771.582 984.599 772.095 984.262C772.609 983.91 773.005 983.426 773.283 982.81C773.562 982.194 773.701 981.483 773.701 980.676C773.701 979.855 773.562 979.136 773.283 978.52C773.005 977.889 772.609 977.405 772.095 977.068C771.582 976.716 770.981 976.54 770.291 976.54C769.602 976.54 769.001 976.716 768.487 977.068C767.989 977.405 767.593 977.889 767.299 978.52C767.021 979.136 766.881 979.855 766.881 980.676C766.881 981.483 767.021 982.194 767.299 982.81C767.593 983.426 767.989 983.91 768.487 984.262C769.001 984.599 769.602 984.768 770.291 984.768ZM782.581 986V976.782H778.335V975.308H788.631V976.782H784.385V986H782.581ZM792.494 986V975.308H794.298V979.708H798.016L802.394 986H800.392L797.114 981.182H794.298V986H792.494ZM798.28 980.786L796.696 980.478L798.412 977.332C798.75 976.731 799.05 976.269 799.314 975.946C799.593 975.609 799.886 975.374 800.194 975.242C800.502 975.11 800.854 975.044 801.25 975.044C801.514 975.044 801.749 975.088 801.954 975.176L801.646 976.87C801.573 976.841 801.5 976.826 801.426 976.826C801.368 976.811 801.294 976.804 801.206 976.804C800.928 976.804 800.686 976.899 800.48 977.09C800.275 977.266 800.004 977.655 799.666 978.256L798.28 980.786ZM808.678 986.264C808.018 986.264 807.409 986.147 806.852 985.912C806.294 985.663 805.854 985.311 805.532 984.856C805.209 984.401 805.048 983.859 805.048 983.228C805.048 982.025 805.649 981.116 806.852 980.5C808.054 979.869 810.034 979.444 812.792 979.224C812.777 978.74 812.674 978.293 812.484 977.882C812.308 977.471 812.014 977.149 811.604 976.914C811.193 976.665 810.643 976.54 809.954 976.54C809.499 976.54 809.044 976.606 808.59 976.738C808.15 976.855 807.724 977.017 807.314 977.222C806.918 977.413 806.551 977.611 806.214 977.816L805.51 976.584C805.862 976.349 806.287 976.115 806.786 975.88C807.299 975.631 807.849 975.433 808.436 975.286C809.022 975.125 809.631 975.044 810.262 975.044C811.244 975.044 812.051 975.227 812.682 975.594C813.327 975.961 813.804 976.474 814.112 977.134C814.434 977.779 814.596 978.549 814.596 979.444V986H813.122L812.968 984.548H812.902C812.315 985.017 811.655 985.421 810.922 985.758C810.188 986.095 809.44 986.264 808.678 986.264ZM809.162 984.812C809.778 984.812 810.386 984.673 810.988 984.394C811.589 984.115 812.19 983.727 812.792 983.228V980.412C811.266 980.544 810.064 980.727 809.184 980.962C808.318 981.197 807.702 981.497 807.336 981.864C806.984 982.216 806.808 982.627 806.808 983.096C806.808 983.492 806.918 983.822 807.138 984.086C807.358 984.335 807.644 984.519 807.996 984.636C808.362 984.753 808.751 984.812 809.162 984.812Z" fill="#F9F9F9"/>
<circle cx="498" cy="1241" r="88" transform="rotate(180 498 1241)" stroke="#F5D7D7" stroke-width="4"/>
<path d="M460.664 1233V1218.57H470.388V1233H468.54V1220.11H462.512V1233H460.664ZM474.163 1237.51V1222.31H475.659L475.813 1223.67H475.879C476.378 1223.2 476.95 1222.81 477.595 1222.51C478.255 1222.2 478.915 1222.04 479.575 1222.04C480.543 1222.04 481.35 1222.27 481.995 1222.73C482.655 1223.17 483.154 1223.8 483.491 1224.62C483.829 1225.42 483.997 1226.39 483.997 1227.5C483.997 1228.7 483.77 1229.74 483.315 1230.6C482.861 1231.47 482.267 1232.13 481.533 1232.58C480.8 1233.04 480.001 1233.26 479.135 1233.26C478.651 1233.26 478.116 1233.15 477.529 1232.91C476.957 1232.66 476.429 1232.32 475.945 1231.88H475.879L475.967 1233.9V1237.51H474.163ZM478.827 1231.75C479.458 1231.75 480.023 1231.58 480.521 1231.24C481.02 1230.9 481.409 1230.42 481.687 1229.79C481.981 1229.14 482.127 1228.38 482.127 1227.5C482.127 1226.72 482.025 1226.04 481.819 1225.45C481.614 1224.85 481.291 1224.39 480.851 1224.07C480.411 1223.73 479.832 1223.56 479.113 1223.56C478.629 1223.56 478.116 1223.69 477.573 1223.96C477.045 1224.21 476.51 1224.61 475.967 1225.17V1230.49C476.481 1230.95 476.994 1231.27 477.507 1231.46C478.035 1231.65 478.475 1231.75 478.827 1231.75ZM490.721 1233.26C490.061 1233.26 489.452 1233.15 488.895 1232.91C488.337 1232.66 487.897 1232.31 487.575 1231.86C487.252 1231.4 487.091 1230.86 487.091 1230.23C487.091 1229.03 487.692 1228.12 488.895 1227.5C490.097 1226.87 492.077 1226.44 494.835 1226.22C494.82 1225.74 494.717 1225.29 494.527 1224.88C494.351 1224.47 494.057 1224.15 493.647 1223.91C493.236 1223.66 492.686 1223.54 491.997 1223.54C491.542 1223.54 491.087 1223.61 490.633 1223.74C490.193 1223.86 489.767 1224.02 489.357 1224.22C488.961 1224.41 488.594 1224.61 488.257 1224.82L487.553 1223.58C487.905 1223.35 488.33 1223.11 488.829 1222.88C489.342 1222.63 489.892 1222.43 490.479 1222.29C491.065 1222.12 491.674 1222.04 492.305 1222.04C493.287 1222.04 494.094 1222.23 494.725 1222.59C495.37 1222.96 495.847 1223.47 496.155 1224.13C496.477 1224.78 496.639 1225.55 496.639 1226.44V1233H495.165L495.011 1231.55H494.945C494.358 1232.02 493.698 1232.42 492.965 1232.76C492.231 1233.1 491.483 1233.26 490.721 1233.26ZM491.205 1231.81C491.821 1231.81 492.429 1231.67 493.031 1231.39C493.632 1231.12 494.233 1230.73 494.835 1230.23V1227.41C493.309 1227.54 492.107 1227.73 491.227 1227.96C490.361 1228.2 489.745 1228.5 489.379 1228.86C489.027 1229.22 488.851 1229.63 488.851 1230.1C488.851 1230.49 488.961 1230.82 489.181 1231.09C489.401 1231.34 489.687 1231.52 490.039 1231.64C490.405 1231.75 490.794 1231.81 491.205 1231.81ZM500.788 1233V1222.31H505.738C506.559 1222.31 507.278 1222.4 507.894 1222.59C508.525 1222.77 509.016 1223.06 509.368 1223.45C509.72 1223.85 509.896 1224.37 509.896 1225.01C509.896 1225.6 509.727 1226.08 509.39 1226.47C509.053 1226.85 508.598 1227.13 508.026 1227.3V1227.37C508.451 1227.47 508.84 1227.62 509.192 1227.83C509.544 1228.04 509.823 1228.31 510.028 1228.67C510.248 1229 510.358 1229.43 510.358 1229.94C510.358 1230.65 510.167 1231.23 509.786 1231.68C509.405 1232.13 508.877 1232.47 508.202 1232.69C507.542 1232.9 506.779 1233 505.914 1233H500.788ZM502.57 1226.75H505.43C506.398 1226.75 507.087 1226.62 507.498 1226.36C507.923 1226.08 508.136 1225.69 508.136 1225.19C508.136 1224.69 507.931 1224.33 507.52 1224.11C507.124 1223.88 506.471 1223.76 505.562 1223.76H502.57V1226.75ZM502.57 1231.55H505.716C506.684 1231.55 507.395 1231.41 507.85 1231.13C508.319 1230.85 508.554 1230.42 508.554 1229.83C508.554 1229.29 508.305 1228.88 507.806 1228.6C507.307 1228.31 506.574 1228.16 505.606 1228.16H502.57V1231.55ZM514.111 1233V1222.31H515.915V1226.71H519.633L524.011 1233H522.009L518.731 1228.18H515.915V1233H514.111ZM519.897 1227.79L518.313 1227.48L520.029 1224.33C520.367 1223.73 520.667 1223.27 520.931 1222.95C521.21 1222.61 521.503 1222.37 521.811 1222.24C522.119 1222.11 522.471 1222.04 522.867 1222.04C523.131 1222.04 523.366 1222.09 523.571 1222.18L523.263 1223.87C523.19 1223.84 523.117 1223.83 523.043 1223.83C522.985 1223.81 522.911 1223.8 522.823 1223.8C522.545 1223.8 522.303 1223.9 522.097 1224.09C521.892 1224.27 521.621 1224.65 521.283 1225.26L519.897 1227.79ZM527.083 1233V1222.31H528.843V1226.75C528.843 1227.32 528.821 1227.95 528.777 1228.64C528.733 1229.32 528.696 1230 528.667 1230.69H528.755C528.96 1230.35 529.195 1229.97 529.459 1229.55C529.737 1229.11 529.972 1228.72 530.163 1228.4L534.211 1222.31H535.883V1233H534.123V1228.56C534.123 1227.98 534.145 1227.35 534.189 1226.66C534.233 1225.97 534.269 1225.29 534.299 1224.6H534.211C534.02 1224.92 533.785 1225.3 533.507 1225.74C533.243 1226.18 533.008 1226.56 532.803 1226.88L528.755 1233H527.083ZM428.147 1261V1250.31H429.907V1254.75C429.907 1255.32 429.885 1255.95 429.841 1256.64C429.797 1257.32 429.761 1258 429.731 1258.69H429.819C430.025 1258.35 430.259 1257.97 430.523 1257.55C430.802 1257.11 431.037 1256.72 431.227 1256.4L435.275 1250.31H436.947V1261H435.187V1256.56C435.187 1255.98 435.209 1255.35 435.253 1254.66C435.297 1253.97 435.334 1253.29 435.363 1252.6H435.275C435.085 1252.92 434.85 1253.3 434.571 1253.74C434.307 1254.18 434.073 1254.56 433.867 1254.88L429.819 1261H428.147ZM455.212 1265.6C454.977 1265.6 454.728 1265.58 454.464 1265.53C454.215 1265.49 453.995 1265.44 453.804 1265.38L454.178 1263.95C454.325 1263.99 454.479 1264.03 454.64 1264.06C454.816 1264.09 454.985 1264.1 455.146 1264.1C455.894 1264.1 456.503 1263.88 456.972 1263.44C457.441 1263.02 457.808 1262.47 458.072 1261.81L458.402 1261.02L453.408 1250.31H455.234L457.852 1256.23C458.057 1256.7 458.27 1257.2 458.49 1257.74C458.725 1258.27 458.952 1258.8 459.172 1259.33H459.26C459.451 1258.81 459.641 1258.29 459.832 1257.77C460.037 1257.22 460.228 1256.71 460.404 1256.23L462.736 1250.31H464.452L459.744 1261.88C459.48 1262.58 459.15 1263.21 458.754 1263.77C458.358 1264.34 457.867 1264.79 457.28 1265.11C456.708 1265.44 456.019 1265.6 455.212 1265.6ZM467.149 1261.26C466.944 1261.26 466.768 1261.25 466.621 1261.22C466.475 1261.19 466.321 1261.15 466.159 1261.09L466.511 1259.42C466.585 1259.43 466.658 1259.45 466.731 1259.48C466.819 1259.5 466.907 1259.5 466.995 1259.5C467.377 1259.5 467.685 1259.33 467.919 1258.98C468.169 1258.61 468.337 1258.03 468.425 1257.24C468.572 1256.09 468.711 1254.94 468.843 1253.78C468.975 1252.63 469.107 1251.47 469.239 1250.31H476.433V1261H474.607V1251.78H470.669C470.567 1252.76 470.457 1253.75 470.339 1254.75C470.222 1255.73 470.097 1256.72 469.965 1257.7C469.819 1258.89 469.503 1259.78 469.019 1260.38C468.55 1260.97 467.927 1261.26 467.149 1261.26ZM481.595 1265.6C481.36 1265.6 481.111 1265.58 480.847 1265.53C480.598 1265.49 480.378 1265.44 480.187 1265.38L480.561 1263.95C480.708 1263.99 480.862 1264.03 481.023 1264.06C481.199 1264.09 481.368 1264.1 481.529 1264.1C482.277 1264.1 482.886 1263.88 483.355 1263.44C483.824 1263.02 484.191 1262.47 484.455 1261.81L484.785 1261.02L479.791 1250.31H481.617L484.235 1256.23C484.44 1256.7 484.653 1257.2 484.873 1257.74C485.108 1258.27 485.335 1258.8 485.555 1259.33H485.643C485.834 1258.81 486.024 1258.29 486.215 1257.77C486.42 1257.22 486.611 1256.71 486.787 1256.23L489.119 1250.31H490.835L486.127 1261.88C485.863 1262.58 485.533 1263.21 485.137 1263.77C484.741 1264.34 484.25 1264.79 483.663 1265.11C483.091 1265.44 482.402 1265.6 481.595 1265.6ZM500.88 1261V1256.69C500.587 1256.75 500.323 1256.8 500.088 1256.84C499.868 1256.89 499.634 1256.92 499.384 1256.93C499.135 1256.94 498.82 1256.95 498.438 1256.95C497.47 1256.95 496.642 1256.82 495.952 1256.56C495.278 1256.29 494.757 1255.87 494.39 1255.3C494.024 1254.72 493.84 1253.95 493.84 1252.99V1250.31H495.644V1252.99C495.644 1253.89 495.894 1254.52 496.392 1254.91C496.906 1255.29 497.712 1255.48 498.812 1255.48C499.194 1255.48 499.538 1255.46 499.846 1255.41C500.154 1255.37 500.499 1255.3 500.88 1255.21V1250.31H502.684V1261H500.88ZM506.372 1261V1250.31H508.176V1259.53H510.86V1250.31H512.532V1259.53H515.216V1250.31H517.02V1261H506.372ZM525.547 1261.26C524.476 1261.26 523.501 1261.04 522.621 1260.6C521.756 1260.16 521.066 1259.53 520.553 1258.69C520.04 1257.84 519.783 1256.82 519.783 1255.63C519.783 1254.47 520.04 1253.48 520.553 1252.64C521.066 1251.8 521.734 1251.17 522.555 1250.73C523.391 1250.27 524.286 1250.04 525.239 1250.04C526.266 1250.04 527.138 1250.26 527.857 1250.68C528.59 1251.09 529.148 1251.67 529.529 1252.42C529.925 1253.17 530.123 1254.05 530.123 1255.06C530.123 1255.27 530.116 1255.46 530.101 1255.65C530.086 1255.84 530.064 1256.01 530.035 1256.16H520.993V1254.75H528.957L528.495 1255.26C528.495 1254 528.202 1253.05 527.615 1252.42C527.043 1251.79 526.266 1251.47 525.283 1251.47C524.623 1251.47 524.007 1251.64 523.435 1251.96C522.878 1252.28 522.43 1252.75 522.093 1253.37C521.756 1253.98 521.587 1254.74 521.587 1255.63C521.587 1256.56 521.77 1257.33 522.137 1257.94C522.504 1258.56 523.002 1259.03 523.633 1259.35C524.264 1259.66 524.975 1259.81 525.767 1259.81C526.412 1259.81 526.992 1259.72 527.505 1259.55C528.033 1259.36 528.539 1259.11 529.023 1258.8L529.683 1259.99C529.155 1260.34 528.546 1260.64 527.857 1260.89C527.182 1261.14 526.412 1261.26 525.547 1261.26ZM533.525 1261V1250.31H535.329V1254.64H540.829V1250.31H542.633V1261H540.829V1256.25H535.329V1261H533.525ZM546.87 1261V1250.31H548.63V1254.75C548.63 1255.32 548.608 1255.95 548.564 1256.64C548.52 1257.32 548.483 1258 548.454 1258.69H548.542C548.747 1258.35 548.982 1257.97 549.246 1257.55C549.525 1257.11 549.759 1256.72 549.95 1256.4L553.998 1250.31H555.67V1261H553.91V1256.56C553.91 1255.98 553.932 1255.35 553.976 1254.66C554.02 1253.97 554.057 1253.29 554.086 1252.6H553.998C553.807 1252.92 553.573 1253.3 553.294 1253.74C553.03 1254.18 552.795 1254.56 552.59 1254.88L548.542 1261H546.87ZM567.057 1261V1256.82H563.515C563.017 1256.82 562.533 1256.76 562.063 1256.64C561.594 1256.51 561.169 1256.31 560.787 1256.05C560.406 1255.77 560.105 1255.42 559.885 1254.99C559.665 1254.57 559.555 1254.06 559.555 1253.48C559.555 1252.68 559.731 1252.06 560.083 1251.61C560.435 1251.14 560.919 1250.81 561.535 1250.62C562.151 1250.41 562.841 1250.31 563.603 1250.31H568.883V1261H567.057ZM563.911 1255.41H567.057V1251.76H563.911C563.105 1251.76 562.474 1251.89 562.019 1252.16C561.579 1252.42 561.359 1252.87 561.359 1253.52C561.359 1254.15 561.579 1254.63 562.019 1254.95C562.474 1255.26 563.105 1255.41 563.911 1255.41ZM559.071 1261L562.877 1255.85L564.439 1256.42L561.117 1261H559.071Z" fill="#F9F9F9"/>
<path d="M603.057 1308.2L615.169 1308.17L615.2 1296.06C615.217 1295.93 615.207 1295.8 615.17 1295.68C615.133 1295.56 615.071 1295.45 614.987 1295.35C614.903 1295.26 614.799 1295.18 614.683 1295.13C614.566 1295.08 614.44 1295.05 614.313 1295.05C614.186 1295.05 614.06 1295.08 613.945 1295.13C613.829 1295.19 613.727 1295.26 613.644 1295.36C613.561 1295.46 613.5 1295.57 613.465 1295.69C613.43 1295.82 613.421 1295.94 613.44 1296.07L613.403 1305.15L601.379 1293.12C601.212 1292.96 600.986 1292.86 600.75 1292.86C600.514 1292.86 600.288 1292.96 600.122 1293.12C599.955 1293.29 599.861 1293.52 599.861 1293.75C599.861 1293.99 599.955 1294.21 600.122 1294.38L612.146 1306.4L603.069 1306.44C602.834 1306.44 602.608 1306.54 602.441 1306.7C602.275 1306.87 602.182 1307.1 602.183 1307.33C602.184 1307.57 602.279 1307.8 602.446 1307.96C602.613 1308.13 602.84 1308.22 603.076 1308.22L603.057 1308.2Z" fill="#F01248"/>
<circle cx="752" cy="1504" r="88" transform="rotate(180 752 1504)" stroke="#F5D7D7" stroke-width="4"/>
<path d="M694.877 1511V1496.57H704.601V1511H702.753V1498.11H696.725V1511H694.877ZM712.93 1511.26C711.991 1511.26 711.119 1511.04 710.312 1510.6C709.52 1510.16 708.875 1509.53 708.376 1508.69C707.892 1507.85 707.65 1506.85 707.65 1505.68C707.65 1504.47 707.892 1503.45 708.376 1502.62C708.875 1501.78 709.52 1501.14 710.312 1500.7C711.119 1500.26 711.991 1500.04 712.93 1500.04C713.869 1500.04 714.734 1500.26 715.526 1500.7C716.333 1501.14 716.978 1501.78 717.462 1502.62C717.961 1503.45 718.21 1504.47 718.21 1505.68C718.21 1506.85 717.961 1507.85 717.462 1508.69C716.978 1509.53 716.333 1510.16 715.526 1510.6C714.734 1511.04 713.869 1511.26 712.93 1511.26ZM712.93 1509.77C713.619 1509.77 714.221 1509.6 714.734 1509.26C715.247 1508.91 715.643 1508.43 715.922 1507.81C716.201 1507.19 716.34 1506.48 716.34 1505.68C716.34 1504.85 716.201 1504.14 715.922 1503.52C715.643 1502.89 715.247 1502.41 714.734 1502.07C714.221 1501.72 713.619 1501.54 712.93 1501.54C712.241 1501.54 711.639 1501.72 711.126 1502.07C710.627 1502.41 710.231 1502.89 709.938 1503.52C709.659 1504.14 709.52 1504.85 709.52 1505.68C709.52 1506.48 709.659 1507.19 709.938 1507.81C710.231 1508.43 710.627 1508.91 711.126 1509.26C711.639 1509.6 712.241 1509.77 712.93 1509.77ZM728.409 1511V1501.78H724.471L724.053 1505.39C723.936 1506.37 723.782 1507.19 723.591 1507.85C723.415 1508.5 723.21 1509.01 722.975 1509.39C722.741 1509.78 722.484 1510.05 722.205 1510.23C721.941 1510.41 721.663 1510.52 721.369 1510.58L720.973 1509.53C721.179 1509.42 721.369 1509.24 721.545 1508.98C721.721 1508.71 721.883 1508.28 722.029 1507.68C722.191 1507.08 722.337 1506.2 722.469 1505.04L723.041 1500.31H730.213V1511H728.409ZM720.643 1514.78L720.445 1510.67V1509.53H731.775V1510.67L731.577 1514.78H730.015V1511H722.183V1514.78H720.643ZM741.601 1511V1501.78H737.663L737.245 1505.39C737.128 1506.37 736.974 1507.19 736.783 1507.85C736.607 1508.5 736.402 1509.01 736.167 1509.39C735.932 1509.78 735.676 1510.05 735.397 1510.23C735.133 1510.41 734.854 1510.52 734.561 1510.58L734.165 1509.53C734.37 1509.42 734.561 1509.24 734.737 1508.98C734.913 1508.71 735.074 1508.28 735.221 1507.68C735.382 1507.08 735.529 1506.2 735.661 1505.04L736.233 1500.31H743.405V1511H741.601ZM733.835 1514.78L733.637 1510.67V1509.53H744.967V1510.67L744.769 1514.78H743.207V1511H735.375V1514.78H733.835ZM753.164 1511.26C752.094 1511.26 751.118 1511.04 750.238 1510.6C749.373 1510.16 748.684 1509.53 748.17 1508.69C747.657 1507.84 747.4 1506.82 747.4 1505.63C747.4 1504.47 747.657 1503.48 748.17 1502.64C748.684 1501.8 749.351 1501.17 750.172 1500.73C751.008 1500.27 751.903 1500.04 752.856 1500.04C753.883 1500.04 754.756 1500.26 755.474 1500.68C756.208 1501.09 756.765 1501.67 757.146 1502.42C757.542 1503.17 757.74 1504.05 757.74 1505.06C757.74 1505.27 757.733 1505.46 757.718 1505.65C757.704 1505.84 757.682 1506.01 757.652 1506.16H748.61V1504.75H756.574L756.112 1505.26C756.112 1504 755.819 1503.05 755.232 1502.42C754.66 1501.79 753.883 1501.47 752.9 1501.47C752.24 1501.47 751.624 1501.64 751.052 1501.96C750.495 1502.28 750.048 1502.75 749.71 1503.37C749.373 1503.98 749.204 1504.74 749.204 1505.63C749.204 1506.56 749.388 1507.33 749.754 1507.94C750.121 1508.56 750.62 1509.03 751.25 1509.35C751.881 1509.66 752.592 1509.81 753.384 1509.81C754.03 1509.81 754.609 1509.72 755.122 1509.55C755.65 1509.36 756.156 1509.11 756.64 1508.8L757.3 1509.99C756.772 1510.34 756.164 1510.64 755.474 1510.89C754.8 1511.14 754.03 1511.26 753.164 1511.26ZM761.142 1515.51V1500.31H762.638L762.792 1501.67H762.858C763.356 1501.2 763.928 1500.81 764.574 1500.51C765.234 1500.2 765.894 1500.04 766.554 1500.04C767.522 1500.04 768.328 1500.27 768.974 1500.73C769.634 1501.17 770.132 1501.8 770.47 1502.62C770.807 1503.42 770.976 1504.39 770.976 1505.5C770.976 1506.7 770.748 1507.74 770.294 1508.6C769.839 1509.47 769.245 1510.13 768.512 1510.58C767.778 1511.04 766.979 1511.26 766.114 1511.26C765.63 1511.26 765.094 1511.15 764.508 1510.91C763.936 1510.66 763.408 1510.32 762.924 1509.88H762.858L762.946 1511.9V1515.51H761.142ZM765.806 1509.75C766.436 1509.75 767.001 1509.58 767.5 1509.24C767.998 1508.9 768.387 1508.42 768.666 1507.79C768.959 1507.14 769.106 1506.38 769.106 1505.5C769.106 1504.72 769.003 1504.04 768.798 1503.45C768.592 1502.85 768.27 1502.39 767.83 1502.07C767.39 1501.73 766.81 1501.56 766.092 1501.56C765.608 1501.56 765.094 1501.69 764.552 1501.96C764.024 1502.21 763.488 1502.61 762.946 1503.17V1508.49C763.459 1508.95 763.972 1509.27 764.486 1509.46C765.014 1509.65 765.454 1509.75 765.806 1509.75ZM772.419 1511L775.565 1504.75H778.007V1500.31H779.767V1504.75H782.209L785.355 1511H783.463L781.153 1506.16H779.767V1511H778.007V1506.16H776.621L774.311 1511H772.419ZM775.499 1505.7L774.575 1503.19C774.355 1502.59 774.128 1502.21 773.893 1502.05C773.673 1501.88 773.438 1501.8 773.189 1501.8C773.116 1501.8 773.05 1501.8 772.991 1501.8C772.947 1501.8 772.888 1501.82 772.815 1501.85L772.551 1500.15C772.624 1500.11 772.72 1500.08 772.837 1500.07C772.954 1500.05 773.079 1500.04 773.211 1500.04C773.783 1500.04 774.289 1500.2 774.729 1500.51C775.169 1500.81 775.55 1501.41 775.873 1502.29L777.061 1505.48L775.499 1505.7ZM782.275 1505.7L780.713 1505.48L781.901 1502.29C782.238 1501.41 782.62 1500.81 783.045 1500.51C783.485 1500.2 783.991 1500.04 784.563 1500.04C784.695 1500.04 784.82 1500.06 784.937 1500.09C785.054 1500.1 785.15 1500.12 785.223 1500.15L784.959 1501.85C784.9 1501.82 784.842 1501.8 784.783 1501.8C784.724 1501.8 784.658 1501.8 784.585 1501.8C784.35 1501.8 784.116 1501.88 783.881 1502.05C783.646 1502.21 783.419 1502.59 783.199 1503.19L782.275 1505.7ZM787.899 1511V1500.31H789.703V1504.71H793.421L797.799 1511H795.797L792.519 1506.18H789.703V1511H787.899ZM793.685 1505.79L792.101 1505.48L793.817 1502.33C794.154 1501.73 794.455 1501.27 794.719 1500.95C794.997 1500.61 795.291 1500.37 795.599 1500.24C795.907 1500.11 796.259 1500.04 796.655 1500.04C796.919 1500.04 797.153 1500.09 797.359 1500.18L797.051 1501.87C796.977 1501.84 796.904 1501.83 796.831 1501.83C796.772 1501.81 796.699 1501.8 796.611 1501.8C796.332 1501.8 796.09 1501.9 795.885 1502.09C795.679 1502.27 795.408 1502.65 795.071 1503.26L793.685 1505.79ZM804.082 1511.26C803.422 1511.26 802.813 1511.15 802.256 1510.91C801.699 1510.66 801.259 1510.31 800.936 1509.86C800.613 1509.4 800.452 1508.86 800.452 1508.23C800.452 1507.03 801.053 1506.12 802.256 1505.5C803.459 1504.87 805.439 1504.44 808.196 1504.22C808.181 1503.74 808.079 1503.29 807.888 1502.88C807.712 1502.47 807.419 1502.15 807.008 1501.91C806.597 1501.66 806.047 1501.54 805.358 1501.54C804.903 1501.54 804.449 1501.61 803.994 1501.74C803.554 1501.86 803.129 1502.02 802.718 1502.22C802.322 1502.41 801.955 1502.61 801.618 1502.82L800.914 1501.58C801.266 1501.35 801.691 1501.11 802.19 1500.88C802.703 1500.63 803.253 1500.43 803.84 1500.29C804.427 1500.12 805.035 1500.04 805.666 1500.04C806.649 1500.04 807.455 1500.23 808.086 1500.59C808.731 1500.96 809.208 1501.47 809.516 1502.13C809.839 1502.78 810 1503.55 810 1504.44V1511H808.526L808.372 1509.55H808.306C807.719 1510.02 807.059 1510.42 806.326 1510.76C805.593 1511.1 804.845 1511.26 804.082 1511.26ZM804.566 1509.81C805.182 1509.81 805.791 1509.67 806.392 1509.39C806.993 1509.12 807.595 1508.73 808.196 1508.23V1505.41C806.671 1505.54 805.468 1505.73 804.588 1505.96C803.723 1506.2 803.107 1506.5 802.74 1506.86C802.388 1507.22 802.212 1507.63 802.212 1508.1C802.212 1508.49 802.322 1508.82 802.542 1509.09C802.762 1509.34 803.048 1509.52 803.4 1509.64C803.767 1509.75 804.155 1509.81 804.566 1509.81Z" fill="#F9F9F9"/>
<path d="M647.055 1567.06L647.087 1579.17L659.199 1579.2C659.325 1579.22 659.453 1579.21 659.575 1579.17C659.697 1579.13 659.81 1579.07 659.905 1578.99C660.001 1578.9 660.077 1578.8 660.129 1578.68C660.181 1578.57 660.208 1578.44 660.207 1578.31C660.206 1578.19 660.178 1578.06 660.124 1577.95C660.07 1577.83 659.992 1577.73 659.896 1577.64C659.799 1577.56 659.685 1577.5 659.563 1577.47C659.441 1577.43 659.312 1577.42 659.186 1577.44L650.11 1577.4L662.134 1565.38C662.301 1565.21 662.394 1564.99 662.394 1564.75C662.394 1564.52 662.301 1564.29 662.134 1564.12C661.967 1563.96 661.741 1563.86 661.506 1563.86C661.27 1563.86 661.044 1563.96 660.877 1564.12L648.853 1576.15L648.815 1567.07C648.814 1566.83 648.72 1566.61 648.553 1566.44C648.385 1566.28 648.159 1566.18 647.923 1566.18C647.687 1566.19 647.461 1566.28 647.295 1566.45C647.129 1566.61 647.036 1566.84 647.037 1567.08L647.055 1567.06Z" fill="#F01248"/>
<path id="dof-pentagon"
  d="M228.392 586.5C223.391 577.837 223.391 567.163 228.392 558.5L327.822 386.283C332.824 377.62 342.067 372.283 352.071 372.283H550.929C560.933 372.283 570.176 377.62 575.178 386.283L674.608 558.5C679.609 567.163 679.609 577.837 674.608 586.5L575.178 758.717C570.176 767.38 560.933 772.717 550.93 772.717H352.071C342.067 772.717 332.824 767.38 327.822 758.717L228.392 586.5Z"
  stroke="#F5D7D7" stroke-width="4" fill="transparent" />
<path d="M567 374.815L697.815 244" stroke="#F5D7D7" stroke-width="4" stroke-linecap="round"/>
<path d="M266 564.215L358.5 404" stroke="#F5D7D7" stroke-width="4" stroke-linecap="round"/>
<path d="M636.5 564.215L544 404" stroke="#F5D7D7" stroke-width="4" stroke-linecap="round"/>
<path d="M359 737H544" stroke="#F5D7D7" stroke-width="4" stroke-linecap="round"/>
<path d="M567 1182.81L697.815 1052" stroke="#F5D7D7" stroke-width="4" stroke-linecap="round"/>
<path d="M567 771L697.815 901.815" stroke="#F5D7D7" stroke-width="4" stroke-linecap="round"/>
<path d="M567 1300L697.815 1430.81" stroke="#F5D7D7" stroke-width="4" stroke-linecap="round"/>
<path d="M333.816 374.815L203.002 244" stroke="#F5D7D7" stroke-width="4" stroke-linecap="round"/>
<path d="M419.108 451.136L418.91 446.538V445.438H431.142V446.538L430.944 451.136H429.338V447H420.714V451.136H419.108ZM427.71 447V434.108H424.08C423.948 434.929 423.83 435.67 423.728 436.33C423.625 436.99 423.522 437.65 423.42 438.31C423.332 438.97 423.207 439.718 423.046 440.554C422.87 441.625 422.672 442.534 422.452 443.282C422.232 444.015 421.997 444.609 421.748 445.064C421.513 445.519 421.256 445.863 420.978 446.098C420.714 446.318 420.42 446.457 420.098 446.516L419.57 445.438C419.76 445.365 419.951 445.167 420.142 444.844C420.347 444.507 420.552 443.979 420.758 443.26C420.963 442.527 421.176 441.522 421.396 440.246C421.572 439.293 421.726 438.435 421.858 437.672C421.99 436.895 422.114 436.11 422.232 435.318C422.349 434.511 422.488 433.595 422.65 432.568H429.536V447H427.71ZM433.817 447V436.308H435.577V440.752C435.577 441.324 435.555 441.955 435.511 442.644C435.467 443.319 435.431 444.001 435.401 444.69H435.489C435.695 444.353 435.929 443.971 436.193 443.546C436.472 443.106 436.707 442.725 436.897 442.402L440.945 436.308H442.617V447H440.857V442.556C440.857 441.984 440.879 441.353 440.923 440.664C440.967 439.975 441.004 439.285 441.033 438.596H440.945C440.755 438.919 440.52 439.3 440.241 439.74C439.977 440.18 439.743 440.561 439.537 440.884L435.489 447H433.817ZM450.969 447.264C450.103 447.264 449.275 447.154 448.483 446.934C447.705 446.699 446.935 446.274 446.173 445.658L446.965 444.47C447.581 444.969 448.211 445.321 448.857 445.526C449.502 445.717 450.155 445.812 450.815 445.812C451.929 445.812 452.787 445.651 453.389 445.328C453.99 444.991 454.291 444.514 454.291 443.898C454.291 443.297 454.005 442.857 453.433 442.578C452.875 442.299 452.061 442.16 450.991 442.16H449.143V440.752H450.727C451.753 440.752 452.516 440.613 453.015 440.334C453.528 440.041 453.785 439.63 453.785 439.102C453.785 438.559 453.535 438.156 453.037 437.892C452.538 437.613 451.805 437.474 450.837 437.474C450.074 437.474 449.414 437.577 448.857 437.782C448.299 437.973 447.742 438.273 447.185 438.684L446.437 437.474C447.053 437.019 447.72 436.667 448.439 436.418C449.172 436.169 450.008 436.044 450.947 436.044C451.856 436.044 452.655 436.147 453.345 436.352C454.034 436.557 454.577 436.873 454.973 437.298C455.369 437.723 455.567 438.266 455.567 438.926C455.567 439.454 455.405 439.923 455.083 440.334C454.775 440.73 454.298 441.053 453.653 441.302V441.39C454.386 441.581 454.973 441.881 455.413 442.292C455.867 442.688 456.095 443.275 456.095 444.052C456.095 444.727 455.875 445.306 455.435 445.79C455.009 446.274 454.415 446.641 453.653 446.89C452.89 447.139 451.995 447.264 450.969 447.264ZM463.412 447.264C462.752 447.264 462.143 447.147 461.586 446.912C461.029 446.663 460.589 446.311 460.266 445.856C459.943 445.401 459.782 444.859 459.782 444.228C459.782 443.025 460.383 442.116 461.586 441.5C462.789 440.869 464.769 440.444 467.526 440.224C467.511 439.74 467.409 439.293 467.218 438.882C467.042 438.471 466.749 438.149 466.338 437.914C465.927 437.665 465.377 437.54 464.688 437.54C464.233 437.54 463.779 437.606 463.324 437.738C462.884 437.855 462.459 438.017 462.048 438.222C461.652 438.413 461.285 438.611 460.948 438.816L460.244 437.584C460.596 437.349 461.021 437.115 461.52 436.88C462.033 436.631 462.583 436.433 463.17 436.286C463.757 436.125 464.365 436.044 464.996 436.044C465.979 436.044 466.785 436.227 467.416 436.594C468.061 436.961 468.538 437.474 468.846 438.134C469.169 438.779 469.33 439.549 469.33 440.444V447H467.856L467.702 445.548H467.636C467.049 446.017 466.389 446.421 465.656 446.758C464.923 447.095 464.175 447.264 463.412 447.264ZM463.896 445.812C464.512 445.812 465.121 445.673 465.722 445.394C466.323 445.115 466.925 444.727 467.526 444.228V441.412C466.001 441.544 464.798 441.727 463.918 441.962C463.053 442.197 462.437 442.497 462.07 442.864C461.718 443.216 461.542 443.627 461.542 444.096C461.542 444.492 461.652 444.822 461.872 445.086C462.092 445.335 462.378 445.519 462.73 445.636C463.097 445.753 463.485 445.812 463.896 445.812ZM473.391 447V436.308H475.151V440.752C475.151 441.324 475.129 441.955 475.085 442.644C475.041 443.319 475.005 444.001 474.975 444.69H475.063C475.269 444.353 475.503 443.971 475.767 443.546C476.046 443.106 476.281 442.725 476.471 442.402L480.519 436.308H482.191V447H480.431V442.556C480.431 441.984 480.453 441.353 480.497 440.664C480.541 439.975 480.578 439.285 480.607 438.596H480.519C480.329 438.919 480.094 439.3 479.815 439.74C479.551 440.18 479.317 440.561 479.111 440.884L475.063 447H473.391ZM478.033 434.416C477.212 434.416 476.552 434.262 476.053 433.954C475.555 433.646 475.195 433.243 474.975 432.744C474.755 432.231 474.623 431.695 474.579 431.138L476.075 431.05C476.09 431.461 476.156 431.842 476.273 432.194C476.405 432.546 476.611 432.832 476.889 433.052C477.168 433.257 477.549 433.36 478.033 433.36C478.517 433.36 478.899 433.257 479.177 433.052C479.456 432.832 479.654 432.546 479.771 432.194C479.903 431.842 479.977 431.461 479.991 431.05L481.487 431.138C481.458 431.695 481.326 432.231 481.091 432.744C480.871 433.243 480.512 433.646 480.013 433.954C479.515 434.262 478.855 434.416 478.033 434.416ZM486.429 447V436.308H488.233V440.642H493.733V436.308H495.537V447H493.733V442.248H488.233V447H486.429Z" fill="#F9F9F9"/>
<path d="M703.057 287.201L715.169 287.169L715.2 275.057C715.217 274.931 715.207 274.803 715.17 274.681C715.133 274.559 715.071 274.447 714.987 274.351C714.903 274.255 714.799 274.179 714.683 274.127C714.566 274.075 714.44 274.048 714.313 274.049C714.186 274.05 714.06 274.079 713.945 274.132C713.829 274.186 713.727 274.264 713.644 274.361C713.561 274.457 713.5 274.571 713.465 274.693C713.43 274.816 713.421 274.944 713.44 275.07L713.403 284.146L701.379 272.122C701.212 271.955 700.986 271.862 700.75 271.862C700.514 271.862 700.288 271.955 700.122 272.122C699.955 272.289 699.861 272.515 699.861 272.751C699.861 272.986 699.955 273.213 700.122 273.379L712.146 285.403L703.069 285.441C702.834 285.442 702.608 285.536 702.441 285.704C702.275 285.871 702.182 286.098 702.183 286.333C702.184 286.569 702.279 286.795 702.446 286.961C702.613 287.128 702.84 287.221 703.076 287.22L703.057 287.201Z" fill="#F01248"/>
<path d="M647.055 1050.06L647.087 1062.17L659.199 1062.2C659.325 1062.22 659.453 1062.21 659.575 1062.17C659.697 1062.13 659.81 1062.07 659.905 1061.99C660.001 1061.9 660.077 1061.8 660.129 1061.68C660.181 1061.57 660.208 1061.44 660.207 1061.31C660.206 1061.19 660.178 1061.06 660.124 1060.95C660.07 1060.83 659.992 1060.73 659.896 1060.64C659.799 1060.56 659.685 1060.5 659.563 1060.47C659.441 1060.43 659.312 1060.42 659.186 1060.44L650.11 1060.4L662.134 1048.38C662.301 1048.21 662.394 1047.99 662.394 1047.75C662.394 1047.52 662.301 1047.29 662.134 1047.12C661.967 1046.96 661.741 1046.86 661.506 1046.86C661.27 1046.86 661.044 1046.96 660.877 1047.12L648.853 1059.15L648.815 1050.07C648.814 1049.83 648.72 1049.61 648.553 1049.44C648.385 1049.28 648.159 1049.18 647.923 1049.18C647.687 1049.19 647.461 1049.28 647.295 1049.45C647.129 1049.61 647.036 1049.84 647.037 1050.08L647.055 1050.06Z" fill="#F01248"/>
<path d="M603.057 778.201L615.169 778.17L615.2 766.058C615.217 765.932 615.207 765.803 615.17 765.681C615.133 765.56 615.071 765.447 614.987 765.351C614.903 765.256 614.799 765.179 614.683 765.127C614.566 765.075 614.44 765.049 614.313 765.05C614.186 765.051 614.06 765.079 613.945 765.133C613.829 765.186 613.727 765.264 613.644 765.361C613.561 765.458 613.5 765.571 613.465 765.694C613.43 765.816 613.421 765.945 613.44 766.071L613.403 775.147L601.379 763.123C601.212 762.956 600.986 762.862 600.75 762.862C600.514 762.862 600.288 762.956 600.122 763.123C599.955 763.289 599.861 763.515 599.861 763.751C599.861 763.987 599.955 764.213 600.122 764.38L612.146 776.404L603.069 776.441C602.834 776.442 602.608 776.537 602.441 776.704C602.275 776.872 602.182 777.098 602.183 777.334C602.184 777.57 602.279 777.796 602.446 777.962C602.613 778.128 602.84 778.221 603.076 778.22L603.057 778.201Z" fill="#F01248"/>
<path d="M180.051 275.057L180.083 287.169L192.195 287.201C192.321 287.218 192.449 287.208 192.571 287.171C192.693 287.134 192.806 287.071 192.901 286.987C192.997 286.903 193.073 286.799 193.125 286.683C193.177 286.567 193.204 286.441 193.203 286.314C193.202 286.186 193.174 286.061 193.12 285.945C193.066 285.83 192.989 285.727 192.892 285.644C192.795 285.562 192.682 285.501 192.559 285.466C192.437 285.43 192.308 285.422 192.182 285.441L183.106 285.403L195.13 273.379C195.297 273.213 195.39 272.987 195.39 272.751C195.39 272.515 195.297 272.289 195.13 272.122C194.963 271.956 194.737 271.862 194.502 271.862C194.266 271.862 194.04 271.956 193.873 272.122L181.849 284.146L181.811 275.07C181.811 274.834 181.716 274.608 181.549 274.442C181.381 274.276 181.155 274.183 180.919 274.184C180.683 274.185 180.457 274.279 180.291 274.447C180.125 274.614 180.032 274.84 180.033 275.076L180.051 275.057Z" fill="#F01248"/>
</svg>
