<svg width="359" height="697" viewBox="0 0 359 697" fill="none" xmlns="http://www.w3.org/2000/svg">
<g clip-path="url(#clip0_354_1680)">
<circle cx="41.8516" cy="41.8525" r="40.0794" transform="rotate(180 41.8516 41.8525)" stroke="#F5D7D7" stroke-width="1.84117"/>
<circle cx="318.035" cy="41.8525" r="40.0794" transform="rotate(180 318.035 41.8525)" stroke="#F5D7D7" stroke-width="1.84117"/>
<circle cx="318.035" cy="413.77" r="40.0794" transform="rotate(180 318.035 413.77)" stroke="#F5D7D7" stroke-width="1.84117"/>
<circle cx="202.043" cy="534.827" r="40.0794" transform="rotate(180 202.043 534.827)" stroke="#F5D7D7" stroke-width="1.84117"/>
<circle cx="318.957" cy="655.883" r="40.0794" transform="rotate(180 318.957 655.883)" stroke="#F5D7D7" stroke-width="1.84117"/>
<path d="M77.5062 233.138C75.2039 229.151 75.2039 224.238 77.5062 220.25L123.273 140.98C125.575 136.992 129.83 134.536 134.434 134.536H225.968C230.572 134.536 234.827 136.992 237.129 140.98L282.896 220.25C285.198 224.238 285.198 229.151 282.896 233.138L237.129 312.408C234.827 316.396 230.572 318.852 225.968 318.852H134.434C129.83 318.852 125.575 316.396 123.273 312.408L77.5062 233.138Z" stroke="#F5D7D7" stroke-width="1.84117"/>
<path d="M233.371 135.701L293.584 75.4876" stroke="#F5D7D7" stroke-width="1.84117" stroke-linecap="round"/>
<path d="M94.8203 222.88L137.397 149.135" stroke="#F5D7D7" stroke-width="1.84117" stroke-linecap="round"/>
<path d="M265.355 222.88L222.778 149.135" stroke="#F5D7D7" stroke-width="1.84117" stroke-linecap="round"/>
<path d="M137.625 302.413H222.779" stroke="#F5D7D7" stroke-width="1.84117" stroke-linecap="round"/>
<path d="M233.371 507.617L293.584 447.404" stroke="#F5D7D7" stroke-width="1.84117" stroke-linecap="round"/>
<path d="M233.371 318.062L293.584 378.275" stroke="#F5D7D7" stroke-width="1.84117" stroke-linecap="round"/>
<path d="M233.371 561.557L293.584 621.77" stroke="#F5D7D7" stroke-width="1.84117" stroke-linecap="round"/>
<path d="M126.035 135.701L65.8221 75.4876" stroke="#F5D7D7" stroke-width="1.84117" stroke-linecap="round"/>
</g>
<defs>
<clipPath id="clip0_354_1680">
<rect width="359" height="697" fill="white"/>
</clipPath>
</defs>
</svg>
