<svg width="200" height="97" viewBox="0 0 200 97" fill="none" xmlns="http://www.w3.org/2000/svg">
<path d="M46.5031 72.1894C46.5031 67.187 47.8936 63.4818 50.6746 61.0739C52.9977 59.073 55.8295 58.0725 59.1701 58.0725C62.8838 58.0725 65.9191 59.2934 68.2761 61.7352C70.6332 64.1601 71.8117 67.5177 71.8117 71.8078C71.8117 75.2841 71.2861 78.0227 70.2347 80.0236C69.2003 82.0076 67.6826 83.5507 65.6817 84.6529C63.6977 85.7552 61.5272 86.3063 59.1701 86.3063C55.3887 86.3063 52.3279 85.0938 49.9878 82.6689C47.6646 80.2441 46.5031 76.7509 46.5031 72.1894ZM51.2087 72.1894C51.2087 75.6486 51.9633 78.2431 53.4725 79.9727C54.9817 81.6854 56.8809 82.5418 59.1701 82.5418C61.4424 82.5418 63.3331 81.6769 64.8423 79.9473C66.3515 78.2177 67.1061 75.5808 67.1061 72.0368C67.1061 68.6962 66.343 66.1696 64.8169 64.4569C63.3077 62.7272 61.4254 61.8624 59.1701 61.8624C56.8809 61.8624 54.9817 62.7188 53.4725 64.4314C51.9633 66.1441 51.2087 68.7301 51.2087 72.1894ZM77.1024 85.6958V48.4069L81.6808 48.4069V85.6958H77.1024ZM106.506 85.6958V81.7278C104.404 84.7801 101.546 86.3063 97.9343 86.3063C96.3404 86.3063 94.8481 86.001 93.4576 85.3906C92.0841 84.7801 91.0582 84.017 90.3799 83.1013C89.7186 82.1687 89.2522 81.0326 88.9809 79.6929C88.7944 78.7942 88.7011 77.3698 88.7011 75.4197V58.6829H93.2796V73.6647C93.2796 76.0556 93.3728 77.6666 93.5594 78.4975C93.8476 79.7014 94.4581 80.651 95.3907 81.3463C96.3234 82.0246 97.4765 82.3637 98.85 82.3637C100.224 82.3637 101.512 82.0161 102.716 81.3208C103.92 80.6086 104.768 79.6506 105.26 78.4466C105.769 77.2257 106.023 75.4621 106.023 73.1559V58.6829H110.601V85.6958H106.506ZM127.796 81.6006L128.457 85.6449C127.169 85.9162 126.015 86.0519 124.998 86.0519C123.336 86.0519 122.048 85.7891 121.132 85.2634C120.216 84.7377 119.572 84.051 119.199 83.2031C118.826 82.3383 118.639 80.5323 118.639 77.7853V62.244L115.282 62.244V58.6829L118.639 58.6829V51.9933L123.192 49.2462V58.6829H127.796V62.244H123.192V78.0396C123.192 79.3453 123.268 80.1847 123.421 80.5578C123.591 80.9308 123.853 81.2276 124.21 81.448C124.583 81.6685 125.108 81.7787 125.787 81.7787C126.295 81.7787 126.965 81.7193 127.796 81.6006ZM132.324 53.6721V48.4069H136.902V53.6721H132.324ZM132.324 85.6958V58.6829H136.902V85.6958H132.324ZM142.193 72.1894C142.193 67.187 143.583 63.4818 146.364 61.0739C148.687 59.073 151.519 58.0725 154.86 58.0725C158.573 58.0725 161.609 59.2934 163.966 61.7352C166.323 64.1601 167.501 67.5177 167.501 71.8078C167.501 75.2841 166.976 78.0227 165.924 80.0236C164.89 82.0076 163.372 83.5507 161.371 84.6529C159.387 85.7552 157.217 86.3063 154.86 86.3063C151.078 86.3063 148.017 85.0938 145.677 82.6689C143.354 80.2441 142.193 76.7509 142.193 72.1894ZM146.898 72.1894C146.898 75.6486 147.653 78.2431 149.162 79.9727C150.671 81.6854 152.571 82.5418 154.86 82.5418C157.132 82.5418 159.023 81.6769 160.532 79.9473C162.041 78.2177 162.796 75.5808 162.796 72.0368C162.796 68.6962 162.033 66.1696 160.506 64.4569C158.997 62.7272 157.115 61.8624 154.86 61.8624C152.571 61.8624 150.671 62.7188 149.162 64.4314C147.653 66.1441 146.898 68.7301 146.898 72.1894ZM172.894 85.6958V58.6829H177.014V62.5238C178.998 59.5562 181.864 58.0725 185.612 58.0725C187.24 58.0725 188.732 58.3692 190.088 58.9627C191.462 59.5393 192.488 60.3024 193.166 61.252C193.844 62.2016 194.319 63.3292 194.591 64.6349C194.76 65.4828 194.845 66.9665 194.845 69.0862V85.6958H190.266V69.2643C190.266 67.399 190.088 66.0085 189.732 65.0928C189.376 64.1601 188.74 63.4225 187.825 62.8799C186.926 62.3203 185.866 62.0405 184.645 62.0405C182.695 62.0405 181.008 62.6594 179.583 63.8973C178.176 65.1352 177.472 67.4837 177.472 70.943V85.6958H172.894Z" fill="#F9F9F9"/>
<path d="M10.5304 48L0.635896 10.7111L5.69763 10.7111L11.3698 35.1549C11.9803 37.7154 12.506 40.259 12.9468 42.7857C13.8964 38.8007 14.456 36.503 14.6256 35.8925L21.7222 10.7111L27.6742 10.7111L33.0157 29.5845C34.3553 34.2646 35.3219 38.665 35.9154 42.7857C36.3902 40.4286 37.0091 37.7239 37.7722 34.6716L43.6225 10.7111L48.5824 10.7111L38.3572 48H33.6007L25.7411 19.5882C25.0797 17.2142 24.6897 15.7558 24.571 15.2132C24.181 16.9259 23.8164 18.3842 23.4773 19.5882L15.5667 48L10.5304 48Z" fill="#F01248"/>
<path d="M66.6991 43.5549L71.4302 44.1399C70.6841 46.9039 69.3021 49.049 67.2842 50.5751C65.2662 52.1013 62.6887 52.8644 59.5517 52.8644C55.6006 52.8644 52.4635 51.6519 50.1404 49.227C47.8342 46.7852 46.6811 43.3683 46.6811 38.9764C46.6811 34.4319 47.8512 30.9048 50.1913 28.3951C52.5314 25.8854 55.5667 24.6306 59.2973 24.6306C62.9092 24.6306 65.8597 25.86 68.149 28.3188C70.4382 30.7776 71.5828 34.2369 71.5828 38.6966C71.5828 38.9679 71.5743 39.3749 71.5574 39.9175H51.4122C51.5818 42.885 52.4211 45.1573 53.9303 46.7343C55.4395 48.3114 57.3218 49.0999 59.5771 49.0999C61.2559 49.0999 62.6887 48.659 63.8757 47.7772C65.0628 46.8954 66.0039 45.488 66.6991 43.5549ZM51.6665 36.153H66.75C66.5465 33.8808 65.97 32.1766 65.0204 31.0404C63.562 29.2769 61.6713 28.3951 59.3482 28.3951C57.2455 28.3951 55.4734 29.0988 54.0321 30.5063C52.6077 31.9137 51.8192 33.796 51.6665 36.153ZM81.4265 52.2539H77.1787V14.965L81.7571 14.965V28.2679C83.6903 25.843 86.1575 24.6306 89.159 24.6306C90.8208 24.6306 92.3893 24.9697 93.8646 25.648C95.3568 26.3094 96.5778 27.2505 97.5274 28.4714C98.4939 29.6754 99.2485 31.1337 99.7911 32.8464C100.334 34.559 100.605 36.3904 100.605 38.3405C100.605 42.9698 99.4605 46.5478 97.1713 49.0744C94.882 51.6011 92.135 52.8644 88.93 52.8644C85.7421 52.8644 83.2409 51.5332 81.4265 48.8709V52.2539ZM81.3756 38.544C81.3756 41.7828 81.8165 44.1229 82.6983 45.5643C84.1396 47.9213 86.0897 49.0999 88.5485 49.0999C90.5495 49.0999 92.2791 48.235 93.7374 46.5054C95.1957 44.7588 95.9249 42.1644 95.9249 38.722C95.9249 35.1949 95.2212 32.592 93.8137 30.9132C92.4232 29.2345 90.736 28.3951 88.752 28.3951C86.751 28.3951 85.0214 29.2684 83.5631 31.015C82.1048 32.7446 81.3756 35.2543 81.3756 38.544Z" fill="#F01248"/>
<path fill-rule="evenodd" clip-rule="evenodd" d="M44.453 49.0195L7.16406 58.9141L7.16406 63.9504L35.5759 71.8609C36.7799 72.2001 38.2382 72.5646 39.9509 72.9547C39.4082 73.0734 37.9499 73.4634 35.5759 74.1247L7.4082 81.9168H23.7167C24.3327 81.751 24.9536 81.5785 25.5796 81.3993L44.453 76.0578V70.1058L19.2715 63.0092C18.6611 62.8397 16.3634 62.2801 12.3784 61.3305C14.905 60.8896 17.4486 60.3639 20.0092 59.7535L44.453 54.0813V49.0195Z" fill="#F9F9F9"/>
<path fill-rule="evenodd" clip-rule="evenodd" d="M6.85156 82.0141V86.5684L23.9815 81.8533L22.8057 77.6226L6.85156 82.0141Z" fill="#F9F9F9"/>
</svg>
