<svg width="200" height="97" viewBox="0 0 200 97" fill="none" xmlns="http://www.w3.org/2000/svg">
<path d="M43.2588 60.4318H48.0119L59.0741 19.0668H53.9815L45.4373 54.3487L35.3653 19.0668H30.2727L20.5968 54.3487L12.0809 19.0668H6.98828L17.9939 60.4318H22.747L32.819 24.7255L43.2588 60.4318Z" fill="#F01248"/>
<path d="M172.594 74.3731H168.336V34.4563H172.594V74.3731Z" fill="#F9F9F9"/>
<path d="M184.763 46.1722H192.803V49.4337H184.763V65.7408C184.763 67.3926 185.151 68.6736 185.926 69.5837C186.719 70.4771 187.797 70.9237 189.162 70.9237C190.528 70.9237 191.809 70.7552 193.005 70.4181V73.6542C192.601 73.8565 191.943 74.025 191.033 74.1599C190.123 74.3116 189.314 74.3874 188.606 74.3874C183.247 74.3874 180.567 71.5642 180.567 65.9178V49.4337H176.598V47.4111L180.567 45.6666L182.336 39.7505H184.763V46.1722Z" fill="#F9F9F9"/>
<path d="M148.368 47.1626C149.507 46.5048 150.911 46.5048 152.05 47.1626L160.842 52.2391C161.982 52.8969 162.684 54.1125 162.684 55.4281V65.5814C162.684 66.897 161.982 68.1127 160.842 68.7705L152.05 73.8469C150.911 74.5048 149.507 74.5048 148.368 73.8469L139.575 68.7705C138.436 68.1127 137.734 66.897 137.734 65.5814V55.4281C137.734 54.1125 138.436 52.8969 139.575 52.2391L148.368 47.1626Z" stroke="#F01248" stroke-width="3.41296"/>
<path d="M84.5695 23.8899V32.6543C84.5695 34.5247 84.5076 36.2869 84.384 37.9408H84.5695C86.3625 35.4058 88.9747 34.1383 92.4061 34.1383C95.853 34.1383 98.4883 35.2821 100.312 37.5699C102.167 39.8421 103.094 43.0728 103.094 47.2618C103.094 51.4353 102.159 54.6737 100.289 56.9768C98.4342 59.28 95.8066 60.4316 92.4061 60.4316C89.0056 60.4316 86.3934 59.1873 84.5695 56.6986H84.2912L83.4798 59.9679H80.7207V23.8899H84.5695ZM99.0834 47.169C99.0834 43.8765 98.5038 41.4265 97.3445 39.8189C96.1853 38.1959 94.3459 37.3844 91.8264 37.3844C89.307 37.3844 87.4676 38.1341 86.3084 39.6334C85.1491 41.1328 84.5695 43.6679 84.5695 47.2386C84.5695 50.7938 85.1645 53.352 86.3547 54.9133C87.5449 56.4436 89.4538 57.2087 92.0815 57.2087C94.4155 57.2087 96.1621 56.3585 97.3214 54.6582C98.4961 52.9579 99.0834 50.4615 99.0834 47.169Z" fill="#F01248"/>
<path d="M67.7062 60.4329C64.002 60.4329 61.0752 59.3048 58.9258 57.0486C56.7917 54.7772 55.7246 51.6292 55.7246 47.6047C55.7246 43.5801 56.7155 40.3864 58.6971 38.0235C60.6941 35.6454 63.316 34.4563 66.5629 34.4563C69.8251 34.4563 72.3632 35.5005 74.1772 37.589C76.0064 39.6166 76.9211 42.3301 76.9211 45.7296V48.1306H59.6575C59.7337 51.0575 60.473 53.2909 61.8755 54.8305C63.2779 56.355 65.2977 57.1172 67.9349 57.1172C70.572 57.1172 73.2016 56.5532 75.8235 55.4251V58.8094C74.4973 59.3886 73.2244 59.8002 72.0049 60.0442C70.8007 60.3033 69.3678 60.4329 67.7062 60.4329ZM72.851 45.0436C72.851 42.6655 72.3174 40.8437 71.2504 39.5784C70.1833 38.2979 68.6513 37.6576 66.6544 37.6576C64.6727 37.6576 63.0797 38.3055 61.8755 39.6013C60.6712 40.8971 59.9624 42.7112 59.749 45.0436H72.851Z" fill="#F01248"/>
<path d="M103.101 74.4016V77.9334L133.834 68.5365V64.7525L107.621 57.5629L120.727 54.3991L127.281 52.8172V49.1951L126.151 49.4957L118.468 51.5401L103.101 55.6289V59.1606L129.63 66.6445L103.101 74.4016Z" fill="#F9F9F9"/>
<path d="M47.0397 60.5054H50.5822L41.1566 29.8665H37.361L30.1494 55.9997L26.9759 42.9331L25.3891 36.3998H21.7559L22.0574 37.5262L24.1081 45.1859L28.2094 60.5054H31.752L39.2588 34.0578L47.0397 60.5054Z" fill="#F9F9F9"/>
</svg>
