<svg width="111" height="54" viewBox="0 0 111 54" fill="none" xmlns="http://www.w3.org/2000/svg">
<path d="M25.8145 40.4661C25.8145 37.6812 26.5885 35.6186 28.1367 34.2781C29.43 33.1641 31.0065 32.6072 32.8662 32.6072C34.9336 32.6072 36.6234 33.2869 37.9355 34.6462C39.2477 35.9962 39.9038 37.8653 39.9038 40.2537C39.9038 42.1889 39.6112 43.7135 39.0259 44.8274C38.45 45.9319 37.6051 46.7909 36.4912 47.4045C35.3867 48.0181 34.1784 48.325 32.8662 48.325C30.7611 48.325 29.0571 47.65 27.7544 46.3C26.4611 44.9501 25.8145 43.0055 25.8145 40.4661ZM28.4341 40.4661C28.4341 42.3918 28.8542 43.8362 29.6943 44.7991C30.5345 45.7525 31.5918 46.2292 32.8662 46.2292C34.1312 46.2292 35.1838 45.7478 36.0239 44.7849C36.8641 43.822 37.2842 42.3541 37.2842 40.3811C37.2842 38.5214 36.8594 37.1148 36.0098 36.1614C35.1696 35.1985 34.1217 34.717 32.8662 34.717C31.5918 34.717 30.5345 35.1938 29.6943 36.1472C28.8542 37.1007 28.4341 38.5403 28.4341 40.4661ZM42.8491 47.9851V27.2263H45.3979V47.9851H42.8491ZM59.2183 47.9851V45.7761C58.0477 47.4753 56.457 48.325 54.4463 48.325C53.5589 48.325 52.7282 48.155 51.9541 47.8152C51.1895 47.4753 50.6183 47.0505 50.2407 46.5408C49.8726 46.0216 49.613 45.3891 49.4619 44.6433C49.3581 44.143 49.3062 43.35 49.3062 42.2644V32.947H51.855V41.2874C51.855 42.6184 51.9069 43.5152 52.0107 43.9778C52.1712 44.648 52.5111 45.1767 53.0303 45.5637C53.5495 45.9413 54.1914 46.1301 54.9561 46.1301C55.7207 46.1301 56.4382 45.9366 57.1084 45.5496C57.7786 45.1531 58.2507 44.6197 58.5244 43.9495C58.8076 43.2698 58.9492 42.288 58.9492 41.0042V32.947H61.498V47.9851H59.2183ZM71.0703 45.7053L71.4385 47.9568C70.721 48.1078 70.0791 48.1833 69.5127 48.1833C68.5876 48.1833 67.8701 48.037 67.3604 47.7444C66.8506 47.4517 66.4919 47.0694 66.2842 46.5974C66.0765 46.116 65.9727 45.1106 65.9727 43.5813V34.9294H64.1035V32.947H65.9727V29.2229L68.5073 27.6936V32.947H71.0703V34.9294H68.5073V43.7229C68.5073 44.4498 68.5498 44.9171 68.6348 45.1248C68.7292 45.3324 68.8755 45.4976 69.0737 45.6204C69.2814 45.7431 69.5741 45.8044 69.9517 45.8044C70.2349 45.8044 70.6077 45.7714 71.0703 45.7053ZM73.5908 30.1575V27.2263H76.1396V30.1575H73.5908ZM73.5908 47.9851V32.947H76.1396V47.9851H73.5908ZM79.085 40.4661C79.085 37.6812 79.859 35.6186 81.4072 34.2781C82.7005 33.1641 84.277 32.6072 86.1367 32.6072C88.2041 32.6072 89.8939 33.2869 91.2061 34.6462C92.5182 35.9962 93.1743 37.8653 93.1743 40.2537C93.1743 42.1889 92.8817 43.7135 92.2964 44.8274C91.7205 45.9319 90.8757 46.7909 89.7617 47.4045C88.6572 48.0181 87.4489 48.325 86.1367 48.325C84.0316 48.325 82.3276 47.65 81.0249 46.3C79.7316 44.9501 79.085 43.0055 79.085 40.4661ZM81.7046 40.4661C81.7046 42.3918 82.1247 43.8362 82.9648 44.7991C83.805 45.7525 84.8623 46.2292 86.1367 46.2292C87.4017 46.2292 88.4543 45.7478 89.2944 44.7849C90.1346 43.822 90.5547 42.3541 90.5547 40.3811C90.5547 38.5214 90.1299 37.1148 89.2803 36.1614C88.4401 35.1985 87.3923 34.717 86.1367 34.717C84.8623 34.717 83.805 35.1938 82.9648 36.1472C82.1247 37.1007 81.7046 38.5403 81.7046 40.4661ZM96.1763 47.9851V32.947H98.4702V35.0852C99.5747 33.4332 101.17 32.6072 103.256 32.6072C104.163 32.6072 104.993 32.7724 105.749 33.1028C106.513 33.4237 107.084 33.8486 107.462 34.3772C107.84 34.9058 108.104 35.5336 108.255 36.2605C108.349 36.7325 108.396 37.5585 108.396 38.7385V47.9851H105.848V38.8376C105.848 37.7992 105.749 37.0251 105.55 36.5154C105.352 35.9962 104.998 35.5855 104.488 35.2834C103.988 34.9719 103.398 34.8162 102.718 34.8162C101.633 34.8162 100.693 35.1607 99.9004 35.8499C99.1169 36.539 98.7251 37.8464 98.7251 39.7722V47.9851H96.1763Z" fill="#F9F9F9"/>
<path d="M5.8623 27L0.354004 6.24121L3.17188 6.24121L6.32959 19.8491C6.66943 21.2746 6.96208 22.6906 7.20752 24.0972C7.73617 21.8787 8.04769 20.5996 8.14209 20.2598L12.0928 6.24121L15.4063 6.24121L18.3799 16.748C19.1257 19.3535 19.6637 21.8032 19.9941 24.0972C20.2585 22.785 20.603 21.2793 21.0278 19.5801L24.2847 6.24121L27.0459 6.24121L21.3535 27H18.7056L14.3301 11.1831C13.9619 9.86149 13.7448 9.04964 13.6787 8.74756C13.4616 9.70101 13.2586 10.5129 13.0698 11.1831L8.66602 27H5.8623Z" fill="#F01248"/>
<path d="M37.0576 24.5258L39.6914 24.8514C39.276 26.3902 38.5067 27.5844 37.3833 28.434C36.2599 29.2836 34.825 29.7084 33.0786 29.7084C30.8791 29.7084 29.1326 29.0334 27.8394 27.6835C26.5555 26.3241 25.9136 24.4219 25.9136 21.9769C25.9136 19.447 26.5649 17.4834 27.8677 16.0863C29.1704 14.6892 30.8602 13.9906 32.937 13.9906C34.9478 13.9906 36.5903 14.675 37.8647 16.0438C39.1392 17.4126 39.7764 19.3384 39.7764 21.8212C39.7764 21.9722 39.7716 22.1988 39.7622 22.5009H28.5474C28.6418 24.1529 29.109 25.4178 29.9492 26.2958C30.7894 27.1737 31.8372 27.6127 33.0928 27.6127C34.0273 27.6127 34.825 27.3672 35.4858 26.8763C36.1466 26.3855 36.6706 25.6019 37.0576 24.5258ZM28.689 20.4052H37.0859C36.9727 19.1402 36.6517 18.1914 36.123 17.559C35.3112 16.5772 34.2586 16.0863 32.9653 16.0863C31.7948 16.0863 30.8083 16.4781 30.0059 17.2616C29.2129 18.0451 28.7739 19.093 28.689 20.4052ZM45.2563 29.3685H42.8916V8.60974H45.4404V16.0155C46.5166 14.6656 47.8901 13.9906 49.561 13.9906C50.4862 13.9906 51.3594 14.1794 52.1807 14.557C53.0114 14.9252 53.6911 15.4491 54.2197 16.1288C54.7578 16.799 55.1779 17.6109 55.48 18.5643C55.7821 19.5178 55.9331 20.5373 55.9331 21.6229C55.9331 24.2001 55.2959 26.1919 54.0215 27.5985C52.7471 29.0051 51.2178 29.7084 49.4336 29.7084C47.6589 29.7084 46.2664 28.9673 45.2563 27.4852V29.3685ZM45.228 21.7362C45.228 23.5393 45.4735 24.842 45.9644 25.6444C46.7668 26.9566 47.8524 27.6127 49.2212 27.6127C50.3351 27.6127 51.298 27.1312 52.1099 26.1683C52.9217 25.196 53.3276 23.7517 53.3276 21.8353C53.3276 19.8718 52.9359 18.4227 52.1523 17.4882C51.3783 16.5536 50.439 16.0863 49.3345 16.0863C48.2205 16.0863 47.2576 16.5725 46.4458 17.5448C45.634 18.5077 45.228 19.9048 45.228 21.7362Z" fill="#F01248"/>
<path fill-rule="evenodd" clip-rule="evenodd" d="M24.376 27.2902L3.61719 32.7985V35.6022L19.4341 40.006C20.1043 40.1948 20.9162 40.3978 21.8696 40.6149C21.5675 40.681 20.7557 40.8981 19.4341 41.2663L3.75354 45.6041H12.8325C13.1753 45.5118 13.5208 45.4158 13.8691 45.3161L24.376 42.3425V39.029L10.3574 35.0783C10.0176 34.9839 8.73844 34.6724 6.52002 34.1437C7.9266 33.8983 9.34261 33.6057 10.7681 33.2658L24.376 30.1081V27.2902Z" fill="#F9F9F9"/>
<path fill-rule="evenodd" clip-rule="evenodd" d="M3.80078 45.6571V48.1926L13.3101 45.567L12.6576 43.2118L3.80078 45.6571Z" fill="#F9F9F9"/>
</svg>
