<svg width="111" height="55" viewBox="0 0 111 55" fill="none" xmlns="http://www.w3.org/2000/svg">
<path d="M24.009 34.1425H26.647L32.7865 11.1145H29.9602L25.2181 30.756L19.6281 11.1145H16.8018L11.4316 30.756L6.70529 11.1145H3.87891L9.98704 34.1425H12.625L18.215 14.2647L24.009 34.1425Z" fill="#F01248"/>
<path d="M95.7891 41.9036H93.4258V19.6819H95.7891V41.9036Z" fill="#F9F9F9"/>
<path d="M102.544 26.2041H107.006V28.0198H102.544V37.098C102.544 38.0175 102.759 38.7307 103.189 39.2374C103.629 39.7347 104.227 39.9833 104.985 39.9833C105.743 39.9833 106.454 39.8895 107.118 39.7018V41.5034C106.893 41.616 106.529 41.7098 106.023 41.7849C105.518 41.8693 105.069 41.9116 104.676 41.9116C101.702 41.9116 100.215 40.3399 100.215 37.1965V28.0198H98.0117V26.8938L100.215 25.9226L101.197 22.6292H102.544V26.2041Z" fill="#F9F9F9"/>
<path d="M82.3381 26.7595C82.9735 26.3914 83.7574 26.3914 84.3928 26.7595L89.2634 29.5802C89.8963 29.9468 90.286 30.6228 90.286 31.3542V37.0119C90.286 37.7433 89.8963 38.4193 89.2634 38.7859L84.3928 41.6066C83.7574 41.9746 82.9735 41.9746 82.3381 41.6066L77.4675 38.7859C76.8346 38.4193 76.4449 37.7433 76.4449 37.0119V31.3542C76.4449 30.6228 76.8346 29.9468 77.4675 29.5802L82.3381 26.7595Z" stroke="#F01248" stroke-width="1.9"/>
<path d="M46.9368 13.7996V18.6787C46.9368 19.72 46.9025 20.701 46.8339 21.6217H46.9368C47.932 20.2105 49.3817 19.5048 51.2862 19.5048C53.1992 19.5048 54.6618 20.1416 55.6741 21.4152C56.7035 22.6802 57.2182 24.4787 57.2182 26.8107C57.2182 29.1341 56.6992 30.9369 55.6612 32.2191C54.6318 33.5013 53.1734 34.1424 51.2862 34.1424C49.3989 34.1424 47.9491 33.4497 46.9368 32.0642H46.7824L46.3321 33.8842H44.8008V13.7996H46.9368ZM54.9921 26.7591C54.9921 24.9262 54.6704 23.5622 54.027 22.6673C53.3836 21.7637 52.3628 21.3119 50.9645 21.3119C49.5662 21.3119 48.5453 21.7293 47.9019 22.564C47.2585 23.3987 46.9368 24.81 46.9368 26.7978C46.9368 28.777 47.2671 30.2012 47.9277 31.0703C48.5882 31.9222 49.6477 32.3482 51.106 32.3482C52.4014 32.3482 53.3708 31.8749 54.0141 30.9283C54.6661 29.9817 54.9921 28.592 54.9921 26.7591Z" fill="#F01248"/>
<path d="M37.5756 34.1431C35.5197 34.1431 33.8953 33.5151 32.7024 32.2591C31.518 30.9945 30.9258 29.2421 30.9258 27.0016C30.9258 24.7611 31.4757 22.9832 32.5755 21.6678C33.6838 20.3438 35.139 19.6819 36.941 19.6819C38.7515 19.6819 40.1602 20.2632 41.167 21.4259C42.1822 22.5546 42.6898 24.0652 42.6898 25.9577V27.2944H33.1085C33.1508 28.9238 33.5612 30.1671 34.3395 31.0243C35.1179 31.8729 36.2388 32.2972 37.7025 32.2972C39.1661 32.2972 40.6255 31.9832 42.0807 31.3552V33.2393C41.3446 33.5617 40.6382 33.7909 39.9614 33.9267C39.293 34.0709 38.4977 34.1431 37.5756 34.1431ZM40.4309 25.5758C40.4309 24.2519 40.1348 23.2378 39.5426 22.5334C38.9504 21.8205 38.1001 21.4641 36.9918 21.4641C35.892 21.4641 35.0079 21.8248 34.3395 22.5461C33.6711 23.2675 33.2777 24.2774 33.1593 25.5758H40.4309Z" fill="#F01248"/>
<path d="M57.2206 41.9195V43.8856L74.2773 38.6543V36.5478L59.729 32.5454L67.0031 30.7841L70.6402 29.9034V27.887L70.0132 28.0543L65.749 29.1925L57.2206 31.4687V33.4348L71.944 37.6011L57.2206 41.9195Z" fill="#F9F9F9"/>
<path d="M26.1067 34.1834H28.0729L22.8416 17.1267H20.7351L16.7326 31.6751L14.9713 24.4009L14.0907 20.7638H12.0742L12.2416 21.3909L13.3797 25.6551L15.6559 34.1834H17.6221L21.7883 19.4601L26.1067 34.1834Z" fill="#F9F9F9"/>
</svg>
