<svg width="1325" height="646" viewBox="0 0 1325 646" fill="none" xmlns="http://www.w3.org/2000/svg">
<path d="M286.593 402.48H318.082L391.369 127.596H357.631L301.026 362.056L234.299 127.596H200.56L136.457 362.056L80.0392 127.596H46.3008L119.213 402.48H150.702L217.429 165.2L286.593 402.48Z" fill="#F01248"/>
<path d="M1143.43 495.124H1115.22V229.865H1143.43V495.124Z" fill="#F9F9F9"/>
<path d="M1224.06 307.721H1277.32V329.394H1224.06V437.76C1224.06 448.736 1226.63 457.249 1231.76 463.297C1237.01 469.234 1244.16 472.202 1253.2 472.202C1262.25 472.202 1270.73 471.082 1278.66 468.842V490.347C1275.98 491.691 1271.63 492.811 1265.6 493.707C1259.57 494.715 1254.21 495.219 1249.52 495.219C1214.01 495.219 1196.26 476.458 1196.26 438.936V329.394H1169.96V315.953L1196.26 304.36L1207.98 265.046H1224.06V307.721Z" fill="#F9F9F9"/>
<path d="M982.865 314.35C990.451 309.957 999.807 309.957 1007.39 314.35L1065.53 348.021C1073.09 352.397 1077.74 360.466 1077.74 369.197V436.732C1077.74 445.463 1073.09 453.532 1065.53 457.908L1007.39 491.579C999.807 495.972 990.451 495.972 982.865 491.579L924.726 457.908C917.17 453.532 912.519 445.463 912.519 436.732V369.197C912.519 360.466 917.17 352.397 924.726 348.021L982.865 314.35Z" stroke="#F01248" stroke-width="22.6802"/>
<path d="M560.283 159.648V217.89C560.283 230.32 559.874 242.03 559.054 253.021H560.283C572.162 236.175 589.468 227.752 612.201 227.752C635.036 227.752 652.496 235.353 664.579 250.555C676.867 265.655 683.012 287.124 683.012 314.961C683.012 342.696 676.816 364.216 664.426 379.521C652.137 394.826 634.729 402.479 612.201 402.479C589.672 402.479 572.367 394.21 560.283 377.672H558.44L553.064 399.397H534.785V159.648H560.283ZM656.438 314.345C656.438 292.465 652.598 276.184 644.918 265.501C637.238 254.716 625.052 249.323 608.361 249.323C591.669 249.323 579.483 254.305 571.803 264.269C564.123 274.233 560.283 291.079 560.283 314.807C560.283 338.433 564.226 355.433 572.111 365.808C579.995 375.977 592.642 381.062 610.05 381.062C625.513 381.062 637.084 375.412 644.765 364.113C652.547 352.814 656.438 336.224 656.438 314.345Z" fill="#F01248"/>
<path d="M448.538 402.487C423.998 402.487 404.608 394.991 390.368 379.998C376.229 364.903 369.16 343.984 369.16 317.24C369.16 290.495 375.725 269.272 388.853 253.57C402.083 237.766 419.453 229.865 440.964 229.865C462.576 229.865 479.391 236.804 491.408 250.683C503.527 264.156 509.587 282.188 509.587 304.779V320.735H395.216C395.721 340.185 400.619 355.026 409.91 365.258C419.201 375.388 432.582 380.454 450.053 380.454C467.524 380.454 484.945 376.705 502.315 369.209V391.698C493.529 395.548 485.097 398.283 477.017 399.904C469.039 401.626 459.546 402.487 448.538 402.487ZM482.622 300.221C482.622 284.417 479.088 272.311 472.018 263.903C464.949 255.393 454.8 251.139 441.57 251.139C428.441 251.139 417.888 255.444 409.91 264.055C401.931 272.666 397.235 284.721 395.821 300.221H482.622Z" fill="#F01248"/>
<path d="M683.039 495.314V518.783L886.645 456.338V431.192L712.981 383.415L799.813 362.391L843.229 351.879V327.808L835.743 329.806L784.842 343.392L683.039 370.563V394.033L858.792 443.765L683.039 495.314Z" fill="#F9F9F9"/>
<path d="M311.634 402.969H335.104L272.659 199.364H247.513L199.736 373.027L178.711 286.195L168.199 242.78H144.129L146.127 250.265L159.712 301.166L186.884 402.969H210.353L260.086 227.217L311.634 402.969Z" fill="#F9F9F9"/>
</svg>
